<?xml version="1.0" standalone="no"?>
<!DOCTYPE svg PUBLIC "-//W3C//DTD SVG 1.1//EN" "http://www.w3.org/Graphics/SVG/1.1/DTD/svg11.dtd" >
<svg>
<metadata>
Created by FontForge 20120731 at Mon Jun 16 15:40:24 2014

LL Circular Air font files are proprietary and protected by copyright of LINETO GMBH. They are for exclusive use by licensed users and appointed third parties only, to carry out work for and on behalf of AirBnB under the limited license expiring on 15 June 2018.
Use by unauthorised or unlicensed users and third parties is prohibited and constitutes a criminal offence. It is strictly prohibited to modify, adapt or translate the encoding, reproduce, decompile, disassemble, change, modify or otherwise attempt to reveal the source code of the font software.
</metadata>
<defs>
<font id="CircularAir-LightItalic" horiz-adv-x="576" >
  <font-face 
    font-family="Circular Air Light"
    font-weight="300"
    font-style="italic"
    font-stretch="normal"
    units-per-em="1000"
    panose-1="2 0 5 3 0 0 0 2 0 3"
    ascent="809"
    descent="-191"
    x-height="477"
    cap-height="709"
    bbox="-150 -239 1538 1020"
    underline-thickness="80"
    underline-position="-115"
    slope="-12"
    unicode-range="U+000D-FB04"
  />
<missing-glyph horiz-adv-x="250" 
 />
    <glyph glyph-name="fi" unicode="fi" horiz-adv-x="556" 
d="M459 670q0 23 16.5 39.5t38.5 16.5q20 0 32 -13t12 -33q0 -22 -16.5 -38t-37.5 -16q-20 0 -32.5 12.5t-12.5 31.5zM101 0h-62l90 423h-93l11 54h94l25 121q8 40 24.5 65.5t37.5 40.5t44 20.5t46 5.5q21 0 37.5 -4.5t22.5 -8.5l-13 -51q-7 3 -19 6t-26 3q-32 0 -58 -18
t-36 -68l-24 -112h296l-102 -477h-60l90 423h-235z" />
    <glyph glyph-name="fl" unicode="fl" horiz-adv-x="557" 
d="M320 675q-32 0 -58 -18t-36 -68l-24 -112h236l52 245h61l-154 -722h-60l90 423h-236l-90 -423h-62l90 423h-93l11 54h93l26 121q8 40 24.5 65.5t37.5 40.5t44 20.5t46 5.5q21 0 37.5 -4.5t22.5 -8.5l-13 -51q-7 3 -19 6t-26 3z" />
    <glyph glyph-name="uniFB00" unicode="ff" horiz-adv-x="614" 
d="M609 675q-32 0 -58 -18t-37 -68l-24 -112h118l-12 -54h-117l-90 -423h-61l89 423h-226l-90 -423h-62l90 423h-93l11 54h93l26 121q8 40 24.5 65.5t37.5 40.5t44 20.5t46 5.5q21 0 37.5 -4.5t22.5 -8.5l-13 -51q-7 3 -19 6t-26 3q-32 0 -58 -18t-36 -68l-24 -112h227
l26 121q8 40 24.5 65.5t37 40.5t44 20.5t46.5 5.5q21 0 37 -4.5t22 -8.5l-12 -51q-7 3 -19 6t-26 3z" />
    <glyph glyph-name="uniFB03" unicode="ffi" horiz-adv-x="843" 
d="M745 670q0 23 17 39.5t38 16.5q20 0 32 -13t12 -33q0 -22 -16 -38t-38 -16q-20 0 -32.5 12.5t-12.5 31.5zM610 675q-32 0 -58.5 -18t-36.5 -68l-24 -112h294l-102 -477h-61l90 423h-232l-90 -423h-62l90 423h-227l-90 -423h-62l90 423h-93l11 54h93l26 121
q8 40 24.5 65.5t37.5 40.5t44 20.5t46 5.5q21 0 37.5 -4.5t22.5 -8.5l-13 -51q-7 3 -19 6t-26 3q-32 0 -58 -18t-36 -68l-24 -112h227l26 121q8 40 24.5 65.5t37.5 40.5t44 20.5t46 5.5q21 0 37.5 -4.5t22.5 -8.5l-12 -51q-8 3 -19.5 6t-25.5 3z" />
    <glyph glyph-name="uniFB04" unicode="ffl" horiz-adv-x="845" 
d="M609 675q-32 0 -58 -18t-37 -68l-24 -112h236l52 245h61l-153 -722h-61l90 423h-236l-90 -423h-61l89 423h-226l-90 -423h-62l90 423h-93l11 54h93l26 121q8 40 24.5 65.5t37.5 40.5t44 20.5t46 5.5q21 0 37.5 -4.5t22.5 -8.5l-13 -51q-7 3 -19 6t-26 3q-32 0 -58 -18
t-36 -68l-24 -112h227l26 121q8 40 24.5 65.5t37 40.5t44 20.5t46.5 5.5q21 0 37 -4.5t22 -8.5l-12 -51q-7 3 -19 6t-26 3z" />
    <glyph glyph-name=".notdef" horiz-adv-x="250" 
 />
    <glyph glyph-name="NULL" horiz-adv-x="0" 
 />
    <glyph glyph-name="NULL" horiz-adv-x="0" 
 />
    <glyph glyph-name="nonmarkingreturn" unicode="&#xd;" horiz-adv-x="261" 
 />
    <glyph glyph-name="space" unicode=" " horiz-adv-x="261" 
 />
    <glyph glyph-name="lslash" unicode="&#x142;" horiz-adv-x="272" 
d="M24 0l70 329l-108 -44l12 57l108 44l71 336h61l-66 -310l112 46l-12 -57l-113 -46l-75 -355h-60z" />
    <glyph glyph-name="Scaron" unicode="&#x160;" horiz-adv-x="559" 
d="M250 44q36 0 67 10t53 28.5t34.5 44t12.5 56.5q0 39 -21 69.5t-72 53.5l-103 47q-56 25 -88 66t-32 103q0 45 18.5 81.5t49.5 63t71.5 41t84.5 14.5q59 0 101 -18t68 -46.5t38.5 -63.5t13.5 -70l-61 -12q0 26 -8 53t-27.5 49.5t-51 37t-78.5 14.5q-30 0 -57.5 -10
t-49.5 -27.5t-35 -42.5t-13 -55q0 -43 21 -71.5t62 -46.5l102 -47q133 -60 133 -175q0 -44 -17.5 -81.5t-49 -64.5t-74 -42.5t-93.5 -15.5q-62 0 -108.5 19.5t-76.5 53t-43 79t-7 96.5v2q0 2 1 3l63 11q-1 -3 -1 -7q-5 -39 2.5 -75.5t29 -64t56.5 -44t85 -16.5zM534 878
l-137 -119h-81l-82 119h52l76 -83l110 83h62z" />
    <glyph glyph-name="scaron" unicode="&#x161;" horiz-adv-x="428" 
d="M51 154q1 -49 30.5 -82t87.5 -33q45 0 74 24t29 62q0 26 -15.5 44t-43.5 31l-69 32q-39 17 -62 45t-23 70q0 28 11.5 54t33 46t52 31.5t67.5 11.5q43 0 73 -13.5t49.5 -34t29 -45t10.5 -47.5q-12 -4 -22 -6.5l-18 -4.5q-9 -3 -16 -4q-1 19 -7.5 37.5t-19.5 33.5t-34 24
t-50 9q-41 0 -70.5 -24t-29.5 -59q0 -24 12.5 -41.5t43.5 -31.5l69 -31q43 -20 66.5 -50.5t23.5 -69.5q0 -27 -11 -53t-32 -46.5t-52 -33t-71 -12.5q-42 0 -74 12.5t-53.5 34t-32.5 49t-11 57.5q0 10 2 16l55 13q-2 -8 -2 -15zM430 676l-137 -138h-78l-77 138h51l71 -99
l112 99h58z" />
    <glyph glyph-name="Yacute" unicode="&#xdd;" horiz-adv-x="584" 
d="M95 709h67l132 -341l257 341h75l-313 -404l-64 -305h-63l66 311zM386 759h-64l128 119h87z" />
    <glyph glyph-name="yacute" unicode="&#xfd;" horiz-adv-x="471" 
d="M-30 -190l178 265l-118 402h65l96 -343l220 343h71l-442 -667h-70zM271 537h-55l124 140h86z" />
    <glyph glyph-name="Thorn" unicode="&#xde;" horiz-adv-x="570" 
d="M18 0l151 709h64l-32 -146h159q43 0 77.5 -13t58.5 -35.5t37 -53.5t13 -67q0 -53 -20.5 -97t-55.5 -75.5t-83 -49t-103 -17.5h-169l-33 -155h-64zM190 505l-63 -293h157q42 0 78.5 13t62.5 36.5t41 56t15 72.5q0 52 -34.5 83.5t-100.5 31.5h-156z" />
    <glyph glyph-name="thorn" unicode="&#xfe;" horiz-adv-x="556" 
d="M297 435q-40 0 -74 -19.5t-58.5 -52.5t-38.5 -76t-14 -89q0 -70 35 -113t101 -43q37 0 71 17.5t60 49t41.5 75t15.5 95.5q0 69 -36 112.5t-103 43.5zM158 722h61l-66 -312q24 32 66 55.5t97 23.5q45 0 78.5 -15.5t56.5 -42.5t34.5 -64t11.5 -79q0 -64 -19 -118.5t-52 -95
t-77.5 -63.5t-96.5 -23q-36 0 -63.5 10.5t-48 26.5t-34 36t-19.5 39l-62 -290h-60z" />
    <glyph glyph-name="Zcaron" unicode="&#x17d;" horiz-adv-x="621" 
d="M-27 0l14 64l573 587h-438l12 58h517l-14 -63l-574 -587h441l-12 -59h-519zM574 878l-137 -119h-81l-82 119h52l76 -83l110 83h62z" />
    <glyph glyph-name="zcaron" unicode="&#x17e;" horiz-adv-x="471" 
d="M-27 0l11 54l374 368h-284l11 55h362l-10 -55l-375 -367h303l-11 -55h-381zM443 676l-137 -138h-78l-77 138h51l71 -99l112 99h58z" />
    <glyph glyph-name="onehalf" unicode="&#xbd;" horiz-adv-x="792" 
d="M70 0h-64l619 709h63zM115 346l61 280q-4 -4 -15 -8t-24.5 -7.5t-27 -5.5t-22.5 -2l7 39q38 3 64.5 22t38.5 45h47l-78 -363h-51zM593 180q33 14 52.5 34t19.5 50q0 24 -17.5 43t-52.5 19q-38 0 -62 -25t-24 -66q0 -5 1 -8l-48 1q-1 3 -1 10q0 27 9.5 51t27 41.5
t42.5 27.5t57 10q29 0 51 -8.5t37 -22.5t23 -32.5t8 -38.5q0 -42 -27.5 -73t-69.5 -50l-77 -33q-53 -24 -65 -66h210l-9 -44h-268q8 48 33.5 86.5t76.5 61.5z" />
    <glyph glyph-name="onequarter" unicode="&#xbc;" horiz-adv-x="770" 
d="M70 0h-64l619 709h63zM115 346l61 280q-4 -4 -15 -8t-24.5 -7.5t-27 -5.5t-22.5 -2l7 39q38 3 64.5 22t38.5 45h47l-78 -363h-51zM377 138l222 225h62l-50 -236h67l-8 -44h-68q-3 -17 -7 -32q-3 -14 -6 -27.5t-5 -23.5h-50l18 83h-186zM599 304l-175 -177h137z" />
    <glyph glyph-name="onesuperior" unicode="&#xb9;" horiz-adv-x="274" 
d="M108 346l61 280q-4 -4 -15 -8t-24.5 -7.5t-27 -5.5t-22.5 -2l7 39q38 3 64.5 22t38.5 45h47l-78 -363h-51z" />
    <glyph glyph-name="threequarters" unicode="&#xbe;" horiz-adv-x="893" 
d="M184 0h-64l619 709h64zM194 569l140 96h-187l9 44h247l-10 -57l-132 -87q40 -2 69.5 -28.5t29.5 -70.5q0 -25 -10 -48t-28 -40.5t-44 -28t-59 -10.5q-29 0 -53 8.5t-41.5 23.5t-27 35t-9.5 43v8t1 8l49 7q-1 -5 -1 -14q0 -33 23.5 -54t58.5 -21q38 0 64 23.5t26 58.5
q0 32 -23 48t-54 16h-10.5t-10.5 -2zM492 138l222 225h62l-51 -236h68l-9 -44h-67q-3 -17 -7 -32q-3 -14 -6 -27.5t-5 -23.5h-50l18 83h-186zM714 304l-175 -177h136z" />
    <glyph glyph-name="threesuperior" unicode="&#xb3;" horiz-adv-x="422" 
d="M186 569l139 96h-186l9 44h247l-11 -57l-132 -87q41 -2 70.5 -28.5t29.5 -70.5q0 -25 -10 -48t-28.5 -40.5t-44.5 -28t-59 -10.5q-58 0 -94 31.5t-36 78.5v8t1 8l48 7q-1 -5 -1 -14q0 -33 24 -54t59 -21q38 0 63.5 23.5t25.5 58.5q0 32 -22.5 48t-53.5 16h-10.5t-10.5 -2
z" />
    <glyph glyph-name="twosuperior" unicode="&#xb2;" horiz-adv-x="380" 
d="M239 526q34 14 53 34t19 49q0 25 -17.5 44t-52.5 19q-38 0 -61.5 -25t-23.5 -67v-7l-48 1q0 2 -0.5 4.5t-0.5 5.5q0 27 9.5 51t27 41.5t42.5 27.5t57 10q29 0 51.5 -8.5t37.5 -22.5t23 -32.5t8 -38.5q0 -43 -27.5 -74t-69.5 -49l-78 -34q-51 -22 -64 -65h209l-9 -44h-268
q8 48 33.5 86.5t77.5 61.5z" />
    <glyph glyph-name="brokenbar" unicode="&#xa6;" horiz-adv-x="237" 
d="M95 378l84 400h54l-85 -400h-53zM-16 -141l85 400h54l-85 -400h-54z" />
    <glyph glyph-name="minus" unicode="&#x2212;" horiz-adv-x="541" 
d="M56 353h421v-50h-421v50z" />
    <glyph glyph-name="multiply" unicode="&#xd7;" horiz-adv-x="528" 
d="M57 142l178 185l-178 185l36 37l178 -185l178 185l36 -36l-179 -186l179 -185l-36 -37l-179 185l-177 -184z" />
    <glyph glyph-name="Lslash" unicode="&#x141;" horiz-adv-x="528" 
d="M18 0l66 312l-101 -41l12 56l102 41l72 341h64l-67 -313l185 75l-12 -57l-185 -74l-60 -281h351l-13 -59h-414z" />
    <glyph glyph-name="exclam" unicode="!" horiz-adv-x="271" 
d="M166 709h78l-127 -520h-43zM22 39q0 23 15.5 40t39.5 17q20 0 31.5 -13.5t11.5 -31.5q0 -23 -16 -39t-38 -16q-20 0 -32 12.5t-12 30.5z" />
    <glyph glyph-name="quotedbl" unicode="&#x22;" horiz-adv-x="326" 
d="M224 488l6 175q2 29 16 42t32 13t28.5 -11t10.5 -28q0 -9 -3.5 -22t-8.5 -24l-58 -145h-23zM90 488l6 175q2 29 16 42t32 13t28.5 -11t10.5 -28q0 -9 -3.5 -22t-8.5 -24l-58 -145h-23z" />
    <glyph glyph-name="numbersign" unicode="#" horiz-adv-x="737" 
d="M252 258h177l39 194h-177zM87 502h159l42 207h55l-42 -207h177l43 207h55l-42 -207h159v-50h-170l-38 -194h158v-50h-169l-42 -208h-55l42 208h-178l-41 -208h-55l41 208h-150v50h161l39 194h-149v50z" />
    <glyph glyph-name="dollar" unicode="$" horiz-adv-x="575" 
d="M166 529q0 -42 20.5 -70.5t62.5 -48.5l23 -11l56 262q-2 1 -5.5 1h-6.5q-29 0 -56 -10t-48 -27.5t-33.5 -41.5t-12.5 -54zM419 187q0 38 -21.5 68t-70.5 53l-20 8l-57 -268h9q35 1 64.5 11.5t50.5 29t33 43.5t12 55zM164 -114l24 114q-41 9 -72.5 28.5t-53 46.5t-32.5 61
t-11 71q0 17 4 36l56 10q-2 -8 -2.5 -18.5t-0.5 -18.5q0 -58 30 -103.5t93 -60.5l61 287l-37 18q-54 26 -85 65t-31 99q0 43 18 79t48 61.5t69 39.5t82 14q4 0 7.5 -0.5t7.5 -0.5l21 96h52l-22 -103q39 -9 67.5 -28.5t46.5 -45t26.5 -54.5t9.5 -58l-54 -11q-1 49 -26.5 89
t-80.5 55l-60 -279l31 -14q63 -30 95.5 -70.5t32.5 -97.5q0 -43 -17 -79.5t-47.5 -63t-72 -41t-90.5 -14.5h-11l-24 -109h-52z" />
    <glyph glyph-name="percent" unicode="%" horiz-adv-x="805" 
d="M201 402q-31 0 -57.5 11t-45.5 29.5t-29.5 44t-10.5 55.5q0 34 13.5 66t37 56t55.5 38.5t69 14.5q31 0 57 -11t45 -30t30 -44.5t11 -55.5q0 -35 -14 -66.5t-38 -55.5t-55.5 -38t-67.5 -14zM119 0h-65l623 709h65zM206 452q24 0 44.5 9.5t36 26t24.5 39t9 47.5
q0 40 -25 66t-68 26q-23 0 -43.5 -9.5t-36 -26t-24.5 -38.5t-9 -46q0 -41 25 -67.5t67 -26.5zM568 -8q-31 0 -57.5 11t-45.5 30t-29.5 44.5t-10.5 55.5q0 34 13.5 65.5t36.5 55.5t55 38.5t69 14.5q31 0 57.5 -11t45.5 -29.5t29.5 -44.5t10.5 -56q0 -35 -14 -66.5
t-37.5 -55.5t-55 -38t-67.5 -14zM573 43q23 0 44 9.5t36.5 26t24.5 38.5t9 47q0 40 -25.5 66t-68.5 26q-23 0 -43.5 -9.5t-36 -26t-24.5 -38.5t-9 -46q0 -40 25.5 -66.5t67.5 -26.5z" />
    <glyph glyph-name="ampersand" unicode="&#x26;" horiz-adv-x="646" 
d="M324 448q45 25 70 55.5t25 71.5t-27 66.5t-72 25.5q-23 0 -44 -9t-37 -24.5t-26 -37.5t-10 -48q0 -23 8 -46t22 -43l29 -44zM83 164q0 -23 8.5 -44t24 -36.5t38 -24.5t49.5 -9q44 0 86 26.5t81 61.5l5 4l-134 200l-45 -25q-48 -27 -80.5 -62.5t-32.5 -90.5zM471 0l-65 97
l-3 -3q-52 -48 -101 -74.5t-105 -26.5q-42 0 -74.5 14t-55.5 37.5t-35 54t-12 63.5q0 38 13 68.5t35 55.5t52 46t64 40l26 14l-24 36q-16 24 -29.5 55t-13.5 67q0 41 15 74t40.5 56t58.5 35.5t68 12.5t63.5 -11.5t49 -31t31.5 -45.5t11 -56q0 -34 -11.5 -60.5t-30.5 -48
t-42.5 -38t-47.5 -29.5l-55 -31l126 -189l185 166l-20 -88l-133 -124l92 -136h-72z" />
    <glyph glyph-name="quotesingle" unicode="'" horiz-adv-x="188" 
d="M90 488l6 175q2 29 16 42t32 13t28.5 -11t10.5 -28q0 -9 -3.5 -22t-8.5 -24l-58 -145h-23z" />
    <glyph glyph-name="parenleft" unicode="(" horiz-adv-x="272" 
d="M39 198q0 95 21 179t60 157.5t95 136.5t125 115l32 -38q-60 -47 -111.5 -103t-89 -123.5t-58.5 -147.5t-21 -174q0 -91 25 -166t65 -140l-42 -26q-43 63 -72 147t-29 183z" />
    <glyph glyph-name="parenright" unicode=")" horiz-adv-x="272" 
d="M233 452q0 -96 -21.5 -179.5t-60.5 -156.5t-94.5 -135.5t-124.5 -114.5l-32 37q61 47 112 103t88.5 123.5t58.5 147.5t21 175q0 90 -25 165t-65 140l42 27q44 -65 72.5 -149.5t28.5 -182.5z" />
    <glyph glyph-name="asterisk" unicode="*" horiz-adv-x="416" 
d="M275 562l148 48l7 -48l-150 -48l66 -122l-42 -28l-66 125l-116 -127l-38 32l117 124l-128 46l23 46l128 -48l28 146h54z" />
    <glyph glyph-name="plus" unicode="+" horiz-adv-x="557" 
d="M304 93h-53v210h-194v50h194v207h53v-207h194v-50h-194v-210z" />
    <glyph glyph-name="comma" unicode="," horiz-adv-x="235" 
d="M4 42q0 24 17 40.5t41 16.5q23 0 39 -16t16 -45q0 -36 -14.5 -68t-37.5 -56.5t-52.5 -40.5t-59.5 -19l8 40q19 4 37 14.5t32 25t24.5 31.5t14.5 34q-6 -3 -19 -3q-20 0 -33 12.5t-13 33.5z" />
    <glyph glyph-name="hyphen" unicode="-" horiz-adv-x="353" 
d="M23 260l11 54h263l-11 -54h-263z" />
    <glyph glyph-name="period" unicode="." horiz-adv-x="227" 
d="M49 -4q-22 0 -34.5 13.5t-12.5 31.5q0 25 16.5 42.5t41.5 17.5q22 0 34 -14t12 -33q0 -25 -17 -41.5t-40 -16.5z" />
    <glyph glyph-name="slash" unicode="/" horiz-adv-x="419" 
d="M-9 -6h-63l502 721h63z" />
    <glyph glyph-name="zero" unicode="0" horiz-adv-x="644" 
d="M265 -13q-62 0 -104.5 22.5t-68.5 59.5t-37.5 85.5t-11.5 99.5q0 50 9 104.5t26.5 106.5t44.5 98.5t62.5 82t80 56t97.5 20.5q63 0 106 -22.5t68.5 -59.5t36.5 -85t11 -99t-9 -106t-27.5 -107t-45.5 -98.5t-62.5 -81.5t-79.5 -55.5t-96 -20.5zM104 250q0 -43 9 -80.5
t28.5 -65.5t51.5 -44t77 -16q64 0 112 40.5t79.5 102.5t47 135t15.5 139q0 43 -9 80.5t-28.5 65t-51 43.5t-77.5 16q-65 0 -112.5 -40t-79 -102t-47 -135t-15.5 -139z" />
    <glyph glyph-name="one" unicode="1" horiz-adv-x="357" 
d="M118 0l122 583q-8 -12 -29 -23t-47.5 -20t-54 -15.5t-48.5 -7.5l9 46q71 7 122 48.5t76 97.5h60l-150 -709h-60z" />
    <glyph glyph-name="two" unicode="2" horiz-adv-x="570" 
d="M334 344q68 34 108.5 80t40.5 112q0 27 -8.5 51t-26.5 42t-45 28.5t-63 10.5q-38 0 -71 -13t-57.5 -38t-39.5 -61t-15 -81v-4l-60 9v3q0 49 18.5 92.5t51 76t77.5 51.5t99 19q51 0 89 -14.5t63.5 -39.5t38 -57.5t12.5 -69.5q0 -44 -13.5 -80.5t-37.5 -66.5t-57 -53.5
t-71 -42.5l-167 -84q-44 -23 -81.5 -64t-51.5 -92h394l-12 -58h-462l-1 -1q10 85 59.5 155t137.5 114z" />
    <glyph glyph-name="three" unicode="3" horiz-adv-x="580" 
d="M232 -13q-54 0 -96 16.5t-71 45t-44.5 67t-15.5 81.5q0 18 3 33l61 8q-2 -8 -3 -17.5t-1 -18.5q0 -35 12.5 -64t34.5 -50.5t53 -33.5t67 -12q39 0 74.5 13.5t62 38t42.5 59.5t16 78q0 34 -12 60t-33 43.5t-49.5 26.5t-61.5 9q-10 0 -20 -1t-18 -3l-21 57l300 229h-377
l12 57h454l-13 -67l-292 -223h8q36 -1 69.5 -13.5t59.5 -36t41.5 -57.5t15.5 -79q0 -51 -19.5 -96t-54 -78t-81.5 -52.5t-103 -19.5z" />
    <glyph glyph-name="four" unicode="4" horiz-adv-x="605" 
d="M30 249l413 460h86l-102 -478h131l-12 -56h-131l-36 -175h-59l35 175h-342zM456 645l-369 -414h280z" />
    <glyph glyph-name="five" unicode="5" horiz-adv-x="584" 
d="M13 199v11t1 11l60 12q-1 -5 -1 -10.5v-10.5q0 -34 10 -65t30.5 -54t52 -37t73.5 -14q38 0 73 14.5t62 41t43 63.5t16 82q0 71 -40.5 114t-116.5 43q-80 0 -146 -55l-55 34l156 330h345l-7 -58h-306l-115 -242q29 25 66 35.5t75 10.5q48 0 86 -14.5t65 -41.5t41.5 -65
t14.5 -84q0 -55 -20 -103t-55 -83.5t-83 -56t-103 -20.5q-51 0 -92.5 16.5t-70 45t-44 67t-15.5 83.5z" />
    <glyph glyph-name="six" unicode="6" horiz-adv-x="603" 
d="M575 620q-23 17 -58.5 29.5t-86.5 12.5q-64 0 -117.5 -26t-94 -70t-68 -101.5t-39.5 -121.5q11 22 29.5 44t45 39t60 27.5t73.5 10.5q46 0 85 -14.5t66.5 -41t43 -64.5t15.5 -84q0 -62 -22.5 -112.5t-60 -86t-85.5 -55t-98 -19.5t-91.5 17t-71 49t-46 78.5t-16.5 105.5
q0 86 26.5 172t77 154.5t124.5 111t169 42.5q53 0 96 -13t71 -35zM305 410q-39 0 -75.5 -15t-64.5 -42t-44.5 -64t-16.5 -80q0 -36 11.5 -67t33 -53t51.5 -34.5t67 -12.5t72 14.5t63 41.5t45 65.5t17 86.5q0 73 -42 116.5t-117 43.5z" />
    <glyph glyph-name="seven" unicode="7" horiz-adv-x="523" 
d="M49 0q40 136 98.5 241.5t121.5 185t124.5 134.5t106.5 90h-425l13 58h492l-14 -63q-60 -47 -123.5 -107t-123.5 -138.5t-113 -177.5t-92 -223h-65z" />
    <glyph glyph-name="eight" unicode="8" horiz-adv-x="598" 
d="M487 199q0 -46 -19 -85t-52 -67t-78 -44t-99 -16q-59 0 -102 15.5t-71 41.5t-41.5 59.5t-13.5 69.5q0 38 14 71t38.5 59t58 43.5t71.5 24.5q-42 17 -67.5 56.5t-25.5 89.5q0 45 18.5 82.5t51 65t75.5 42.5t91 15q51 0 90.5 -14t66.5 -38t41 -56t14 -68q0 -35 -13 -66.5
t-35.5 -56.5t-53 -42.5t-64.5 -24.5q51 -19 78 -59.5t27 -97.5zM314 387q36 0 67.5 11.5t55 31.5t37 48.5t13.5 63.5q0 26 -10 49t-29.5 40.5t-48.5 27.5t-66 10q-38 0 -69.5 -11.5t-54.5 -32t-36 -48.5t-13 -62q0 -31 12.5 -55t33.5 -40t49 -24.5t59 -8.5zM74 175
q0 -35 14 -60t37.5 -42t54 -25t63.5 -8q39 0 73 12t58.5 33.5t38.5 50.5t14 64q0 28 -10.5 53t-31.5 43.5t-52.5 29.5t-73.5 11t-76 -12t-58 -33.5t-37.5 -51t-13.5 -65.5z" />
    <glyph glyph-name="nine" unicode="9" horiz-adv-x="609" 
d="M134 467q0 -76 44 -118.5t116 -42.5q38 0 73 15t61.5 41.5t42.5 63t16 80.5q0 35 -12 64.5t-33.5 51t-51 33.5t-63.5 12q-35 0 -69.5 -14t-62 -39.5t-44.5 -63t-17 -83.5zM23 107q32 -29 73.5 -44.5t91.5 -15.5q63 0 112.5 24.5t86.5 68t60 102t34 127.5
q-24 -53 -76 -85.5t-122 -32.5q-44 0 -82.5 14.5t-67 41.5t-45.5 65t-17 85q0 63 22.5 112.5t59.5 83.5t84 51.5t95 17.5q50 0 91 -16.5t70.5 -48t45.5 -78t16 -106.5q0 -56 -10 -113.5t-30 -111.5t-50 -100.5t-71 -81.5t-93 -55t-115 -20q-56 0 -108.5 17t-83.5 49z" />
    <glyph glyph-name="colon" unicode=":" horiz-adv-x="259" 
d="M133 376q-22 0 -34.5 13.5t-12.5 31.5q0 25 16.5 42.5t41.5 17.5q22 0 34 -14t12 -33q0 -25 -17 -41.5t-40 -16.5zM51 -4q-22 0 -34.5 13.5t-12.5 31.5q0 25 16.5 42.5t41.5 17.5q22 0 34 -14t12 -33q0 -25 -17 -41.5t-40 -16.5z" />
    <glyph glyph-name="semicolon" unicode=";" horiz-adv-x="259" 
d="M137 376q-22 0 -34.5 13.5t-12.5 31.5q0 25 16.5 42.5t41.5 17.5q22 0 34 -14t12 -33q0 -25 -17 -41.5t-40 -16.5zM1 42q0 24 17 40t40 16t38.5 -15.5t15.5 -44.5q0 -35 -14 -66.5t-37 -56t-52 -40t-58 -18.5l8 40q19 4 36 14t31.5 24.5t24.5 31t14 33.5q-6 -3 -19 -3
q-19 0 -32 12.5t-13 32.5z" />
    <glyph glyph-name="less" unicode="&#x3c;" horiz-adv-x="516" 
d="M65 354l402 207v-60l-343 -173l343 -175v-60l-402 207v54z" />
    <glyph glyph-name="equal" unicode="=" horiz-adv-x="608" 
d="M77 449h446v-49h-446v49zM77 256h446v-50h-446v50z" />
    <glyph glyph-name="greater" unicode="&#x3e;" horiz-adv-x="488" 
d="M438 300l-401 -207v60l343 175l-343 173v60l401 -207v-54z" />
    <glyph glyph-name="question" unicode="?" horiz-adv-x="479" 
d="M162 189q-1 2 -1 5.5v6.5q2 61 29.5 102t78.5 71l50 30q47 27 72.5 62t25.5 83q0 23 -8 44.5t-24.5 37.5t-41 25.5t-57.5 9.5q-39 0 -69.5 -15t-51.5 -39t-31.5 -55t-10.5 -64v-13l-59 11q-1 3 -1 9q1 44 17 84t45.5 71t71.5 49t95 18q46 0 81 -14t59 -37t36.5 -53
t12.5 -62q0 -35 -10.5 -64t-29 -54t-43.5 -45.5t-55 -37.5l-52 -31q-42 -24 -58.5 -57.5t-16.5 -77.5h-54zM123 39q0 23 15.5 40t39.5 17q20 0 31.5 -13.5t11.5 -31.5q0 -23 -16 -39t-38 -16q-20 0 -32 12.5t-12 30.5z" />
    <glyph glyph-name="at" unicode="@" horiz-adv-x="811" 
d="M429 -45q-86 0 -157.5 28t-122.5 78.5t-79.5 120t-28.5 152.5q0 84 30 155t82 123t121 81t147 29q79 0 144 -26.5t111.5 -71.5t71.5 -103.5t25 -122.5q0 -56 -15.5 -102t-41 -80t-59 -52.5t-68.5 -18.5q-42 0 -66.5 21t-27.5 56q-20 -36 -53.5 -57t-70.5 -21
q-32 0 -58.5 12t-46.5 34t-31 52.5t-11 68.5q0 45 14.5 86t40.5 72t61 49.5t76 18.5q38 0 70 -21t41 -59l12 67h52l-50 -250q-3 -15 -3 -28q0 -23 11.5 -39t42.5 -16q24 0 47 16t41.5 43.5t29.5 65t11 81.5q0 54 -20.5 104t-58.5 89t-94 62t-126 23q-69 0 -129 -25.5
t-104 -71.5t-69 -108.5t-25 -136.5q0 -70 23 -130.5t66.5 -104.5t105 -69.5t139.5 -25.5q66 0 126.5 23t108.5 68l27 -35q-24 -24 -54 -43.5t-64.5 -33t-71 -20.5t-72.5 -7zM509 382q0 48 -24.5 77t-70.5 29q-29 0 -53.5 -14t-43 -37.5t-29 -54.5t-10.5 -65q0 -25 5.5 -47.5
t17.5 -40t30.5 -27.5t44.5 -10q33 0 57.5 16.5t41 43t25 60.5t9.5 70z" />
    <glyph glyph-name="A" unicode="A" horiz-adv-x="626" 
d="M173 287h266l-60 353zM448 228h-309l-133 -228h-73l422 709h73l122 -709h-64z" />
    <glyph glyph-name="B" unicode="B" horiz-adv-x="584" 
d="M365 709q45 0 79 -13t56 -34.5t33 -50.5t11 -61q0 -31 -10.5 -61t-29.5 -56t-46.5 -45.5t-61.5 -28.5q48 -16 75.5 -54.5t27.5 -87.5q0 -41 -16.5 -80t-47.5 -69.5t-76 -49t-102 -18.5h-239l150 709h197zM312 386q39 0 70 13.5t53 35t34 49.5t12 58q0 22 -7.5 42.5
t-23 35.5t-39.5 24t-57 9h-134l-57 -267h149zM250 56q44 0 78.5 13.5t58.5 36t36.5 52t12.5 60.5q0 23 -7.5 43.5t-23.5 36t-41 24.5t-59 9h-154l-58 -275h157z" />
    <glyph glyph-name="C" unicode="C" horiz-adv-x="715" 
d="M415 722q62 0 111 -17.5t84.5 -48t57 -71t29.5 -86.5l-59 -18q-6 39 -24.5 72.5t-47.5 58t-68.5 38.5t-88.5 14q-60 0 -115 -25.5t-97.5 -73t-68 -115t-25.5 -151.5q0 -62 17.5 -109.5t49 -79.5t74.5 -48.5t93 -16.5q87 0 152.5 45.5t106.5 133.5l53 -26
q-44 -97 -126.5 -154t-191.5 -57q-62 0 -115 21t-93 61t-62.5 97t-22.5 129q0 105 33.5 185t87.5 134t121.5 81t134.5 27z" />
    <glyph glyph-name="D" unicode="D" horiz-adv-x="681" 
d="M18 0l151 709h189q63 0 115 -19t90 -54t59 -86t21 -115q0 -95 -31 -174.5t-86 -137.5t-129 -90.5t-159 -32.5h-220zM239 57q59 0 119.5 24t109 71t79.5 117t31 163q0 55 -17 96t-47.5 68.5t-72.5 41.5t-92 14h-128l-127 -595h145z" />
    <glyph glyph-name="E" unicode="E" horiz-adv-x="566" 
d="M18 0l151 709h409l-12 -59h-346l-57 -265h313l-12 -60h-313l-57 -266h351l-12 -59h-415z" />
    <glyph glyph-name="F" unicode="F" horiz-adv-x="559" 
d="M18 0l151 709h411l-12 -59h-348l-59 -277h316l-13 -59h-315l-67 -314h-64z" />
    <glyph glyph-name="G" unicode="G" horiz-adv-x="739" 
d="M410 664q-59 0 -114.5 -24.5t-98.5 -71.5t-68.5 -114.5t-25.5 -152.5q0 -63 18.5 -110.5t51 -80t75.5 -49t91 -16.5q54 0 99.5 19t79.5 51t56 73.5t30 86.5h-259l12 58h320l-69 -333h-50l17 111q-16 -23 -39 -45t-53.5 -39.5t-68.5 -28.5t-83 -11q-57 0 -110 20.5
t-93.5 60t-65 97t-24.5 132.5q0 106 34 186t88.5 133t122 79.5t134.5 26.5q58 0 106 -16.5t83.5 -46t58.5 -69.5t33 -86l-60 -21q-9 40 -28 73t-48 57t-67 37.5t-85 13.5z" />
    <glyph glyph-name="H" unicode="H" horiz-adv-x="699" 
d="M466 0l70 331h-384l-70 -331h-64l151 709h64l-68 -319h384l68 319h64l-151 -709h-64z" />
    <glyph glyph-name="I" unicode="I" horiz-adv-x="251" 
d="M18 0l151 709h64l-150 -709h-65z" />
    <glyph glyph-name="J" unicode="J" horiz-adv-x="532" 
d="M520 709l-110 -519q-20 -94 -73.5 -148.5t-139.5 -54.5q-52 0 -88.5 17.5t-59 47.5t-30 70t-1.5 85q0 3 1 10t2.5 14.5t2.5 15t2 10.5l2 9l65 10l-5 -20q0 -2 -1.5 -9t-3 -14.5t-2.5 -14t-1 -8.5q-5 -32 -1.5 -61.5t17.5 -52.5t39.5 -37t64.5 -14q58 0 95.5 39.5
t51.5 106.5l109 518h64z" />
    <glyph glyph-name="K" unicode="K" horiz-adv-x="637" 
d="M280 355l-151 -133l-47 -222h-64l150 709h64l-83 -392l444 392h90l-356 -313l216 -396h-73z" />
    <glyph glyph-name="L" unicode="L" horiz-adv-x="528" 
d="M18 0l151 709h64l-139 -650h351l-13 -59h-414z" />
    <glyph glyph-name="M" unicode="M" horiz-adv-x="906" 
d="M675 0l128 607l-396 -607h-51l-147 606l-128 -606h-63l150 709h79l149 -619l404 619h87l-150 -709h-62z" />
    <glyph glyph-name="N" unicode="N" horiz-adv-x="713" 
d="M477 0l-263 624l-132 -624h-64l150 709h79l254 -609l130 609h63l-150 -709h-67z" />
    <glyph glyph-name="O" unicode="O" horiz-adv-x="746" 
d="M38 293q0 106 33.5 186.5t87.5 134.5t121 81t133 27q63 0 116.5 -20.5t93.5 -59.5t62.5 -96t22.5 -130q0 -106 -33.5 -186.5t-87.5 -134.5t-121 -81t-133 -27q-63 0 -116.5 20.5t-93.5 59.5t-62.5 96t-22.5 130zM643 411q0 63 -18.5 110.5t-50 79t-74 47.5t-91.5 16
q-60 0 -115 -26t-97.5 -73.5t-68 -115t-25.5 -151.5q0 -63 18.5 -110.5t50 -79t74 -47.5t91.5 -16q60 0 115 26t97.5 73.5t68 115t25.5 151.5z" />
    <glyph glyph-name="P" unicode="P" horiz-adv-x="581" 
d="M389 709q43 0 77.5 -13t58.5 -35.5t37 -53.5t13 -67q0 -53 -20.5 -97t-55.5 -75.5t-83 -49t-103 -17.5h-167l-64 -301h-64l151 709h220zM221 652l-63 -293h155q42 0 78.5 13t62.5 36.5t41 56t15 72.5q0 52 -34.5 83.5t-100.5 31.5h-154z" />
    <glyph glyph-name="Q" unicode="Q" horiz-adv-x="748" 
d="M38 293q0 106 33.5 186.5t87.5 134.5t121 81t133 27q63 0 116.5 -20.5t93.5 -59.5t62.5 -96t22.5 -130q0 -115 -38.5 -198.5t-98.5 -137.5l87 -122l-48 -32l-86 119q-45 -29 -93.5 -43.5t-97.5 -14.5q-63 0 -116.5 20.5t-93.5 59.5t-62.5 96t-22.5 130zM420 287l115 -159
q49 48 78.5 120t29.5 163q0 63 -18.5 110.5t-50 79t-74 47.5t-91.5 16q-60 0 -115 -26t-97.5 -73.5t-68 -115t-25.5 -151.5q0 -63 18.5 -110.5t50 -79t74 -47.5t91.5 -16q39 0 78.5 12.5t74.5 35.5l-117 161z" />
    <glyph glyph-name="R" unicode="R" horiz-adv-x="601" 
d="M312 365q42 0 78 12t62.5 34.5t41 54t14.5 71.5q0 52 -34 83.5t-100 31.5h-153l-61 -287h152zM303 308h-155l-66 -308h-64l151 709h219q43 0 77.5 -13t58.5 -35.5t36.5 -53.5t12.5 -67q0 -46 -15.5 -84.5t-43 -67.5t-65 -47.5t-82.5 -25.5l120 -315h-68z" />
    <glyph glyph-name="S" unicode="S" horiz-adv-x="559" 
d="M250 44q36 0 67 10t53 28.5t34.5 44t12.5 56.5q0 39 -21 69.5t-72 53.5l-103 47q-56 25 -88 66t-32 103q0 45 18.5 81.5t49.5 63t71.5 41t84.5 14.5q59 0 101 -18t68 -46.5t38.5 -63.5t13.5 -70l-61 -12q0 26 -8 53t-27.5 49.5t-51 37t-78.5 14.5q-30 0 -57.5 -10
t-49.5 -27.5t-35 -42.5t-13 -55q0 -43 21 -71.5t62 -46.5l102 -47q133 -60 133 -175q0 -44 -17.5 -81.5t-49 -64.5t-74 -42.5t-93.5 -15.5q-62 0 -108.5 19.5t-76.5 53t-43 79t-7 96.5v2q0 2 1 3l63 11q-1 -3 -1 -7q-5 -39 2.5 -75.5t29 -64t56.5 -44t85 -16.5z" />
    <glyph glyph-name="T" unicode="T" horiz-adv-x="555" 
d="M373 651l-138 -651h-64l139 651h-242l12 58h544l-13 -58h-238z" />
    <glyph glyph-name="U" unicode="U" horiz-adv-x="646" 
d="M638 709l-106 -499q-23 -109 -89.5 -166t-166.5 -57q-105 0 -163 55t-58 152q0 17 1.5 36t6.5 39l94 440h62l-93 -446q-3 -17 -5 -32.5t-2 -30.5q0 -68 39 -111t122 -43q77 0 125 45t65 127l104 491h64z" />
    <glyph glyph-name="V" unicode="V" horiz-adv-x="601" 
d="M238 77l354 632h69l-404 -709h-67l-103 709h63z" />
    <glyph glyph-name="W" unicode="W" horiz-adv-x="951" 
d="M579 709l70 -617l290 617h66l-337 -709h-68l-71 622l-311 -622h-69l-56 709h63l45 -614l308 614h70z" />
    <glyph glyph-name="X" unicode="X" horiz-adv-x="618" 
d="M33 0h-79l315 356l-162 353h70l135 -303l269 303h79l-320 -357l161 -352h-70l-136 302z" />
    <glyph glyph-name="Y" unicode="Y" horiz-adv-x="584" 
d="M95 709h67l132 -341l257 341h75l-313 -404l-64 -305h-63l66 311z" />
    <glyph glyph-name="Z" unicode="Z" horiz-adv-x="621" 
d="M-27 0l14 64l573 587h-438l12 58h517l-14 -63l-574 -587h441l-12 -59h-519z" />
    <glyph glyph-name="bracketleft" unicode="[" horiz-adv-x="261" 
d="M-12 -141l195 919h167l-11 -50h-115l-174 -820h115l-10 -49h-167z" />
    <glyph glyph-name="backslash" unicode="\" horiz-adv-x="405" 
d="M71 715h56l199 -721h-55z" />
    <glyph glyph-name="bracketright" unicode="]" horiz-adv-x="263" 
d="M-94 -141l10 49h115l174 820h-115l10 50h167l-195 -919h-166z" />
    <glyph glyph-name="asciicircum" unicode="^" horiz-adv-x="532" 
d="M305 709l194 -354h-64l-156 292l-157 -292h-64l193 354h54z" />
    <glyph glyph-name="underscore" unicode="_" horiz-adv-x="538" 
d="M-54 0h512v-51h-512v51z" />
    <glyph glyph-name="grave" unicode="`" horiz-adv-x="171" 
d="M65 677h72l59 -140h-47z" />
    <glyph glyph-name="a" unicode="a" horiz-adv-x="555" 
d="M260 436q-40 0 -74 -19t-59 -52t-39.5 -76t-14.5 -91q0 -33 8.5 -62t26 -50t43 -33t59.5 -12q35 0 65.5 15.5t54 43t39.5 65.5t21 82q5 20 5 37q0 33 -8.5 60.5t-25.5 48t-42.5 32t-58.5 11.5zM502 477l-74 -345q-6 -31 -8 -57t-2 -42v-19.5t1 -13.5h-57q-1 6 -1.5 14
t-0.5 20q0 10 0.5 20.5t2.5 24.5q-12 -17 -28.5 -33t-37 -28.5t-45.5 -20.5t-53 -8q-45 0 -79.5 16.5t-58.5 44t-36 65t-12 79.5q0 62 19 116t52.5 93.5t78.5 62.5t96 23q40 0 68.5 -11.5t47.5 -28t29.5 -36t15.5 -35.5l21 99h61z" />
    <glyph glyph-name="b" unicode="b" horiz-adv-x="558" 
d="M-1 0l153 722h60l-66 -313q11 15 27.5 29t37.5 25.5t46 18.5t55 7q47 0 82 -16.5t58.5 -44t35 -64.5t11.5 -79q0 -64 -19 -118.5t-53 -94t-79.5 -62t-97.5 -22.5q-38 0 -66.5 11t-49 28.5t-33 39t-18.5 42.5l-24 -109h-60zM293 436q-42 0 -76.5 -20.5t-59 -54.5
t-37.5 -76.5t-13 -85.5q0 -67 36 -111.5t102 -45.5q39 0 74 17.5t61.5 49t42 74.5t15.5 95q0 69 -38 113.5t-107 44.5z" />
    <glyph glyph-name="c" unicode="c" horiz-adv-x="512" 
d="M408 322q-11 48 -46 81t-95 33q-36 0 -71 -16t-62.5 -46t-44 -73.5t-16.5 -97.5q0 -36 11 -66t31 -51.5t48 -33t63 -11.5q59 0 99 33t63 79l50 -24q-15 -30 -36 -56t-48.5 -45t-60.5 -30t-71 -11q-48 0 -87 16.5t-66.5 45t-42.5 68t-15 85.5q0 63 21.5 116t57.5 91.5
t83 59.5t98 21q45 0 78.5 -13t56.5 -34t37 -47.5t20 -53.5z" />
    <glyph glyph-name="d" unicode="d" horiz-adv-x="553" 
d="M260 436q-40 0 -74 -19.5t-59 -52.5t-39.5 -76t-14.5 -91q0 -33 9 -61.5t26.5 -49t42.5 -32.5t58 -12q42 0 76.5 21t59 55.5t37.5 77.5t13 88q0 33 -8.5 60.5t-25.5 48t-42.5 32t-58.5 11.5zM361 79q-11 -17 -27 -33t-36.5 -28.5t-45.5 -20.5t-53 -8q-45 0 -79.5 15.5
t-58 43.5t-36 65t-12.5 81q0 61 19 115t52.5 94t78.5 63t96 23q40 0 68 -11.5t47 -28t29.5 -36t15.5 -35.5l73 344h60l-125 -590q-6 -31 -8.5 -55.5t-2.5 -40.5q0 -14 0.5 -21t1.5 -15h-58q-1 6 -1.5 14t-0.5 20q0 10 0.5 20.5t2.5 24.5z" />
    <glyph glyph-name="e" unicode="e" horiz-adv-x="521" 
d="M75 226q-1 -8 -1.5 -15t-0.5 -15q0 -35 11.5 -64t31.5 -49t47 -31t59 -11q58 0 99 30t63 69l46 -31q-29 -52 -83 -87t-126 -35q-44 0 -82 14t-66 41t-44 66.5t-16 90.5q0 67 22 120.5t58 91.5t81.5 58.5t93.5 20.5t84.5 -15t61 -41t36.5 -61.5t12 -76.5q0 -20 -2.5 -38
t-6.5 -32h-378zM399 277q1 5 1.5 10.5t0.5 11.5q0 27 -8 52t-24.5 44t-42 30t-60.5 11q-34 0 -63.5 -13t-53 -34.5t-40 -50.5t-24.5 -61h314z" />
    <glyph glyph-name="f" unicode="f" horiz-adv-x="341" 
d="M320 675q-32 0 -58 -18t-36 -68l-24 -112h117l-11 -54h-117l-90 -423h-62l90 423h-93l11 54h94l25 121q8 40 24.5 65.5t37.5 40.5t44 20.5t46 5.5q21 0 37.5 -4.5t22.5 -8.5l-13 -51q-7 3 -19 6t-26 3z" />
    <glyph glyph-name="g" unicode="g" horiz-adv-x="546" 
d="M220 78q40 0 73 18t56 48t35.5 68t12.5 79q0 27 -8.5 53t-25.5 46t-43 32t-61 12q-36 0 -69 -15.5t-57.5 -43t-39 -66t-14.5 -83.5q0 -64 35 -106t106 -42zM163 -203q-47 0 -83.5 14t-62 37.5t-39.5 55.5t-14 68l58 13v-2q0 -28 9.5 -52t27.5 -42t44.5 -28.5t61.5 -10.5
q42 0 72 14t51 38t34 55.5t21 67.5l16 79q-19 -30 -57 -54t-93 -24q-45 0 -80.5 15t-60 41.5t-37.5 62.5t-13 78q0 56 19 104.5t51.5 84t76 56t93.5 20.5q36 0 63 -9t46.5 -24t32 -34t18.5 -38l20 94h61l-94 -451q-9 -40 -25 -81t-44 -74t-70.5 -53.5t-102.5 -20.5z" />
    <glyph glyph-name="h" unicode="h" horiz-adv-x="531" 
d="M325 0l61 293q2 9 3 18.5t1 18.5q0 46 -25.5 76t-82.5 30q-29 0 -53.5 -12t-44.5 -33t-34 -48.5t-21 -58.5l-60 -284h-61l153 722h61l-66 -308q22 31 60 53t88 22q37 0 65 -11t46.5 -30.5t28 -46t9.5 -57.5q0 -11 -1.5 -22t-3.5 -23l-62 -299h-61z" />
    <glyph glyph-name="i" unicode="i" horiz-adv-x="228" 
d="M131 670q0 23 16.5 39.5t38.5 16.5q20 0 32 -13t12 -33q0 -22 -16 -38t-38 -16q-20 0 -32.5 12.5t-12.5 31.5zM8 0l102 477h60l-101 -477h-61z" />
    <glyph glyph-name="j" unicode="j" horiz-adv-x="228" 
d="M131 670q0 23 16.5 39.5t38.5 16.5q20 0 32 -13t12 -33q0 -22 -16 -38t-38 -16q-20 0 -32.5 12.5t-12.5 31.5zM110 477h60l-118 -554q-14 -63 -49.5 -92t-86.5 -29q-23 0 -40 4.5t-26 11.5l11 49q8 -5 21.5 -8t28.5 -3q35 0 54.5 18.5t28.5 60.5z" />
    <glyph glyph-name="k" unicode="k" horiz-adv-x="502" 
d="M216 245l-116 -95l-32 -150h-60l153 722h61l-104 -486l293 241h89l-238 -194l149 -283h-69z" />
    <glyph glyph-name="l" unicode="l" horiz-adv-x="228" 
d="M8 0l153 722h61l-153 -722h-61z" />
    <glyph glyph-name="m" unicode="m" horiz-adv-x="811" 
d="M305 0l64 298q2 11 3 21t1 21q0 42 -23 69.5t-76 27.5q-52 0 -91 -41.5t-53 -107.5l-62 -288h-60l85 398q6 29 8 50t2 29h58q0 -6 -1 -23.5t-6 -40.5q22 31 58 53.5t84 22.5q54 0 87.5 -25t44.5 -70q31 51 75.5 73t89.5 22q63 0 101.5 -35t38.5 -100q0 -20 -5 -48
l-65 -306h-60l63 299q5 25 5 43q0 41 -23 68t-75 27q-26 0 -49.5 -11.5t-43 -31t-33 -47t-20.5 -58.5l-61 -289h-61z" />
    <glyph glyph-name="n" unicode="n" horiz-adv-x="531" 
d="M325 0l60 282q6 27 6 50q0 47 -26.5 75.5t-81.5 28.5q-29 0 -54 -12t-45 -33t-34 -48.5t-21 -58.5l-60 -284h-61l84 395q7 30 9 52.5t2 29.5h59q0 -8 -1.5 -28t-6.5 -40q22 34 62 57t90 23q69 0 108 -40t39 -105q0 -11 -1.5 -25.5t-4.5 -29.5l-62 -289h-60z" />
    <glyph glyph-name="o" unicode="o" horiz-adv-x="529" 
d="M471 277q0 -65 -21 -118.5t-56.5 -91.5t-82 -59t-96.5 -21q-46 0 -83.5 16t-63.5 44.5t-40.5 67.5t-14.5 85q0 66 21.5 119.5t57 91.5t82 58.5t96.5 20.5q47 0 84 -16t63 -44.5t40 -67.5t14 -85zM266 436q-35 0 -69 -15.5t-61.5 -45t-44.5 -73t-17 -99.5q0 -37 10.5 -67
t30 -51t45.5 -32.5t58 -11.5q34 0 68.5 15.5t62 45.5t44.5 73.5t17 99.5q0 74 -39.5 117.5t-104.5 43.5z" />
    <glyph glyph-name="p" unicode="p" horiz-adv-x="550" 
d="M292 435q-41 0 -75 -19.5t-58.5 -52.5t-38.5 -76t-14 -89q0 -70 35 -113t101 -43q37 0 71 17.5t60 49t41.5 75t15.5 95.5q0 69 -36 112.5t-102 43.5zM146 408q24 33 66.5 57t97.5 24q45 0 79 -15.5t57 -42.5t34.5 -64t11.5 -79q0 -64 -19 -118.5t-52 -95t-78 -63.5
t-97 -23q-36 0 -63.5 10.5t-48 27t-34 36.5t-19.5 39l-62 -291h-60l125 585q6 30 8 52t2 30h60q0 -8 -1.5 -28t-6.5 -41z" />
    <glyph glyph-name="q" unicode="q" horiz-adv-x="548" 
d="M360 -190h-60l54 254q-11 -13 -25 -26.5t-33 -24t-42 -17.5t-50 -7q-45 0 -81 17t-60.5 45.5t-38 67t-13.5 81.5q0 60 19 113t52 92t78 61.5t96 22.5q39 0 67 -11t48 -27.5t32 -35.5t18 -36l20 98h60zM260 435q-41 0 -75.5 -18.5t-59.5 -50.5t-39.5 -74t-14.5 -88
q0 -33 10 -62.5t28.5 -52t45.5 -35.5t61 -13q42 0 75.5 21.5t56.5 56t35 77.5t12 87q0 33 -8.5 60.5t-25.5 48t-42.5 32t-58.5 11.5z" />
    <glyph glyph-name="r" unicode="r" horiz-adv-x="355" 
d="M334 411q-10 3 -22.5 5.5t-27.5 2.5q-55 0 -99 -38.5t-61 -118.5l-56 -262h-60l84 395q6 30 8 52t2 30h59q0 -12 -1.5 -33t-5.5 -40q28 42 67 60.5t81 18.5q15 0 26.5 -2.5t18.5 -5.5l-13 -64v0z" />
    <glyph glyph-name="s" unicode="s" horiz-adv-x="428" 
d="M51 154q1 -49 30.5 -82t87.5 -33q45 0 74 24t29 62q0 26 -15.5 44t-43.5 31l-69 32q-39 17 -62 45t-23 70q0 28 11.5 54t33 46t52 31.5t67.5 11.5q43 0 73 -13.5t49.5 -34t29 -45t10.5 -47.5q-12 -4 -22 -6.5l-18 -4.5q-9 -3 -16 -4q-1 19 -7.5 37.5t-19.5 33.5t-34 24
t-50 9q-41 0 -70.5 -24t-29.5 -59q0 -24 12.5 -41.5t43.5 -31.5l69 -31q43 -20 66.5 -50.5t23.5 -69.5q0 -27 -11 -53t-32 -46.5t-52 -33t-71 -12.5q-42 0 -74 12.5t-53.5 34t-32.5 49t-11 57.5q0 10 2 16l55 13q-2 -8 -2 -15z" />
    <glyph glyph-name="t" unicode="t" horiz-adv-x="331" 
d="M53 99q0 18 8 53l57 270h-90l11 55h21q35 0 57 14t30 54l18 83h58l-33 -151h100l-11 -55h-100l-58 -272q-3 -16 -4.5 -25.5t-1.5 -17.5q0 -27 15 -43t48 -16q20 0 31 3l-11 -51q-5 -2 -13.5 -3.5t-23.5 -1.5q-52 0 -80 28t-28 76z" />
    <glyph glyph-name="u" unicode="u" horiz-adv-x="522" 
d="M326 71q-20 -33 -58.5 -57.5t-86.5 -24.5q-73 0 -111.5 41.5t-38.5 107.5q0 26 6 59l60 280h60l-59 -278q-6 -30 -6 -54q0 -45 24.5 -74.5t81.5 -29.5q28 0 52.5 12t44 33t33.5 50t21 62l59 279h61l-81 -381q-7 -31 -8 -54.5t-1 -35.5v-6h-58q0 13 0.5 29t4.5 31v11v0z
" />
    <glyph glyph-name="v" unicode="v" horiz-adv-x="447" 
d="M179 0h-62l-82 477h62l63 -406l230 406h69z" />
    <glyph glyph-name="w" unicode="w" horiz-adv-x="742" 
d="M426 477l49 -400l208 400h66l-255 -477h-64l-51 411l-226 -411h-62l-48 477h60l34 -397l218 397h71z" />
    <glyph glyph-name="x" unicode="x" horiz-adv-x="468" 
d="M17 0h-79l236 246l-125 231h67l100 -188l175 188h78l-225 -233l132 -244h-68l-105 199z" />
    <glyph glyph-name="y" unicode="y" horiz-adv-x="471" 
d="M-30 -190l178 265l-118 402h65l96 -343l220 343h71l-442 -667h-70z" />
    <glyph glyph-name="z" unicode="z" horiz-adv-x="471" 
d="M-27 0l11 54l374 368h-284l11 55h362l-10 -55l-375 -367h303l-11 -55h-381z" />
    <glyph glyph-name="braceleft" unicode="{" horiz-adv-x="289" 
d="M26 348q49 2 82.5 28t44.5 77l34 160q17 85 58.5 121.5t119.5 36.5h13l-11 -49h-9q-56 0 -82 -27t-37 -79l-37 -175q-11 -52 -43.5 -84t-87.5 -39q38 -7 59 -32t21 -63q0 -15 -3 -31l-35 -168q-2 -12 -3.5 -23t-1.5 -20q0 -34 18 -50.5t61 -16.5h9l-10 -48h-10
q-59 0 -90 26.5t-31 77.5q0 25 7 53l34 160q3 15 3 29q0 38 -24.5 56.5t-60.5 21.5z" />
    <glyph glyph-name="bar" unicode="|" horiz-adv-x="237" 
d="M-16 -141l195 919h54l-195 -919h-54z" />
    <glyph glyph-name="braceright" unicode="}" horiz-adv-x="286" 
d="M254 288q-47 -2 -81 -26.5t-45 -77.5l-35 -160q-17 -81 -60.5 -119.5t-120.5 -38.5h-9l10 49h9q54 0 81.5 29t38.5 80l37 175q10 51 43.5 82t87.5 39q-40 7 -61 31.5t-21 60.5q0 14 3 29l37 176q6 25 6 44q0 32 -17.5 46.5t-60.5 14.5h-11l10 49h13q56 0 87.5 -24.5
t31.5 -75.5q0 -25 -7 -53l-36 -164q-3 -15 -3 -29q0 -38 24 -57.5t62 -21.5z" />
    <glyph glyph-name="asciitilde" unicode="~" horiz-adv-x="621" 
d="M541 344q-50 -78 -133 -78q-44 0 -95 28l-47 24q-33 18 -64 18t-54.5 -14.5t-43.5 -41.5l-37 30q51 80 134 80q44 0 91 -26l46 -25q17 -9 35.5 -14.5t34.5 -5.5q32 0 55 14t41 41z" />
    <glyph glyph-name="Adieresis" unicode="&#xc4;" horiz-adv-x="626" 
d="M474 814q0 21 14 35t35 14q17 0 27 -12t10 -27q0 -21 -14 -34.5t-34 -13.5q-17 0 -27.5 11t-10.5 27zM247 814q0 21 14 35t35 14q17 0 27 -12t10 -27q0 -21 -14 -34.5t-34 -13.5q-17 0 -27.5 11t-10.5 27zM173 287h266l-60 353zM448 228h-309l-133 -228h-73l422 709h73
l122 -709h-64z" />
    <glyph glyph-name="Aring" unicode="&#xc5;" horiz-adv-x="626" 
d="M404 830q-28 0 -47 -20t-19 -47q0 -23 14.5 -38.5t38.5 -15.5q26 0 46.5 19t20.5 48q0 23 -14.5 38.5t-39.5 15.5zM173 287h266l-60 353zM448 228h-309l-133 -228h-73l404 679q-21 12 -33 32.5t-12 46.5q0 25 10 46.5t26 37t37 24t43 8.5q42 0 69 -27.5t27 -67.5
q0 -35 -20 -63t-51 -41l117 -675h-64z" />
    <glyph glyph-name="Ccedilla" unicode="&#xc7;" horiz-adv-x="715" 
d="M290 -11q-54 7 -100 30.5t-79.5 62.5t-53 93t-19.5 120q0 105 33.5 185t87.5 134t121.5 81t134.5 27q62 0 111 -17.5t84.5 -48t57 -71t29.5 -86.5l-59 -18q-6 39 -24.5 72.5t-47.5 58t-68.5 38.5t-88.5 14q-60 0 -115 -25.5t-97.5 -73t-68 -115t-25.5 -151.5
q0 -62 17.5 -109.5t49 -79.5t74.5 -48.5t93 -16.5q87 0 152.5 45.5t106.5 133.5l53 -26q-43 -94 -122 -150.5t-184 -60.5l-51 -43h9q38 -2 59 -21.5t21 -47.5q0 -38 -30.5 -61.5t-77.5 -23.5q-45 0 -75 21t-42 46l36 23q8 -17 27 -34t55 -17q26 0 42.5 12t16.5 34
q0 17 -14.5 28t-42.5 11q-13 0 -25 -4l-16 31z" />
    <glyph glyph-name="Eacute" unicode="&#xc9;" horiz-adv-x="566" 
d="M18 0l151 709h409l-12 -59h-346l-57 -265h313l-12 -60h-313l-57 -266h351l-12 -59h-415zM392 759h-64l128 119h87z" />
    <glyph glyph-name="Ntilde" unicode="&#xd1;" horiz-adv-x="713" 
d="M477 0l-263 624l-132 -624h-64l150 709h79l254 -609l130 609h63l-150 -709h-67zM613 872q-11 -58 -40 -83.5t-65 -25.5q-35 0 -62 24l-17 15q-11 10 -20.5 14.5t-22.5 4.5q-19 0 -32.5 -13.5t-18.5 -41.5h-47q8 56 38 82t66 26q20 0 36 -7.5t29 -18.5l16 -14
q11 -10 19.5 -14.5t21.5 -4.5q40 0 52 57h47v0z" />
    <glyph glyph-name="Odieresis" unicode="&#xd6;" horiz-adv-x="746" 
d="M554 814q0 21 14 35t34 14q17 0 27 -12t10 -27q0 -21 -13.5 -34.5t-33.5 -13.5q-17 0 -27.5 11t-10.5 27zM253 814q0 21 14 35t35 14q17 0 27 -12t10 -27q0 -21 -14 -34.5t-34 -13.5q-17 0 -27.5 11t-10.5 27zM38 293q0 106 33.5 186.5t87.5 134.5t121 81t133 27
q63 0 116.5 -20.5t93.5 -59.5t62.5 -96t22.5 -130q0 -106 -33.5 -186.5t-87.5 -134.5t-121 -81t-133 -27q-63 0 -116.5 20.5t-93.5 59.5t-62.5 96t-22.5 130zM643 411q0 63 -18.5 110.5t-50 79t-74 47.5t-91.5 16q-60 0 -115 -26t-97.5 -73.5t-68 -115t-25.5 -151.5
q0 -63 18.5 -110.5t50 -79t74 -47.5t91.5 -16q60 0 115 26t97.5 73.5t68 115t25.5 151.5z" />
    <glyph glyph-name="Udieresis" unicode="&#xdc;" horiz-adv-x="646" 
d="M465 814q0 21 13.5 35t34.5 14q17 0 27 -12t10 -27q0 -21 -13.5 -34.5t-33.5 -13.5q-17 0 -27.5 11t-10.5 27zM268 814q0 21 13.5 35t34.5 14q17 0 27 -12t10 -27q0 -21 -13.5 -34.5t-33.5 -13.5q-17 0 -27.5 11t-10.5 27zM638 709l-106 -499q-23 -109 -89.5 -166
t-166.5 -57q-105 0 -163 55t-58 152q0 17 1.5 36t6.5 39l94 440h62l-93 -446q-3 -17 -5 -32.5t-2 -30.5q0 -68 39 -111t122 -43q77 0 125 45t65 127l104 491h64z" />
    <glyph glyph-name="aacute" unicode="&#xe1;" horiz-adv-x="555" 
d="M260 436q-40 0 -74 -19t-59 -52t-39.5 -76t-14.5 -91q0 -33 8.5 -62t26 -50t43 -33t59.5 -12q35 0 65.5 15.5t54 43t39.5 65.5t21 82q5 20 5 37q0 33 -8.5 60.5t-25.5 48t-42.5 32t-58.5 11.5zM502 477l-74 -345q-6 -31 -8 -57t-2 -42v-19.5t1 -13.5h-57q-1 6 -1.5 14
t-0.5 20q0 10 0.5 20.5t2.5 24.5q-12 -17 -28.5 -33t-37 -28.5t-45.5 -20.5t-53 -8q-45 0 -79.5 16.5t-58.5 44t-36 65t-12 79.5q0 62 19 116t52.5 93.5t78.5 62.5t96 23q40 0 68.5 -11.5t47.5 -28t29.5 -36t15.5 -35.5l21 99h61zM308 537h-55l124 140h86z" />
    <glyph glyph-name="agrave" unicode="&#xe0;" horiz-adv-x="555" 
d="M260 436q-40 0 -74 -19t-59 -52t-39.5 -76t-14.5 -91q0 -33 8.5 -62t26 -50t43 -33t59.5 -12q35 0 65.5 15.5t54 43t39.5 65.5t21 82q5 20 5 37q0 33 -8.5 60.5t-25.5 48t-42.5 32t-58.5 11.5zM502 477l-74 -345q-6 -31 -8 -57t-2 -42v-19.5t1 -13.5h-57q-1 6 -1.5 14
t-0.5 20q0 10 0.5 20.5t2.5 24.5q-12 -17 -28.5 -33t-37 -28.5t-45.5 -20.5t-53 -8q-45 0 -79.5 16.5t-58.5 44t-36 65t-12 79.5q0 62 19 116t52.5 93.5t78.5 62.5t96 23q40 0 68.5 -11.5t47.5 -28t29.5 -36t15.5 -35.5l21 99h61zM182 677h72l59 -140h-47z" />
    <glyph glyph-name="acircumflex" unicode="&#xe2;" horiz-adv-x="555" 
d="M260 436q-40 0 -74 -19t-59 -52t-39.5 -76t-14.5 -91q0 -33 8.5 -62t26 -50t43 -33t59.5 -12q35 0 65.5 15.5t54 43t39.5 65.5t21 82q5 20 5 37q0 33 -8.5 60.5t-25.5 48t-42.5 32t-58.5 11.5zM502 477l-74 -345q-6 -31 -8 -57t-2 -42v-19.5t1 -13.5h-57q-1 6 -1.5 14
t-0.5 20q0 10 0.5 20.5t2.5 24.5q-12 -17 -28.5 -33t-37 -28.5t-45.5 -20.5t-53 -8q-45 0 -79.5 16.5t-58.5 44t-36 65t-12 79.5q0 62 19 116t52.5 93.5t78.5 62.5t96 23q40 0 68.5 -11.5t47.5 -28t29.5 -36t15.5 -35.5l21 99h61zM138 538l137 137h78l77 -137h-51l-71 99
l-111 -99h-59z" />
    <glyph glyph-name="adieresis" unicode="&#xe4;" horiz-adv-x="555" 
d="M260 436q-40 0 -74 -19t-59 -52t-39.5 -76t-14.5 -91q0 -33 8.5 -62t26 -50t43 -33t59.5 -12q35 0 65.5 15.5t54 43t39.5 65.5t21 82q5 20 5 37q0 33 -8.5 60.5t-25.5 48t-42.5 32t-58.5 11.5zM502 477l-74 -345q-6 -31 -8 -57t-2 -42v-19.5t1 -13.5h-57q-1 6 -1.5 14
t-0.5 20q0 10 0.5 20.5t2.5 24.5q-12 -17 -28.5 -33t-37 -28.5t-45.5 -20.5t-53 -8q-45 0 -79.5 16.5t-58.5 44t-36 65t-12 79.5q0 62 19 116t52.5 93.5t78.5 62.5t96 23q40 0 68.5 -11.5t47.5 -28t29.5 -36t15.5 -35.5l21 99h61zM351 605q0 20 14 35t34 15q17 0 27.5 -12.5
t10.5 -27.5q0 -20 -14.5 -33.5t-33.5 -13.5q-17 0 -27.5 11t-10.5 26zM178 605q0 20 14 35t34 15q17 0 27 -12.5t10 -27.5q0 -20 -14 -33.5t-34 -13.5q-17 0 -27 11t-10 26z" />
    <glyph glyph-name="atilde" unicode="&#xe3;" horiz-adv-x="555" 
d="M260 436q-40 0 -74 -19t-59 -52t-39.5 -76t-14.5 -91q0 -33 8.5 -62t26 -50t43 -33t59.5 -12q35 0 65.5 15.5t54 43t39.5 65.5t21 82q5 20 5 37q0 33 -8.5 60.5t-25.5 48t-42.5 32t-58.5 11.5zM502 477l-74 -345q-6 -31 -8 -57t-2 -42v-19.5t1 -13.5h-57q-1 6 -1.5 14
t-0.5 20q0 10 0.5 20.5t2.5 24.5q-12 -17 -28.5 -33t-37 -28.5t-45.5 -20.5t-53 -8q-45 0 -79.5 16.5t-58.5 44t-36 65t-12 79.5q0 62 19 116t52.5 93.5t78.5 62.5t96 23q40 0 68.5 -11.5t47.5 -28t29.5 -36t15.5 -35.5l21 99h61zM137 553q8 57 37.5 82.5t66.5 25.5
q21 0 36.5 -7t27.5 -18l16 -15q11 -8 20 -13t21 -5q41 0 52 56h48q-11 -57 -39.5 -82.5t-64.5 -25.5q-19 0 -34 6.5t-27 17.5l-17 15q-11 10 -20.5 14.5t-23.5 4.5q-40 0 -51 -56h-48z" />
    <glyph glyph-name="aring" unicode="&#xe5;" horiz-adv-x="555" 
d="M260 436q-40 0 -74 -19t-59 -52t-39.5 -76t-14.5 -91q0 -33 8.5 -62t26 -50t43 -33t59.5 -12q35 0 65.5 15.5t54 43t39.5 65.5t21 82q5 20 5 37q0 33 -8.5 60.5t-25.5 48t-42.5 32t-58.5 11.5zM502 477l-74 -345q-6 -31 -8 -57t-2 -42v-19.5t1 -13.5h-57q-1 6 -1.5 14
t-0.5 20q0 10 0.5 20.5t2.5 24.5q-12 -17 -28.5 -33t-37 -28.5t-45.5 -20.5t-53 -8q-45 0 -79.5 16.5t-58.5 44t-36 65t-12 79.5q0 62 19 116t52.5 93.5t78.5 62.5t96 23q40 0 68.5 -11.5t47.5 -28t29.5 -36t15.5 -35.5l21 99h61zM314 739q42 0 68.5 -27t26.5 -67
q0 -23 -9.5 -44t-25 -37t-36.5 -25t-44 -9q-42 0 -69 27t-27 66q0 25 10 46.5t26 37t37 24t43 8.5zM242 628q0 -23 15 -39t40 -16q26 0 46.5 20t20.5 49q0 23 -14.5 38.5t-40.5 15.5q-28 0 -47.5 -20t-19.5 -48z" />
    <glyph glyph-name="ccedilla" unicode="&#xe7;" horiz-adv-x="512" 
d="M167 -7q-36 8 -65 27t-49 46.5t-31 62t-11 73.5q0 63 21.5 116t57.5 91.5t83 59.5t98 21q45 0 78.5 -13t56.5 -34t37 -47.5t20 -53.5l-55 -20q-11 48 -46 81t-95 33q-36 0 -71 -16t-62.5 -46t-44 -73.5t-16.5 -97.5q0 -36 11 -66t31 -51.5t48 -33t63 -11.5q59 0 99 33
t63 79l50 -24q-29 -60 -82.5 -100t-128.5 -42h-10l-52 -43h10q37 -2 58 -21.5t21 -47.5q0 -38 -30 -61.5t-78 -23.5q-45 0 -75 21t-42 46l37 23q8 -17 26.5 -34t54.5 -17q26 0 42.5 12t16.5 34q0 17 -14.5 28t-41.5 11q-14 0 -26 -4l-16 31z" />
    <glyph glyph-name="eacute" unicode="&#xe9;" horiz-adv-x="521" 
d="M75 226q-1 -8 -1.5 -15t-0.5 -15q0 -35 11.5 -64t31.5 -49t47 -31t59 -11q58 0 99 30t63 69l46 -31q-29 -52 -83 -87t-126 -35q-44 0 -82 14t-66 41t-44 66.5t-16 90.5q0 67 22 120.5t58 91.5t81.5 58.5t93.5 20.5t84.5 -15t61 -41t36.5 -61.5t12 -76.5q0 -20 -2.5 -38
t-6.5 -32h-378zM399 277q1 5 1.5 10.5t0.5 11.5q0 27 -8 52t-24.5 44t-42 30t-60.5 11q-34 0 -63.5 -13t-53 -34.5t-40 -50.5t-24.5 -61h314zM307 537h-55l124 140h86z" />
    <glyph glyph-name="egrave" unicode="&#xe8;" horiz-adv-x="521" 
d="M75 226q-1 -8 -1.5 -15t-0.5 -15q0 -35 11.5 -64t31.5 -49t47 -31t59 -11q58 0 99 30t63 69l46 -31q-29 -52 -83 -87t-126 -35q-44 0 -82 14t-66 41t-44 66.5t-16 90.5q0 67 22 120.5t58 91.5t81.5 58.5t93.5 20.5t84.5 -15t61 -41t36.5 -61.5t12 -76.5q0 -20 -2.5 -38
t-6.5 -32h-378zM399 277q1 5 1.5 10.5t0.5 11.5q0 27 -8 52t-24.5 44t-42 30t-60.5 11q-34 0 -63.5 -13t-53 -34.5t-40 -50.5t-24.5 -61h314zM203 677h72l59 -140h-47z" />
    <glyph glyph-name="ecircumflex" unicode="&#xea;" horiz-adv-x="521" 
d="M75 226q-1 -8 -1.5 -15t-0.5 -15q0 -35 11.5 -64t31.5 -49t47 -31t59 -11q58 0 99 30t63 69l46 -31q-29 -52 -83 -87t-126 -35q-44 0 -82 14t-66 41t-44 66.5t-16 90.5q0 67 22 120.5t58 91.5t81.5 58.5t93.5 20.5t84.5 -15t61 -41t36.5 -61.5t12 -76.5q0 -20 -2.5 -38
t-6.5 -32h-378zM399 277q1 5 1.5 10.5t0.5 11.5q0 27 -8 52t-24.5 44t-42 30t-60.5 11q-34 0 -63.5 -13t-53 -34.5t-40 -50.5t-24.5 -61h314zM152 538l137 137h78l77 -137h-51l-71 99l-111 -99h-59z" />
    <glyph glyph-name="edieresis" unicode="&#xeb;" horiz-adv-x="521" 
d="M75 226q-1 -8 -1.5 -15t-0.5 -15q0 -35 11.5 -64t31.5 -49t47 -31t59 -11q58 0 99 30t63 69l46 -31q-29 -52 -83 -87t-126 -35q-44 0 -82 14t-66 41t-44 66.5t-16 90.5q0 67 22 120.5t58 91.5t81.5 58.5t93.5 20.5t84.5 -15t61 -41t36.5 -61.5t12 -76.5q0 -20 -2.5 -38
t-6.5 -32h-378zM399 277q1 5 1.5 10.5t0.5 11.5q0 27 -8 52t-24.5 44t-42 30t-60.5 11q-34 0 -63.5 -13t-53 -34.5t-40 -50.5t-24.5 -61h314zM350 605q0 20 14 35t34 15q17 0 27.5 -12.5t10.5 -27.5q0 -20 -14.5 -33.5t-33.5 -13.5q-17 0 -27.5 11t-10.5 26zM177 605
q0 20 14 35t34 15q17 0 27 -12.5t10 -27.5q0 -20 -14 -33.5t-34 -13.5q-17 0 -27 11t-10 26z" />
    <glyph glyph-name="iacute" unicode="&#xed;" horiz-adv-x="228" 
d="M8 0l102 477h60l-101 -477h-61zM176 537h-55l124 140h86z" />
    <glyph glyph-name="igrave" unicode="&#xec;" horiz-adv-x="228" 
d="M8 0l102 477h60l-101 -477h-61zM45 677h72l59 -140h-47z" />
    <glyph glyph-name="icircumflex" unicode="&#xee;" horiz-adv-x="228" 
d="M8 0l102 477h60l-101 -477h-61zM4 538l137 137h78l77 -137h-51l-71 99l-111 -99h-59z" />
    <glyph glyph-name="idieresis" unicode="&#xef;" horiz-adv-x="228" 
d="M187 606q0 19 12.5 33t32.5 14q17 0 26.5 -11.5t9.5 -25.5q0 -20 -13 -33t-32 -13q-17 0 -26.5 11t-9.5 25zM61 606q0 19 13 33t33 14q16 0 26 -11.5t10 -25.5q0 -20 -13.5 -33t-32.5 -13q-17 0 -26.5 11t-9.5 25zM8 0l102 477h60l-101 -477h-61z" />
    <glyph glyph-name="ntilde" unicode="&#xf1;" horiz-adv-x="531" 
d="M325 0l60 282q6 27 6 50q0 47 -26.5 75.5t-81.5 28.5q-29 0 -54 -12t-45 -33t-34 -48.5t-21 -58.5l-60 -284h-61l84 395q7 30 9 52.5t2 29.5h59q0 -8 -1.5 -28t-6.5 -40q22 34 62 57t90 23q69 0 108 -40t39 -105q0 -11 -1.5 -25.5t-4.5 -29.5l-62 -289h-60zM158 553
q8 57 37.5 82.5t66.5 25.5q21 0 36.5 -7t27.5 -18l16 -15q11 -8 20 -13t21 -5q41 0 52 56h48q-11 -57 -39.5 -82.5t-64.5 -25.5q-19 0 -34 6.5t-27 17.5l-17 15q-11 10 -20.5 14.5t-23.5 4.5q-40 0 -51 -56h-48z" />
    <glyph glyph-name="oacute" unicode="&#xf3;" horiz-adv-x="529" 
d="M471 277q0 -65 -21 -118.5t-56.5 -91.5t-82 -59t-96.5 -21q-46 0 -83.5 16t-63.5 44.5t-40.5 67.5t-14.5 85q0 66 21.5 119.5t57 91.5t82 58.5t96.5 20.5q47 0 84 -16t63 -44.5t40 -67.5t14 -85zM266 436q-35 0 -69 -15.5t-61.5 -45t-44.5 -73t-17 -99.5q0 -37 10.5 -67
t30 -51t45.5 -32.5t58 -11.5q34 0 68.5 15.5t62 45.5t44.5 73.5t17 99.5q0 74 -39.5 117.5t-104.5 43.5zM316 537h-55l124 140h86z" />
    <glyph glyph-name="ograve" unicode="&#xf2;" horiz-adv-x="529" 
d="M471 277q0 -65 -21 -118.5t-56.5 -91.5t-82 -59t-96.5 -21q-46 0 -83.5 16t-63.5 44.5t-40.5 67.5t-14.5 85q0 66 21.5 119.5t57 91.5t82 58.5t96.5 20.5q47 0 84 -16t63 -44.5t40 -67.5t14 -85zM266 436q-35 0 -69 -15.5t-61.5 -45t-44.5 -73t-17 -99.5q0 -37 10.5 -67
t30 -51t45.5 -32.5t58 -11.5q34 0 68.5 15.5t62 45.5t44.5 73.5t17 99.5q0 74 -39.5 117.5t-104.5 43.5zM190 677h72l59 -140h-47z" />
    <glyph glyph-name="ocircumflex" unicode="&#xf4;" horiz-adv-x="529" 
d="M471 277q0 -65 -21 -118.5t-56.5 -91.5t-82 -59t-96.5 -21q-46 0 -83.5 16t-63.5 44.5t-40.5 67.5t-14.5 85q0 66 21.5 119.5t57 91.5t82 58.5t96.5 20.5q47 0 84 -16t63 -44.5t40 -67.5t14 -85zM266 436q-35 0 -69 -15.5t-61.5 -45t-44.5 -73t-17 -99.5q0 -37 10.5 -67
t30 -51t45.5 -32.5t58 -11.5q34 0 68.5 15.5t62 45.5t44.5 73.5t17 99.5q0 74 -39.5 117.5t-104.5 43.5zM151 538l137 137h78l77 -137h-51l-71 99l-111 -99h-59z" />
    <glyph glyph-name="odieresis" unicode="&#xf6;" horiz-adv-x="529" 
d="M471 277q0 -65 -21 -118.5t-56.5 -91.5t-82 -59t-96.5 -21q-46 0 -83.5 16t-63.5 44.5t-40.5 67.5t-14.5 85q0 66 21.5 119.5t57 91.5t82 58.5t96.5 20.5q47 0 84 -16t63 -44.5t40 -67.5t14 -85zM266 436q-35 0 -69 -15.5t-61.5 -45t-44.5 -73t-17 -99.5q0 -37 10.5 -67
t30 -51t45.5 -32.5t58 -11.5q34 0 68.5 15.5t62 45.5t44.5 73.5t17 99.5q0 74 -39.5 117.5t-104.5 43.5zM353 605q0 20 14 35t34 15q17 0 27.5 -12.5t10.5 -27.5q0 -20 -14.5 -33.5t-33.5 -13.5q-17 0 -27.5 11t-10.5 26zM180 605q0 20 14 35t34 15q17 0 27 -12.5t10 -27.5
q0 -20 -14 -33.5t-34 -13.5q-17 0 -27 11t-10 26z" />
    <glyph glyph-name="otilde" unicode="&#xf5;" horiz-adv-x="529" 
d="M471 277q0 -65 -21 -118.5t-56.5 -91.5t-82 -59t-96.5 -21q-46 0 -83.5 16t-63.5 44.5t-40.5 67.5t-14.5 85q0 66 21.5 119.5t57 91.5t82 58.5t96.5 20.5q47 0 84 -16t63 -44.5t40 -67.5t14 -85zM266 436q-35 0 -69 -15.5t-61.5 -45t-44.5 -73t-17 -99.5q0 -37 10.5 -67
t30 -51t45.5 -32.5t58 -11.5q34 0 68.5 15.5t62 45.5t44.5 73.5t17 99.5q0 74 -39.5 117.5t-104.5 43.5zM137 553q8 57 37.5 82.5t66.5 25.5q21 0 36.5 -7t27.5 -18l16 -15q11 -8 20 -13t21 -5q41 0 52 56h48q-11 -57 -39.5 -82.5t-64.5 -25.5q-19 0 -34 6.5t-27 17.5
l-17 15q-11 10 -20.5 14.5t-23.5 4.5q-40 0 -51 -56h-48z" />
    <glyph glyph-name="uacute" unicode="&#xfa;" horiz-adv-x="522" 
d="M326 71q-20 -33 -58.5 -57.5t-86.5 -24.5q-73 0 -111.5 41.5t-38.5 107.5q0 26 6 59l60 280h60l-59 -278q-6 -30 -6 -54q0 -45 24.5 -74.5t81.5 -29.5q28 0 52.5 12t44 33t33.5 50t21 62l59 279h61l-81 -381q-7 -31 -8 -54.5t-1 -35.5v-6h-58q0 13 0.5 29t4.5 31v11v0z
M302 537h-55l124 140h86z" />
    <glyph glyph-name="ugrave" unicode="&#xf9;" horiz-adv-x="522" 
d="M326 71q-20 -33 -58.5 -57.5t-86.5 -24.5q-73 0 -111.5 41.5t-38.5 107.5q0 26 6 59l60 280h60l-59 -278q-6 -30 -6 -54q0 -45 24.5 -74.5t81.5 -29.5q28 0 52.5 12t44 33t33.5 50t21 62l59 279h61l-81 -381q-7 -31 -8 -54.5t-1 -35.5v-6h-58q0 13 0.5 29t4.5 31v11v0z
M186 677h72l59 -140h-47z" />
    <glyph glyph-name="ucircumflex" unicode="&#xfb;" horiz-adv-x="522" 
d="M326 71q-20 -33 -58.5 -57.5t-86.5 -24.5q-73 0 -111.5 41.5t-38.5 107.5q0 26 6 59l60 280h60l-59 -278q-6 -30 -6 -54q0 -45 24.5 -74.5t81.5 -29.5q28 0 52.5 12t44 33t33.5 50t21 62l59 279h61l-81 -381q-7 -31 -8 -54.5t-1 -35.5v-6h-58q0 13 0.5 29t4.5 31v11v0z
M144 538l137 137h78l77 -137h-51l-71 99l-111 -99h-59z" />
    <glyph glyph-name="udieresis" unicode="&#xfc;" horiz-adv-x="522" 
d="M326 71q-20 -33 -58.5 -57.5t-86.5 -24.5q-73 0 -111.5 41.5t-38.5 107.5q0 26 6 59l60 280h60l-59 -278q-6 -30 -6 -54q0 -45 24.5 -74.5t81.5 -29.5q28 0 52.5 12t44 33t33.5 50t21 62l59 279h61l-81 -381q-7 -31 -8 -54.5t-1 -35.5v-6h-58q0 13 0.5 29t4.5 31v11v0z
M353 605q0 20 14 35t34 15q17 0 27.5 -12.5t10.5 -27.5q0 -20 -14.5 -33.5t-33.5 -13.5q-17 0 -27.5 11t-10.5 26zM180 605q0 20 14 35t34 15q17 0 27 -12.5t10 -27.5q0 -20 -14 -33.5t-34 -13.5q-17 0 -27 11t-10 26z" />
    <glyph glyph-name="dagger" unicode="&#x2020;" horiz-adv-x="405" 
d="M298 709l-35 -161h136l-11 -52h-136l-71 -334h-54l72 334h-136l11 52h136l34 161h54z" />
    <glyph glyph-name="degree" unicode="&#xb0;" horiz-adv-x="394" 
d="M209 414q-30 0 -55.5 10.5t-43.5 29t-28.5 43t-10.5 53.5q0 33 13 64t35.5 54.5t53.5 37.5t67 14q30 0 55.5 -10.5t44 -29t29 -43.5t10.5 -54q0 -34 -13.5 -64.5t-36.5 -54t-54 -37t-66 -13.5zM214 463q23 0 43 9.5t35 25.5t24 37.5t9 45.5q0 38 -24.5 63.5t-65.5 25.5
q-23 0 -43 -9.5t-35 -25t-23.5 -37t-8.5 -45.5q0 -38 24 -64t65 -26z" />
    <glyph glyph-name="cent" unicode="&#xa2;" horiz-adv-x="569" 
d="M113 313q0 -58 27 -99t75 -57l83 394q-36 -3 -69.5 -21t-59 -48.5t-41 -73t-15.5 -95.5zM182 0l22 103q-70 20 -110.5 76.5t-40.5 133.5q0 63 21 115.5t56.5 91t82 60.5t97.5 24l22 105h53l-23 -109q34 -6 60.5 -20t45 -34t30 -43t17.5 -47l-55 -20q-9 42 -36 72t-74 39
l-84 -398q5 -1 12 -1q59 2 99.5 35t63.5 79l48 -23q-15 -31 -37 -57t-49.5 -45.5t-61 -30.5t-72.5 -11h-6.5t-6.5 1l-21 -96h-53z" />
    <glyph glyph-name="sterling" unicode="&#xa3;" horiz-adv-x="645" 
d="M357 56q69 0 111.5 41t56.5 106l57 -11q-19 -91 -75.5 -141.5t-145.5 -50.5h-357l13 67q39 18 70.5 42.5t54 54t34.5 63t13 68.5q0 6 -0.5 11.5t-1.5 10.5h-103l11 56h85q-5 32 -10.5 63t-5.5 63q0 48 17 89t47 70.5t70 46.5t87 17q49 0 86 -14t61.5 -39t37 -58t12.5 -70
q0 -8 -1 -17.5t-3 -14.5l-61 -9q3 18 3 34q0 28 -9 52.5t-26 42.5t-43 28t-59 10t-62 -12t-50 -33.5t-33 -52t-12 -67.5q0 -33 6 -64.5t11 -64.5h217l-11 -56h-200q1 -5 1 -10.5v-10.5q-2 -81 -44.5 -141t-110.5 -99h262z" />
    <glyph glyph-name="section" unicode="&#xa7;" horiz-adv-x="540" 
d="M231 385q-17 -2 -35 -11t-32 -22.5t-23 -32t-9 -40.5q0 -27 15 -49t43 -42l78 -60q16 3 34 12t32.5 23.5t24 33t9.5 39.5q0 27 -15 48.5t-42 41.5zM63 1q-2 -10 -3 -19.5t-1 -18.5q0 -52 30 -86t92 -34q25 0 49 8t43 23.5t30 37.5t11 50q0 30 -15 54t-41 44l-91 67
q-39 29 -67 61.5t-28 79.5q0 31 12 55.5t30.5 42.5t40.5 29.5t42 15.5q-35 26 -53 59.5t-18 69.5q0 42 16.5 76t44 57.5t63 36t74.5 12.5q42 0 74 -12.5t53.5 -34t32.5 -50.5t11 -62q0 -19 -3 -40l-60 -6q4 17 4 37q0 51 -29 84t-86 33q-25 0 -49 -8.5t-43 -24t-30.5 -38
t-11.5 -50.5q0 -30 14.5 -53.5t41.5 -42.5l91 -67q19 -14 36.5 -29t30.5 -31.5t20.5 -35.5t7.5 -42q0 -30 -11 -54t-28.5 -43t-40 -31.5t-45.5 -18.5q35 -28 54 -60.5t19 -68.5q0 -42 -17 -76t-45 -57t-64 -35.5t-75 -12.5q-44 0 -76.5 12.5t-55 34t-33.5 50.5t-11 63
q0 10 1.5 22.5t3.5 20.5z" />
    <glyph glyph-name="bullet" unicode="&#x2022;" horiz-adv-x="568" 
d="M63 282q0 43 16.5 81t44.5 66t65.5 44.5t80.5 16.5t80.5 -16.5t65.5 -44.5t44.5 -66t16.5 -81q0 -42 -16.5 -80t-44.5 -66t-65.5 -44.5t-80.5 -16.5t-80.5 16.5t-65.5 44.5t-44.5 66t-16.5 80z" />
    <glyph glyph-name="paragraph" unicode="&#xb6;" horiz-adv-x="596" 
d="M191 -198h-53l112 525h-17q-37 0 -67.5 13t-52.5 35.5t-34.5 53t-12.5 65.5q0 48 20 87.5t54.5 68t80.5 44t99 15.5h324l-11 -52h-95l-181 -855h-53l181 855h-112z" />
    <glyph glyph-name="germandbls" unicode="&#xdf;" horiz-adv-x="545" 
d="M330 331q0 -13 9 -22.5t22 -19.5l32 -25q30 -23 48.5 -54.5t18.5 -69.5q0 -26 -10.5 -54t-31 -50.5t-51 -37t-71.5 -14.5q-35 0 -62 11t-45.5 29.5t-28 42t-9.5 49.5v12t2 12l57 9q-3 -11 -3 -21q0 -16 4.5 -32t15.5 -29.5t28.5 -22t44.5 -8.5q25 0 43.5 9.5t31 24
t18.5 31.5t6 32q0 29 -14 49t-36 37l-31 24q-22 17 -36.5 38.5t-14.5 47.5q0 35 19 58t48 37l43 23q32 16 55 43t23 71q0 21 -8 40.5t-23.5 34t-38.5 23.5t-52 9q-54 0 -98.5 -39.5t-61.5 -124.5l-107 -504h-61l108 512q22 105 83.5 157.5t140.5 52.5q43 0 76.5 -12.5
t56.5 -34t35 -50t12 -59.5q0 -35 -10.5 -61.5t-26.5 -47t-35.5 -34.5t-37.5 -23l-41 -21q-15 -8 -25.5 -18.5t-10.5 -29.5z" />
    <glyph glyph-name="registered" unicode="&#xae;" horiz-adv-x="828" 
d="M43 354q0 76 28.5 143t77.5 117t115 79t142 29t142 -29t115.5 -79t78 -117t28.5 -143t-28.5 -142.5t-78 -116.5t-115.5 -79t-142 -29t-142 29t-115 79t-77.5 116.5t-28.5 142.5zM94 354q0 -67 24.5 -125.5t66.5 -101.5t99 -68t122 -25t122 25t99 68t66 101.5t24 125.5
t-24 126t-66 102t-99 68t-122 25t-122 -25t-99 -68t-66.5 -102t-24.5 -126zM419 358q47 0 76.5 26t29.5 70q0 28 -18.5 44t-55.5 16h-66l-35 -156h69zM409 317h-68l-34 -159h-48l85 399h121q49 0 78.5 -29t29.5 -74q0 -54 -33.5 -89t-83.5 -44l65 -163h-51z" />
    <glyph glyph-name="copyright" unicode="&#xa9;" horiz-adv-x="828" 
d="M43 354q0 76 28.5 143t77.5 117t115 79t142 29t142 -29t115.5 -79t78 -117t28.5 -143t-28.5 -142.5t-78 -116.5t-115.5 -79t-142 -29t-142 29t-115 79t-77.5 116.5t-28.5 142.5zM94 354q0 -67 24.5 -125.5t66.5 -101.5t99 -68t122 -25t122 25t99 68t66 101.5t24 125.5
t-24 126t-66 102t-99 68t-122 25t-122 -25t-99 -68t-66.5 -102t-24.5 -126zM542 428q-9 40 -38 65.5t-76 25.5q-29 0 -57.5 -13t-50.5 -37.5t-35.5 -59.5t-13.5 -80q0 -60 34.5 -95t90.5 -35q25 0 44.5 7.5t35.5 19t27.5 26.5t19.5 30q2 -1 8.5 -3.5t13.5 -5.5t13.5 -6
t8.5 -4q-11 -20 -27.5 -39.5t-38 -35t-48.5 -25t-60 -9.5q-40 0 -72.5 13.5t-55 36.5t-35 55t-12.5 69q0 52 18 95.5t47.5 74.5t68 48.5t79.5 17.5q37 0 65 -10.5t47.5 -27t31 -38t16.5 -43.5z" />
    <glyph glyph-name="trademark" unicode="&#x2122;" horiz-adv-x="822" 
d="M243 665l-68 -319h-49l68 319h-120l9 44h289l-9 -44h-120zM687 346l58 273l-182 -273h-41l-66 272l-58 -272h-49l77 363h58l71 -292l190 292h67l-77 -363h-48z" />
    <glyph glyph-name="acute" unicode="&#xb4;" horiz-adv-x="250" 
d="M120 537h-55l124 140h86z" />
    <glyph glyph-name="dieresis" unicode="&#xa8;" horiz-adv-x="299" 
d="M238 605q0 20 14 35t34 15q17 0 27.5 -12.5t10.5 -27.5q0 -20 -14.5 -33.5t-33.5 -13.5q-17 0 -27.5 11t-10.5 26zM65 605q0 20 14 35t34 15q17 0 27 -12.5t10 -27.5q0 -20 -14 -33.5t-34 -13.5q-17 0 -27 11t-10 26z" />
    <glyph glyph-name="notequal" unicode="&#x2260;" horiz-adv-x="608" 
d="M77 449h287l80 108h62l-80 -108h97v-49h-134l-105 -144h239v-50h-277l-81 -110h-62l80 110h-106v50h144l106 144h-250v49z" />
    <glyph glyph-name="AE" unicode="&#xc6;" horiz-adv-x="986" 
d="M495 267l82 386l-335 -386h253zM865 59l-12 -59h-415l45 210h-290l-180 -210h-80l619 709h446l-12 -59h-346l-57 -265h313l-12 -60h-313l-57 -266h351z" />
    <glyph glyph-name="Oslash" unicode="&#xd8;" horiz-adv-x="746" 
d="M103 298q0 -88 36 -147l440 445q-32 34 -75.5 51t-94.5 17q-60 0 -115 -26t-97.5 -73.5t-68 -115t-25.5 -151.5zM643 411q0 43 -8.5 78t-24.5 64l-439 -444q32 -32 74.5 -48t91.5 -16q60 0 115 26t97.5 73.5t68 115t25.5 151.5zM38 293q0 106 33.5 186.5t87.5 134.5
t121 81t133 27q63 0 117 -20.5t94 -61.5l85 87l38 -36l-90 -91q51 -74 51 -184q0 -106 -33.5 -186.5t-87.5 -134.5t-121 -81t-133 -27q-61 0 -114 19.5t-93 58.5l-80 -81l-37 36l83 83q-26 37 -40 84.5t-14 105.5z" />
    <glyph glyph-name="infinity" unicode="&#x221e;" horiz-adv-x="809" 
d="M57 329q0 34 12.5 64t34.5 52t51.5 35t64.5 13q55 0 102.5 -34.5t86.5 -88.5q39 54 85.5 88.5t101.5 34.5q34 0 64 -13t52 -35t34.5 -52t12.5 -64t-12.5 -63.5t-34.5 -51.5t-52 -35t-64 -13q-29 0 -55.5 10t-50 26.5t-44.5 39t-39 47.5q-39 -54 -85.5 -88.5t-101.5 -34.5
q-35 0 -64.5 13t-51.5 35t-34.5 51.5t-12.5 63.5zM222 442q-24 0 -44.5 -9t-35.5 -24.5t-23.5 -36t-8.5 -44.5q0 -23 8.5 -43t23.5 -35t35.5 -24t44.5 -9q46 0 83.5 32t70.5 80q-34 48 -70.5 80.5t-83.5 32.5zM594 217q24 0 44.5 9t35.5 24t23.5 35t8.5 43q0 24 -8.5 44.5
t-23.5 36t-35.5 24.5t-44.5 9q-47 0 -84 -32.5t-71 -79.5q35 -48 72 -80.5t83 -32.5z" />
    <glyph glyph-name="plusminus" unicode="&#xb1;" horiz-adv-x="591" 
d="M317 218h-52v146h-188v49h188v146h52v-146h189v-49h-189v-146zM77 155h429v-50h-429v50z" />
    <glyph glyph-name="lessequal" unicode="&#x2264;" horiz-adv-x="566" 
d="M77 414l404 147v-55l-336 -119l336 -118v-55l-404 146v54zM77 155h404v-50h-404v50z" />
    <glyph glyph-name="greaterequal" unicode="&#x2265;" horiz-adv-x="566" 
d="M480 360l-404 -146v55l336 118l-336 119v55l404 -147v-54zM480 105h-404v50h404v-50z" />
    <glyph glyph-name="yen" unicode="&#xa5;" horiz-adv-x="603" 
d="M81 370h158l-132 339h69l125 -336l253 336h73l-264 -339h157l-10 -49h-190l-19 -90h192l-11 -49h-191l-39 -182h-62l39 182h-187l11 49h186l20 90h-189z" />
    <glyph glyph-name="mu" unicode="&#xb5;" horiz-adv-x="554" 
d="M68 477h61v-291q0 -28 7 -54t22.5 -46.5t40 -32.5t59.5 -12q32 0 57 11t42.5 30.5t26.5 46t9 56.5v292h60v-386q0 -29 2 -53.5t4 -37.5h-58q-1 8 -3 28t-1 46q-17 -35 -55.5 -61t-94.5 -26q-40 0 -70.5 14t-47.5 39v-230h-61v667z" />
    <glyph glyph-name="partialdiff" unicode="&#x2202;" horiz-adv-x="646" 
d="M261 667q-28 0 -65.5 -7t-74.5 -25l-20 49q40 21 85 29.5t84 8.5q66 0 122.5 -24.5t97.5 -72t64 -118t23 -162.5q0 -76 -16.5 -141.5t-49.5 -113.5t-83.5 -75.5t-118.5 -27.5q-47 0 -90 15.5t-75.5 45.5t-51.5 73.5t-19 98.5q0 52 19 94.5t51 72.5t75.5 46.5t93.5 16.5
q67 0 120 -24.5t82 -66.5q-2 64 -16.5 120t-44.5 98t-77.5 66t-114.5 24zM320 396q-43 0 -77.5 -14t-58.5 -38t-36.5 -56.5t-12.5 -70.5q0 -40 14 -72t38.5 -54.5t56.5 -35t68 -12.5q53 0 90 22t60.5 56t35 74.5t13.5 77.5q1 5 1 15q-30 54 -81 81t-111 27z" />
    <glyph glyph-name="summation" unicode="&#x2211;" horiz-adv-x="562" 
d="M43 56l295 301l-295 296v56h486v-58h-402l294 -294l-300 -299h408v-58h-486v56z" />
    <glyph glyph-name="product" unicode="&#x220f;" horiz-adv-x="686" 
d="M534 0v653h-382v-653h-63v709h506v-709h-61z" />
    <glyph glyph-name="pi" unicode="&#x3c0;" horiz-adv-x="630" 
d="M467 107q0 -30 17 -45.5t44 -15.5q9 0 19.5 1.5t19.5 4.5v-48q-11 -4 -25 -7t-32 -3q-53 0 -78.5 31.5t-25.5 75.5v323h-203v-424h-60v424h-95v53h514v-53h-95v-317z" />
    <glyph glyph-name="integral" unicode="&#x222b;" horiz-adv-x="304" 
d="M105 557q0 72 38.5 112t105.5 40h28v-55h-24q-40 0 -64 -25.5t-24 -75.5v-600q0 -72 -37.5 -112.5t-103.5 -40.5h-32v55h25q39 0 63.5 26.5t24.5 76.5v599z" />
    <glyph glyph-name="ordfeminine" unicode="&#xaa;" horiz-adv-x="439" 
d="M245 675q-27 0 -50 -13t-40 -34.5t-26.5 -50.5t-9.5 -62q0 -46 24 -75.5t70 -29.5q28 0 51.5 14t40.5 36.5t26 52t9 60.5q0 45 -24 73.5t-71 28.5zM373 711h49l-58 -276q-2 -11 -4 -25.5t-3 -28.5v-7h-47q-1 2 -1 7q1 7 2 18t4 28q-14 -22 -42.5 -41.5t-69.5 -19.5
q-33 0 -58 11.5t-42 31.5t-26 47t-9 58q0 43 13.5 80.5t37.5 65t56 43.5t69 16q29 0 49.5 -8t34 -19t21 -24.5t10.5 -23.5z" />
    <glyph glyph-name="ordmasculine" unicode="&#xba;" horiz-adv-x="419" 
d="M398 568q0 -45 -15 -82t-40.5 -64t-59 -42t-69.5 -15q-34 0 -61.5 11t-47 31.5t-30 48t-10.5 60.5q0 46 15 83.5t40.5 64.5t59 41.5t69.5 14.5q34 0 61.5 -11.5t47 -31.5t30 -48t10.5 -61zM246 675q-24 0 -47.5 -10.5t-42 -31t-30 -50t-11.5 -66.5q0 -47 26 -77.5
t74 -30.5q24 0 48 10.5t42.5 30.5t30 49.5t11.5 67.5q0 50 -28 79t-73 29z" />
    <glyph glyph-name="Omega" horiz-adv-x="822" 
d="M410 666q-55 0 -107 -20t-92 -57.5t-64.5 -91.5t-24.5 -121q0 -60 20.5 -110t54 -87.5t77 -61.5t90.5 -33v-84h-297v56h221q-45 14 -87 42.5t-73.5 69.5t-50.5 93.5t-19 114.5q0 79 29 143t77.5 109t112 69.5t133.5 24.5t134 -24.5t112.5 -69.5t77.5 -109t29 -143
q0 -62 -19 -114.5t-50.5 -93.5t-73 -69.5t-86.5 -42.5h220v-56h-296v84q46 9 89.5 33t77.5 61.5t54 87.5t20 110q0 67 -24.5 121t-64.5 91.5t-92.5 57.5t-107.5 20z" />
    <glyph glyph-name="ae" unicode="&#xe6;" horiz-adv-x="862" 
d="M316 272q35 2 46.5 21t11.5 45q0 41 -30 69t-90 28q-50 0 -87 -27t-52 -73l-53 17q10 31 29.5 56.5t45.5 42.5t57 26.5t65 9.5q68 0 107.5 -27t53.5 -67q36 47 86 72t103 25q48 0 84.5 -15t61 -41t37 -61.5t12.5 -76.5q0 -20 -3 -38t-6 -32h-379q-2 -8 -2 -15v-15
q0 -35 11 -64t31 -49.5t47.5 -31.5t59.5 -11q57 0 98 30t63 69l47 -30q-29 -52 -83.5 -87.5t-126.5 -35.5q-67 0 -118.5 33.5t-72.5 95.5q-2 -4 -3.5 -8t-3.5 -9q-26 -45 -75 -78t-117 -33q-41 0 -71 10.5t-50.5 28t-30.5 41t-10 49.5q0 35 13.5 62t36.5 46t54 29t66 12z
M606 436q-34 0 -63.5 -13t-52.5 -34.5t-39.5 -50.5t-25.5 -61h315q0 5 0.5 10.5t0.5 11.5q0 27 -8 52t-24.5 44t-42 30t-60.5 11zM71 120q0 -20 9 -35t23.5 -25.5t33.5 -16t39 -5.5q48 0 88 28t57 74q4 4 9.5 16t11 27t9.5 30t5 23q-2 -3 -9.5 -5t-17.5 -3.5t-19.5 -3
t-16.5 -1.5l-116 -5q-21 -1 -40 -7.5t-33.5 -19t-23.5 -30t-9 -41.5z" />
    <glyph glyph-name="oslash" unicode="&#xf8;" horiz-adv-x="529" 
d="M266 436q-35 0 -69 -15.5t-61.5 -45t-44.5 -73t-17 -99.5q0 -46 15 -77l279 268q-39 42 -102 42zM410 275q0 44 -15 77l-279 -268q19 -20 45 -31.5t57 -11.5q34 0 68.5 15.5t62 45.5t44.5 73.5t17 99.5zM-20 20l63 61q-30 51 -30 119q0 66 21.5 119.5t57 91.5t82 58.5
t96.5 20.5q45 0 80 -14t61 -40l58 56l33 -36l-61 -59q30 -50 30 -120q0 -65 -21 -118.5t-56.5 -91.5t-82 -59t-96.5 -21q-44 0 -80 14.5t-62 40.5l-60 -58z" />
    <glyph glyph-name="questiondown" unicode="&#xbf;" horiz-adv-x="462" 
d="M300 444q0 -23 -15.5 -40t-39.5 -17q-20 0 -32 13.5t-12 31.5q0 23 16.5 39t38.5 16q20 0 32 -12.5t12 -30.5zM262 282q-2 -61 -29 -101.5t-79 -71.5l-50 -30q-47 -27 -72 -62t-25 -83q0 -23 8 -44.5t24 -37.5t41 -25.5t58 -9.5q39 0 69.5 15t51.5 39t31.5 55t10.5 64v13
l59 -11q1 -3 1 -9q-1 -44 -17 -84.5t-45.5 -71t-72 -48.5t-94.5 -18q-46 0 -81 14t-59 37t-36.5 53t-12.5 62q0 69 38.5 118t98.5 83l52 31q43 25 59 58t16 77h54q1 -4 1 -12z" />
    <glyph glyph-name="exclamdown" unicode="&#xa1;" horiz-adv-x="236" 
d="M181 444q0 -23 -15.5 -40t-39.5 -17q-20 0 -32 13.5t-12 31.5q0 23 16 39t38 16q20 0 32.5 -12.5t12.5 -30.5zM36 -226h-78l127 520h43z" />
    <glyph glyph-name="logicalnot" unicode="&#xac;" horiz-adv-x="601" 
d="M457 197v202h-385v52h439v-254h-54z" />
    <glyph glyph-name="radical" unicode="&#x221a;" horiz-adv-x="640" 
d="M556 796l-267 -796h-58l-182 518h69l142 -416l248 751h174v-57h-126z" />
    <glyph glyph-name="florin" unicode="&#x192;" horiz-adv-x="479" 
d="M201 423h-118v54h128l23 113q14 72 57.5 105.5t96.5 33.5q27 0 41.5 -3.5t22.5 -5.5v-55q-4 2 -17 5t-34 3q-18 0 -34.5 -5t-31 -17t-25.5 -31.5t-17 -49.5l-19 -93h133v-54h-144l-86 -432q-14 -72 -57 -105.5t-96 -33.5q-27 0 -41.5 3t-24.5 6v55q6 -2 20 -5t34 -3
q17 0 33.5 5t30.5 17t25 31.5t17 49.5z" />
    <glyph glyph-name="approxequal" unicode="&#x2248;" horiz-adv-x="636" 
d="M551 429q-26 -35 -58 -54t-74 -19q-23 0 -46.5 8t-49.5 22l-47 25q-17 9 -35 14.5t-35 5.5q-55 0 -95 -49l-34 30q26 36 56.5 55t72.5 19q23 0 46.5 -8t49.5 -22l46 -24q39 -22 77 -22q29 0 50.5 11.5t41.5 36.5zM551 236q-26 -35 -58 -54t-74 -19q-23 0 -46.5 7.5
t-49.5 21.5l-47 26q-36 19 -70 19q-55 0 -95 -48l-34 30q26 36 56.5 55t72.5 19q23 0 46.5 -8t49.5 -22l46 -24q19 -11 39 -17t38 -6q55 0 92 49z" />
    <glyph glyph-name="Delta" unicode="&#x394;" horiz-adv-x="617" 
d="M252 709h66l276 -709h-616zM285 634l-217 -576h436z" />
    <glyph glyph-name="guillemotleft" unicode="&#xab;" horiz-adv-x="422" 
d="M104 95l-95 192l171 190h67l-176 -195l92 -187h-59zM271 95l-95 192l171 190h67l-176 -195l92 -187h-59z" />
    <glyph glyph-name="guillemotright" unicode="&#xbb;" horiz-adv-x="428" 
d="M290 477l96 -192l-171 -190h-68l176 195l-92 187h59zM117 477l96 -192l-171 -190h-68l176 195l-91 187h58z" />
    <glyph glyph-name="ellipsis" unicode="&#x2026;" horiz-adv-x="742" 
d="M556 -4q-21 0 -33 13t-12 31q0 23 16 40.5t40 17.5q21 0 32.5 -14t11.5 -32q0 -24 -16 -40t-39 -16zM303 -4q-21 0 -33 13t-12 31q0 23 16 40.5t40 17.5q21 0 32.5 -14t11.5 -32q0 -24 -16 -40t-39 -16zM51 -4q-20 0 -32.5 13t-12.5 31q0 23 16 40.5t40 17.5
q21 0 32.5 -14t11.5 -32q0 -24 -16 -40t-39 -16z" />
    <glyph glyph-name="Agrave" unicode="&#xc0;" horiz-adv-x="626" 
d="M173 287h266l-60 353zM448 228h-309l-133 -228h-73l422 709h73l122 -709h-64zM265 878h78l83 -119h-57z" />
    <glyph glyph-name="Atilde" unicode="&#xc3;" horiz-adv-x="626" 
d="M173 287h266l-60 353zM448 228h-309l-133 -228h-73l422 709h73l122 -709h-64zM564 872q-11 -58 -40 -83.5t-65 -25.5q-35 0 -62 24l-17 15q-11 10 -20.5 14.5t-22.5 4.5q-19 0 -32.5 -13.5t-18.5 -41.5h-47q8 56 38 82t66 26q20 0 36 -7.5t29 -18.5l16 -14
q11 -10 19.5 -14.5t21.5 -4.5q40 0 52 57h47v0z" />
    <glyph glyph-name="Otilde" unicode="&#xd5;" horiz-adv-x="746" 
d="M38 293q0 106 33.5 186.5t87.5 134.5t121 81t133 27q63 0 116.5 -20.5t93.5 -59.5t62.5 -96t22.5 -130q0 -106 -33.5 -186.5t-87.5 -134.5t-121 -81t-133 -27q-63 0 -116.5 20.5t-93.5 59.5t-62.5 96t-22.5 130zM643 411q0 63 -18.5 110.5t-50 79t-74 47.5t-91.5 16
q-60 0 -115 -26t-97.5 -73.5t-68 -115t-25.5 -151.5q0 -63 18.5 -110.5t50 -79t74 -47.5t91.5 -16q60 0 115 26t97.5 73.5t68 115t25.5 151.5zM614 872q-11 -58 -40 -83.5t-65 -25.5q-35 0 -62 24l-17 15q-11 10 -20.5 14.5t-22.5 4.5q-19 0 -32.5 -13.5t-18.5 -41.5h-47
q8 56 38 82t66 26q20 0 36 -7.5t29 -18.5l16 -14q11 -10 19.5 -14.5t21.5 -4.5q40 0 52 57h47v0z" />
    <glyph glyph-name="OE" unicode="&#x152;" horiz-adv-x="1117" 
d="M643 411q0 63 -18.5 110.5t-50 79t-74 47.5t-91.5 16q-60 0 -115 -26t-97.5 -73.5t-68 -115t-25.5 -151.5q0 -63 18.5 -110.5t50 -79t74 -47.5t91.5 -16q60 0 115 26t97.5 73.5t68 115t25.5 151.5zM569 0l23 107q-53 -60 -121.5 -90t-137.5 -30q-63 0 -116.5 20.5
t-93.5 59.5t-62.5 96t-22.5 130q0 106 33.5 186.5t87.5 134.5t121 81t133 27q96 0 168 -48t101 -140l37 175h410l-13 -59h-346l-56 -265h313l-13 -60h-313l-56 -266h351l-12 -59h-415z" />
    <glyph glyph-name="oe" unicode="&#x153;" horiz-adv-x="914" 
d="M614 -13q-66 0 -116.5 31.5t-72.5 91.5q-35 -59 -91 -91t-119 -32q-46 0 -83.5 16t-63.5 44.5t-40.5 67.5t-14.5 85q0 66 21.5 119.5t57 91.5t82 58.5t96.5 20.5q69 0 116 -33.5t68 -90.5q36 59 92 91.5t116 32.5q48 0 84.5 -15t60.5 -41t36.5 -61.5t12.5 -76.5
q0 -20 -2.5 -38t-6.5 -32h-378q-2 -8 -2 -15v-15q0 -35 11 -64t31 -49t47.5 -31t59.5 -11q57 0 98 30t63 69l47 -31q-29 -52 -83.5 -87t-126.5 -35zM410 275q0 74 -39.5 117.5t-104.5 43.5q-35 0 -69 -15.5t-61.5 -45t-44.5 -73t-17 -99.5q0 -37 10.5 -67t30 -51t45.5 -32.5
t58 -11.5q34 0 68.5 15.5t62 45.5t44.5 73.5t17 99.5zM793 277q1 5 1.5 10.5t0.5 11.5q0 27 -8 52t-24.5 44t-42 30t-60.5 11q-34 0 -63.5 -13t-53 -34.5t-40 -50.5t-25.5 -61h315z" />
    <glyph glyph-name="endash" unicode="&#x2013;" horiz-adv-x="627" 
d="M43 260l11 54h500l-11 -54h-500z" />
    <glyph glyph-name="emdash" unicode="&#x2014;" horiz-adv-x="1069" 
d="M53 260l11 54h919l-11 -54h-919z" />
    <glyph glyph-name="quotedblleft" unicode="&#x201c;" horiz-adv-x="353" 
d="M188 541q0 -23 -15.5 -38t-38.5 -15q-22 0 -36.5 15t-14.5 41q0 33 13.5 63t35 52.5t48.5 37.5t55 18l-7 -37q-18 -4 -34.5 -14t-30 -23.5t-23 -29t-12.5 -31.5q3 3 17 3q18 0 30.5 -11t12.5 -31zM335 541q0 -23 -15.5 -38t-38.5 -15q-22 0 -36 15t-14 41q0 33 13.5 63
t35 52.5t48.5 37.5t55 18l-8 -37q-18 -4 -34 -14t-29.5 -23.5t-23 -29t-13.5 -31.5q4 3 17 3q18 0 30.5 -11t12.5 -31z" />
    <glyph glyph-name="quotedblright" unicode="&#x201d;" horiz-adv-x="347" 
d="M269 663q0 23 16 37.5t38 14.5t36.5 -14.5t14.5 -41.5q0 -33 -13.5 -63t-35 -52.5t-48.5 -37.5t-55 -18l7 37q18 4 34.5 14t30 23.5t23 29t12.5 31.5q-3 -3 -17 -3q-18 0 -30.5 11.5t-12.5 31.5zM122 663q0 23 15.5 37.5t38.5 14.5q22 0 36.5 -14.5t14.5 -41.5
q0 -33 -13.5 -63t-35.5 -52.5t-49 -37.5t-55 -18l8 37q18 4 34.5 14t30 23.5t22.5 29t13 31.5q-5 -3 -17 -3q-18 0 -30.5 11.5t-12.5 31.5z" />
    <glyph glyph-name="quoteleft" unicode="&#x2018;" horiz-adv-x="208" 
d="M190 538q0 -23 -16 -38.5t-39 -15.5t-37.5 15t-14.5 42q0 34 13.5 64.5t35.5 53.5t50 38t56 18l-8 -38q-18 -4 -35 -14t-30.5 -23.5t-23 -29.5t-12.5 -32q2 2 7 2.5t10 0.5q19 0 31.5 -11.5t12.5 -31.5z" />
    <glyph glyph-name="quoteright" unicode="&#x2019;" horiz-adv-x="202" 
d="M122 663q0 23 16 38t39 15t37.5 -15t14.5 -42q0 -34 -13.5 -64t-35.5 -53.5t-50 -38.5t-56 -18l8 38q18 4 35 14t30.5 23.5t23 29.5t12.5 33q-4 -4 -17 -4q-19 0 -31.5 12t-12.5 32z" />
    <glyph glyph-name="divide" unicode="&#xf7;" horiz-adv-x="561" 
d="M224 505q0 20 14.5 34t34.5 14t33.5 -14t13.5 -34q0 -19 -13.5 -33.5t-33.5 -14.5t-34.5 14.5t-14.5 33.5zM53 354h441v-53h-441v53zM224 149q0 20 14.5 34t34.5 14t33.5 -14t13.5 -34q0 -19 -13.5 -33t-33.5 -14t-34.5 14t-14.5 33z" />
    <glyph glyph-name="lozenge" unicode="&#x25ca;" horiz-adv-x="544" 
d="M246 0l-208 354l208 355h51l209 -355l-208 -354h-52zM440 354l-168 282l-168 -282l168 -281z" />
    <glyph glyph-name="ydieresis" unicode="&#xff;" horiz-adv-x="471" 
d="M-30 -190l178 265l-118 402h65l96 -343l220 343h71l-442 -667h-70zM315 605q0 20 14 35t34 15q17 0 27.5 -12.5t10.5 -27.5q0 -20 -14.5 -33.5t-33.5 -13.5q-17 0 -27.5 11t-10.5 26zM142 605q0 20 14 35t34 15q17 0 27 -12.5t10 -27.5q0 -20 -14 -33.5t-34 -13.5
q-17 0 -27 11t-10 26z" />
    <glyph glyph-name="Ydieresis" unicode="&#x178;" horiz-adv-x="584" 
d="M95 709h67l132 -341l257 341h75l-313 -404l-64 -305h-63l66 311zM439 814q0 21 14 35t34 14q17 0 27 -12t10 -27q0 -21 -13.5 -34.5t-33.5 -13.5q-17 0 -27.5 11t-10.5 27zM234 814q0 21 14 35t35 14q17 0 27 -12t10 -27q0 -21 -14 -34.5t-34 -13.5q-17 0 -27.5 11
t-10.5 27z" />
    <glyph glyph-name="fraction" unicode="&#x2044;" horiz-adv-x="538" 
d="M2 0h-64l619 709h63z" />
    <glyph glyph-name="currency" unicode="&#xa4;" horiz-adv-x="584" 
d="M85 319q0 39 12.5 74.5t35.5 62.5l-76 79l39 39l75 -80q29 21 62 33t71 12q35 0 68 -10.5t60 -30.5l73 76l38 -39l-71 -74q23 -28 37.5 -64.5t14.5 -77.5q0 -80 -50 -139l71 -72l-38 -38l-72 73q-27 -21 -61 -32.5t-70 -11.5q-39 0 -73.5 13t-62.5 36l-74 -78l-38 38
l75 77q-46 57 -46 134zM138 319q0 -36 13 -66.5t35.5 -53t52.5 -35t65 -12.5q34 0 64 12.5t52.5 35t35 53t12.5 66.5t-12.5 66.5t-35 53t-52.5 35t-64 12.5q-35 0 -65 -12.5t-52.5 -35t-35.5 -53t-13 -66.5z" />
    <glyph glyph-name="guilsinglleft" unicode="&#x2039;" horiz-adv-x="254" 
d="M104 95l-95 192l171 190h66l-176 -195l92 -187h-58z" />
    <glyph glyph-name="guilsinglright" unicode="&#x203a;" horiz-adv-x="255" 
d="M119 477l95 -193l-173 -189h-67l177 194l-93 188h61z" />
    <glyph glyph-name="daggerdbl" unicode="&#x2021;" horiz-adv-x="424" 
d="M105 0l34 161h-136l11 52h136l61 283h-136l11 52h135l35 161h53l-34 -161h136l-11 -52h-136l-60 -283h135l-11 -52h-135l-34 -161h-54z" />
    <glyph glyph-name="periodcentered" unicode="&#xb7;" horiz-adv-x="240" 
d="M59 278q0 25 16 42t41 17q21 0 33.5 -14t12.5 -32q0 -24 -17 -41t-40 -17q-21 0 -33.5 13.5t-12.5 31.5z" />
    <glyph glyph-name="quotesinglbase" unicode="&#x201a;" horiz-adv-x="209" 
d="M-9 40q0 23 16 38t39 15t37.5 -15t14.5 -42q0 -34 -13.5 -64t-35.5 -53.5t-50 -38t-56 -17.5l8 37q18 4 35 14t30.5 23.5t23 29.5t12.5 33q-4 -4 -17 -4q-19 0 -31.5 12t-12.5 32z" />
    <glyph glyph-name="quotedblbase" unicode="&#x201e;" horiz-adv-x="350" 
d="M134 39q0 23 16 37.5t38 14.5t36.5 -14.5t14.5 -40.5q0 -34 -13.5 -63.5t-35 -52.5t-48.5 -37.5t-55 -17.5l7 37q18 4 34.5 14t30 23t23 29t12.5 32q-3 -3 -17 -3q-18 0 -30.5 11t-12.5 31zM-9 39q0 23 15.5 37.5t38.5 14.5q22 0 36 -14.5t14 -40.5q0 -34 -13.5 -63.5
t-35 -52.5t-48.5 -37.5t-55 -17.5l8 37q18 4 34 14t29.5 23t23 29t13.5 32q-5 -3 -17 -3q-19 0 -31 11t-12 31z" />
    <glyph glyph-name="perthousand" unicode="&#x2030;" horiz-adv-x="1067" 
d="M201 402q-31 0 -57.5 11t-45.5 29.5t-29.5 44t-10.5 55.5q0 34 13.5 66t37 56t55.5 38.5t69 14.5q31 0 57 -11t45 -30t30 -44.5t11 -55.5q0 -35 -14 -66.5t-38 -55.5t-55.5 -38t-67.5 -14zM119 0h-65l623 709h65zM206 452q24 0 44.5 9.5t36 26t24.5 39t9 47.5
q0 40 -25 66t-68 26q-23 0 -43.5 -9.5t-36 -26t-24.5 -38.5t-9 -46q0 -41 25 -67.5t67 -26.5zM829 -8q-42 0 -74.5 19t-49.5 51q-23 -32 -59 -51t-78 -19q-31 0 -57.5 11t-45.5 29.5t-29.5 44t-10.5 55.5q0 34 13.5 66t36.5 56t55 38.5t69 14.5q42 0 74 -19t50 -51
q23 32 58.5 51t79.5 19q31 0 57 -11t45 -30t30 -44.5t11 -55.5q0 -35 -14 -66.5t-38 -55.5t-55.5 -38t-67.5 -14zM572 42q24 0 44.5 9.5t36.5 26t25 39t9 47.5q0 40 -25.5 66.5t-67.5 26.5q-24 0 -44.5 -10t-36.5 -26.5t-25 -38.5t-9 -46q0 -41 25.5 -67.5t67.5 -26.5z
M835 42q23 0 44 9.5t36.5 26t24.5 39t9 47.5q0 40 -25.5 66.5t-68.5 26.5q-23 0 -44 -10t-36.5 -26.5t-24.5 -38.5t-9 -46q0 -41 25.5 -67.5t68.5 -26.5z" />
    <glyph glyph-name="Acircumflex" unicode="&#xc2;" horiz-adv-x="626" 
d="M173 287h266l-60 353zM448 228h-309l-133 -228h-73l422 709h73l122 -709h-64zM243 759l134 119h81l85 -119h-53l-78 83l-110 -83h-59z" />
    <glyph glyph-name="Ecircumflex" unicode="&#xca;" horiz-adv-x="566" 
d="M18 0l151 709h409l-12 -59h-346l-57 -265h313l-12 -60h-313l-57 -266h351l-12 -59h-415zM237 759l134 119h81l85 -119h-53l-78 83l-110 -83h-59z" />
    <glyph glyph-name="Aacute" unicode="&#xc1;" horiz-adv-x="626" 
d="M173 287h266l-60 353zM448 228h-309l-133 -228h-73l422 709h73l122 -709h-64zM432 759h-64l128 119h87z" />
    <glyph glyph-name="Edieresis" unicode="&#xcb;" horiz-adv-x="566" 
d="M18 0l151 709h409l-12 -59h-346l-57 -265h313l-12 -60h-313l-57 -266h351l-12 -59h-415zM453 813q0 21 14 35t34 14q17 0 27 -12t10 -27q0 -21 -13.5 -34.5t-33.5 -13.5q-17 0 -27.5 11t-10.5 27zM248 813q0 21 14 35t35 14q17 0 27 -12t10 -27q0 -21 -14 -34.5
t-34 -13.5q-17 0 -27.5 11t-10.5 27z" />
    <glyph glyph-name="Egrave" unicode="&#xc8;" horiz-adv-x="566" 
d="M18 0l151 709h409l-12 -59h-346l-57 -265h313l-12 -60h-313l-57 -266h351l-12 -59h-415zM268 878h78l83 -119h-57z" />
    <glyph glyph-name="Iacute" unicode="&#xcd;" horiz-adv-x="251" 
d="M18 0l151 709h64l-150 -709h-65zM245 759h-64l128 119h87z" />
    <glyph glyph-name="Icircumflex" unicode="&#xce;" horiz-adv-x="251" 
d="M18 0l151 709h64l-150 -709h-65zM58 759l134 119h81l85 -119h-53l-78 83l-110 -83h-59z" />
    <glyph glyph-name="Idieresis" unicode="&#xcf;" horiz-adv-x="251" 
d="M245 814q0 20 13 33.5t33 13.5q16 0 25.5 -11.5t9.5 -25.5q0 -20 -13 -33t-32 -13q-16 0 -26 10.5t-10 25.5zM111 814q0 20 13 33.5t33 13.5q16 0 25.5 -11.5t9.5 -25.5q0 -20 -13 -33t-32 -13q-16 0 -26 10.5t-10 25.5zM18 0l151 709h64l-150 -709h-65z" />
    <glyph glyph-name="Igrave" unicode="&#xcc;" horiz-adv-x="251" 
d="M18 0l151 709h64l-150 -709h-65zM87 878h78l83 -119h-57z" />
    <glyph glyph-name="Oacute" unicode="&#xd3;" horiz-adv-x="746" 
d="M38 293q0 106 33.5 186.5t87.5 134.5t121 81t133 27q63 0 116.5 -20.5t93.5 -59.5t62.5 -96t22.5 -130q0 -106 -33.5 -186.5t-87.5 -134.5t-121 -81t-133 -27q-63 0 -116.5 20.5t-93.5 59.5t-62.5 96t-22.5 130zM643 411q0 63 -18.5 110.5t-50 79t-74 47.5t-91.5 16
q-60 0 -115 -26t-97.5 -73.5t-68 -115t-25.5 -151.5q0 -63 18.5 -110.5t50 -79t74 -47.5t91.5 -16q60 0 115 26t97.5 73.5t68 115t25.5 151.5zM465 759h-64l128 119h87z" />
    <glyph glyph-name="Ocircumflex" unicode="&#xd4;" horiz-adv-x="746" 
d="M38 293q0 106 33.5 186.5t87.5 134.5t121 81t133 27q63 0 116.5 -20.5t93.5 -59.5t62.5 -96t22.5 -130q0 -106 -33.5 -186.5t-87.5 -134.5t-121 -81t-133 -27q-63 0 -116.5 20.5t-93.5 59.5t-62.5 96t-22.5 130zM643 411q0 63 -18.5 110.5t-50 79t-74 47.5t-91.5 16
q-60 0 -115 -26t-97.5 -73.5t-68 -115t-25.5 -151.5q0 -63 18.5 -110.5t50 -79t74 -47.5t91.5 -16q60 0 115 26t97.5 73.5t68 115t25.5 151.5zM291 759l134 119h81l85 -119h-53l-78 83l-110 -83h-59z" />
    <glyph glyph-name="apple" horiz-adv-x="0" 
 />
    <glyph glyph-name="Ograve" unicode="&#xd2;" horiz-adv-x="746" 
d="M38 293q0 106 33.5 186.5t87.5 134.5t121 81t133 27q63 0 116.5 -20.5t93.5 -59.5t62.5 -96t22.5 -130q0 -106 -33.5 -186.5t-87.5 -134.5t-121 -81t-133 -27q-63 0 -116.5 20.5t-93.5 59.5t-62.5 96t-22.5 130zM643 411q0 63 -18.5 110.5t-50 79t-74 47.5t-91.5 16
q-60 0 -115 -26t-97.5 -73.5t-68 -115t-25.5 -151.5q0 -63 18.5 -110.5t50 -79t74 -47.5t91.5 -16q60 0 115 26t97.5 73.5t68 115t25.5 151.5zM320 878h78l83 -119h-57z" />
    <glyph glyph-name="Uacute" unicode="&#xda;" horiz-adv-x="646" 
d="M638 709l-106 -499q-23 -109 -89.5 -166t-166.5 -57q-105 0 -163 55t-58 152q0 17 1.5 36t6.5 39l94 440h62l-93 -446q-3 -17 -5 -32.5t-2 -30.5q0 -68 39 -111t122 -43q77 0 125 45t65 127l104 491h64zM407 759h-64l128 119h87z" />
    <glyph glyph-name="Ucircumflex" unicode="&#xdb;" horiz-adv-x="646" 
d="M638 709l-106 -499q-23 -109 -89.5 -166t-166.5 -57q-105 0 -163 55t-58 152q0 17 1.5 36t6.5 39l94 440h62l-93 -446q-3 -17 -5 -32.5t-2 -30.5q0 -68 39 -111t122 -43q77 0 125 45t65 127l104 491h64zM253 759l134 119h81l85 -119h-53l-78 83l-110 -83h-59z" />
    <glyph glyph-name="Ugrave" unicode="&#xd9;" horiz-adv-x="646" 
d="M638 709l-106 -499q-23 -109 -89.5 -166t-166.5 -57q-105 0 -163 55t-58 152q0 17 1.5 36t6.5 39l94 440h62l-93 -446q-3 -17 -5 -32.5t-2 -30.5q0 -68 39 -111t122 -43q77 0 125 45t65 127l104 491h64zM290 878h78l83 -119h-57z" />
    <glyph glyph-name="dotlessi" unicode="&#x131;" horiz-adv-x="228" 
d="M8 0l102 477h60l-101 -477h-61z" />
    <glyph glyph-name="circumflex" unicode="&#x2c6;" horiz-adv-x="332" 
d="M65 538l137 137h78l77 -137h-51l-71 99l-111 -99h-59z" />
    <glyph glyph-name="tilde" unicode="&#x2dc;" horiz-adv-x="364" 
d="M64 553q8 57 37.5 82.5t66.5 25.5q21 0 36.5 -7t27.5 -18l16 -15q11 -8 20 -13t21 -5q41 0 52 56h48q-11 -57 -39.5 -82.5t-64.5 -25.5q-19 0 -34 6.5t-27 17.5l-17 15q-11 10 -20.5 14.5t-23.5 4.5q-40 0 -51 -56h-48z" />
    <glyph glyph-name="macron" unicode="&#xaf;" horiz-adv-x="305" 
d="M65 581l11 53h254l-11 -53h-254z" />
    <glyph glyph-name="breve" unicode="&#x2d8;" horiz-adv-x="323" 
d="M180 538q-29 0 -50.5 9t-36 24t-21.5 34.5t-7 41.5q0 8 1 15.5t3 13.5h45q-2 -5 -2 -9v-8q0 -27 17 -48.5t58 -21.5q24 0 42.5 8t32.5 20.5t23 28t14 30.5h49q-6 -26 -19.5 -50.5t-35 -44t-50 -31.5t-63.5 -12z" />
    <glyph glyph-name="dotaccent" unicode="&#x2d9;" horiz-adv-x="134" 
d="M65 601q0 21 15 37.5t38 16.5q19 0 30 -13t11 -30q0 -22 -15 -37.5t-36 -15.5q-19 0 -31 12.5t-12 29.5z" />
    <glyph glyph-name="ring" unicode="&#x2da;" horiz-adv-x="251" 
d="M181 739q42 0 68.5 -27t26.5 -67q0 -23 -9.5 -44t-25 -37t-36.5 -25t-44 -9q-42 0 -69 27t-27 66q0 25 10 46.5t26 37t37 24t43 8.5zM109 628q0 -23 15 -39t40 -16q26 0 46.5 20t20.5 49q0 23 -14.5 38.5t-40.5 15.5q-28 0 -47.5 -20t-19.5 -48z" />
    <glyph glyph-name="cedilla" unicode="&#xb8;" horiz-adv-x="283" 
d="M139 8l-76 -64h9q37 -2 58 -21.5t21 -47.5q0 -38 -30 -61.5t-77 -23.5q-45 0 -75.5 20.5t-42.5 46.5l37 23q8 -17 26.5 -34t54.5 -17q26 0 42.5 12t16.5 34q0 17 -14 28t-42 11q-14 0 -26 -4l-16 31l77 67h57z" />
    <glyph glyph-name="hungarumlaut" unicode="&#x2dd;" horiz-adv-x="322" 
d="M225 537h-46l95 140h69zM111 537h-46l89 140h69z" />
    <glyph glyph-name="ogonek" unicode="&#x2db;" horiz-adv-x="214" 
d="M23 -210q-38 0 -61.5 20.5t-23.5 55.5q0 28 12 51.5t30 42.5t39.5 32.5t39.5 20.5l39 -13q-17 -8 -35.5 -20t-34.5 -27.5t-26.5 -34t-10.5 -39.5q0 -22 15 -32.5t37 -10.5q17 0 36 4l-10 -42q-10 -4 -20.5 -6t-25.5 -2z" />
    <glyph glyph-name="caron" unicode="&#x2c7;" horiz-adv-x="332" 
d="M357 676l-137 -138h-78l-77 138h51l71 -99l112 99h58z" />
    <glyph glyph-name="AEacute" unicode="&#x1fc;" horiz-adv-x="986" 
d="M495 267l82 386l-335 -386h253zM865 59l-12 -59h-415l45 210h-290l-180 -210h-80l619 709h446l-12 -59h-346l-57 -265h313l-12 -60h-313l-57 -266h351zM652 759h-64l128 119h87z" />
    <glyph glyph-name="Abreve" unicode="&#x102;" horiz-adv-x="626" 
d="M173 287h266l-60 353zM448 228h-309l-133 -228h-73l422 709h73l122 -709h-64zM400 753q-31 0 -54 8.5t-38 23.5t-22.5 34.5t-7.5 41.5q0 8 2 18h49q-1 -4 -1 -10q0 -26 17.5 -46.5t59.5 -20.5q23 0 41 6.5t31.5 17.5t23 24.5t14.5 28.5h51q-7 -24 -21 -46.5t-35 -40
t-48.5 -28.5t-61.5 -11z" />
    <glyph glyph-name="Amacron" unicode="&#x100;" horiz-adv-x="626" 
d="M173 287h266l-60 353zM448 228h-309l-133 -228h-73l422 709h73l122 -709h-64zM267 793l11 54h266l-11 -54h-266z" />
    <glyph glyph-name="Aogonek" unicode="&#x104;" horiz-adv-x="626" 
d="M389 -134q0 23 9 44t23 38t31.5 31t35.5 23h-2l-38 226h-309l-133 -228h-73l422 709h73l122 -709q-17 -8 -35.5 -20t-34.5 -27.5t-26.5 -34t-10.5 -39.5q0 -22 15 -32.5t37 -10.5q17 0 36 4l-10 -42q-10 -4 -20.5 -6t-25.5 -2q-38 0 -62 20.5t-24 55.5zM173 287h266
l-60 352z" />
    <glyph glyph-name="Aringacute" unicode="&#x1fa;" horiz-adv-x="626" 
d="M448 901h-64l128 119h87zM406 826q-27 0 -45.5 -19.5t-18.5 -45.5q0 -23 14.5 -37.5t37.5 -14.5q26 0 45.5 18.5t19.5 46.5q0 22 -14.5 37t-38.5 15zM173 287h266l-60 352zM299 757q0 24 9.5 44.5t25 35.5t35.5 23t41 8q40 0 66 -26.5t26 -64.5q0 -34 -19.5 -61.5
t-49.5 -40.5l117 -675h-64l-38 228h-309l-133 -228h-73l406 683q-19 11 -29.5 30.5t-10.5 43.5z" />
    <glyph glyph-name="Cacute" unicode="&#x106;" horiz-adv-x="715" 
d="M415 722q62 0 111 -17.5t84.5 -48t57 -71t29.5 -86.5l-59 -18q-6 39 -24.5 72.5t-47.5 58t-68.5 38.5t-88.5 14q-60 0 -115 -25.5t-97.5 -73t-68 -115t-25.5 -151.5q0 -62 17.5 -109.5t49 -79.5t74.5 -48.5t93 -16.5q87 0 152.5 45.5t106.5 133.5l53 -26
q-44 -97 -126.5 -154t-191.5 -57q-62 0 -115 21t-93 61t-62.5 97t-22.5 129q0 105 33.5 185t87.5 134t121.5 81t134.5 27zM477 759h-64l128 119h87z" />
    <glyph glyph-name="Ccaron" unicode="&#x10c;" horiz-adv-x="715" 
d="M415 722q62 0 111 -17.5t84.5 -48t57 -71t29.5 -86.5l-59 -18q-6 39 -24.5 72.5t-47.5 58t-68.5 38.5t-88.5 14q-60 0 -115 -25.5t-97.5 -73t-68 -115t-25.5 -151.5q0 -62 17.5 -109.5t49 -79.5t74.5 -48.5t93 -16.5q87 0 152.5 45.5t106.5 133.5l53 -26
q-44 -97 -126.5 -154t-191.5 -57q-62 0 -115 21t-93 61t-62.5 97t-22.5 129q0 105 33.5 185t87.5 134t121.5 81t134.5 27zM615 878l-137 -119h-81l-82 119h52l76 -83l110 83h62z" />
    <glyph glyph-name="Ccircumflex" unicode="&#x108;" horiz-adv-x="715" 
d="M415 722q62 0 111 -17.5t84.5 -48t57 -71t29.5 -86.5l-59 -18q-6 39 -24.5 72.5t-47.5 58t-68.5 38.5t-88.5 14q-60 0 -115 -25.5t-97.5 -73t-68 -115t-25.5 -151.5q0 -62 17.5 -109.5t49 -79.5t74.5 -48.5t93 -16.5q87 0 152.5 45.5t106.5 133.5l53 -26
q-44 -97 -126.5 -154t-191.5 -57q-62 0 -115 21t-93 61t-62.5 97t-22.5 129q0 105 33.5 185t87.5 134t121.5 81t134.5 27zM294 759l134 119h81l85 -119h-53l-78 83l-110 -83h-59z" />
    <glyph glyph-name="Cdotaccent" unicode="&#x10a;" horiz-adv-x="715" 
d="M415 722q62 0 111 -17.5t84.5 -48t57 -71t29.5 -86.5l-59 -18q-6 39 -24.5 72.5t-47.5 58t-68.5 38.5t-88.5 14q-60 0 -115 -25.5t-97.5 -73t-68 -115t-25.5 -151.5q0 -62 17.5 -109.5t49 -79.5t74.5 -48.5t93 -16.5q87 0 152.5 45.5t106.5 133.5l53 -26
q-44 -97 -126.5 -154t-191.5 -57q-62 0 -115 21t-93 61t-62.5 97t-22.5 129q0 105 33.5 185t87.5 134t121.5 81t134.5 27zM405 813q0 22 15 38t38 16q19 0 30 -13t11 -30q0 -22 -15 -37.5t-36 -15.5q-20 0 -31.5 12.5t-11.5 29.5z" />
    <glyph glyph-name="Ebreve" unicode="&#x114;" horiz-adv-x="566" 
d="M18 0l151 709h409l-12 -59h-346l-57 -265h313l-12 -60h-313l-57 -266h351l-12 -59h-415zM376 755q-31 0 -54 8.5t-38 23.5t-22.5 34.5t-7.5 41.5q0 8 2 18h49q-1 -4 -1 -10q0 -26 17.5 -46.5t59.5 -20.5q23 0 41 6.5t31.5 17.5t23 24.5t14.5 28.5h51q-7 -24 -21 -46.5
t-35 -40t-48.5 -28.5t-61.5 -11z" />
    <glyph glyph-name="Ecaron" unicode="&#x11a;" horiz-adv-x="566" 
d="M18 0l151 709h409l-12 -59h-346l-57 -265h313l-12 -60h-313l-57 -266h351l-12 -59h-415zM563 878l-137 -119h-81l-82 119h52l76 -83l110 83h62z" />
    <glyph glyph-name="Edotaccent" unicode="&#x116;" horiz-adv-x="566" 
d="M18 0l151 709h409l-12 -59h-346l-57 -265h313l-12 -60h-313l-57 -266h351l-12 -59h-415zM352 813q0 22 15 38t38 16q19 0 30 -13t11 -30q0 -22 -15 -37.5t-36 -15.5q-20 0 -31.5 12.5t-11.5 29.5z" />
    <glyph glyph-name="Emacron" unicode="&#x112;" horiz-adv-x="566" 
d="M18 0l151 709h409l-12 -59h-346l-57 -265h313l-12 -60h-313l-57 -266h351l-12 -59h-415zM262 793l11 54h266l-11 -54h-266z" />
    <glyph glyph-name="Eogonek" unicode="&#x118;" horiz-adv-x="566" 
d="M272 -134q0 23 8.5 43t22 37.5t30.5 31t34 22.5h-349l151 709h409l-12 -59h-346l-57 -265h313l-12 -60h-313l-57 -266h351l-12 -59q-17 -8 -35.5 -20t-34.5 -27.5t-26.5 -34t-10.5 -39.5q0 -22 15 -32.5t37 -10.5q17 0 36 4l-10 -42q-10 -4 -20.5 -6t-25.5 -2
q-38 0 -62 20.5t-24 55.5z" />
    <glyph glyph-name="Dcaron" unicode="&#x10e;" horiz-adv-x="681" 
d="M18 0l151 709h189q63 0 115 -19t90 -54t59 -86t21 -115q0 -95 -31 -174.5t-86 -137.5t-129 -90.5t-159 -32.5h-220zM239 57q59 0 119.5 24t109 71t79.5 117t31 163q0 55 -17 96t-47.5 68.5t-72.5 41.5t-92 14h-128l-127 -595h145zM576 878l-137 -119h-81l-82 119h52
l76 -83l110 83h62z" />
    <glyph glyph-name="Dcroat" unicode="&#x110;" horiz-adv-x="687" 
d="M30 391h77l68 318h189q63 0 115.5 -19t90 -54t58.5 -86t21 -115q0 -95 -31 -174.5t-86 -137.5t-129 -90.5t-159 -32.5h-220l72 337h-77zM246 57q59 0 119.5 24t109 71t79 117t30.5 163q0 55 -17 96t-47 68.5t-72 41.5t-93 14h-128l-56 -261h150l-11 -54h-150l-60 -280
h146z" />
    <glyph glyph-name="Gbreve" unicode="&#x11e;" horiz-adv-x="739" 
d="M410 664q-59 0 -114.5 -24.5t-98.5 -71.5t-68.5 -114.5t-25.5 -152.5q0 -63 18.5 -110.5t51 -80t75.5 -49t91 -16.5q54 0 99.5 19t79.5 51t56 73.5t30 86.5h-259l12 58h320l-69 -333h-50l17 111q-16 -23 -39 -45t-53.5 -39.5t-68.5 -28.5t-83 -11q-57 0 -110 20.5
t-93.5 60t-65 97t-24.5 132.5q0 106 34 186t88.5 133t122 79.5t134.5 26.5q58 0 106 -16.5t83.5 -46t58.5 -69.5t33 -86l-60 -21q-9 40 -28 73t-48 57t-67 37.5t-85 13.5zM448 754q-31 0 -54 8.5t-38 23.5t-22.5 34.5t-7.5 41.5q0 8 2 18h49q-1 -4 -1 -10q0 -26 17.5 -46.5
t59.5 -20.5q23 0 41 6.5t31.5 17.5t23 24.5t14.5 28.5h51q-7 -24 -21 -46.5t-35 -40t-48.5 -28.5t-61.5 -11z" />
    <glyph glyph-name="Gcircumflex" unicode="&#x11c;" horiz-adv-x="739" 
d="M410 664q-59 0 -114.5 -24.5t-98.5 -71.5t-68.5 -114.5t-25.5 -152.5q0 -63 18.5 -110.5t51 -80t75.5 -49t91 -16.5q54 0 99.5 19t79.5 51t56 73.5t30 86.5h-259l12 58h320l-69 -333h-50l17 111q-16 -23 -39 -45t-53.5 -39.5t-68.5 -28.5t-83 -11q-57 0 -110 20.5
t-93.5 60t-65 97t-24.5 132.5q0 106 34 186t88.5 133t122 79.5t134.5 26.5q58 0 106 -16.5t83.5 -46t58.5 -69.5t33 -86l-60 -21q-9 40 -28 73t-48 57t-67 37.5t-85 13.5zM291 759l134 119h81l85 -119h-53l-78 83l-110 -83h-59z" />
    <glyph glyph-name="Gcommaaccent" unicode="&#x122;" horiz-adv-x="739" 
d="M410 664q-59 0 -114.5 -24.5t-98.5 -71.5t-68.5 -114.5t-25.5 -152.5q0 -63 18.5 -110.5t51 -80t75.5 -49t91 -16.5q54 0 99.5 19t79.5 51t56 73.5t30 86.5h-259l12 58h320l-69 -333h-50l17 111q-16 -23 -39 -45t-53.5 -39.5t-68.5 -28.5t-83 -11q-57 0 -110 20.5
t-93.5 60t-65 97t-24.5 132.5q0 106 34 186t88.5 133t122 79.5t134.5 26.5q58 0 106 -16.5t83.5 -46t58.5 -69.5t33 -86l-60 -21q-9 40 -28 73t-48 57t-67 37.5t-85 13.5zM249 -90q0 19 14 33.5t35 14.5q17 0 31.5 -11.5t14.5 -37.5q0 -29 -11.5 -50t-28.5 -35t-37 -20.5
t-38 -6.5h-6l7 30q23 1 44.5 14t28.5 37q-6 -4 -16 -4q-17 0 -27.5 10.5t-10.5 25.5z" />
    <glyph glyph-name="Gdotaccent" unicode="&#x120;" horiz-adv-x="739" 
d="M410 664q-59 0 -114.5 -24.5t-98.5 -71.5t-68.5 -114.5t-25.5 -152.5q0 -63 18.5 -110.5t51 -80t75.5 -49t91 -16.5q54 0 99.5 19t79.5 51t56 73.5t30 86.5h-259l12 58h320l-69 -333h-50l17 111q-16 -23 -39 -45t-53.5 -39.5t-68.5 -28.5t-83 -11q-57 0 -110 20.5
t-93.5 60t-65 97t-24.5 132.5q0 106 34 186t88.5 133t122 79.5t134.5 26.5q58 0 106 -16.5t83.5 -46t58.5 -69.5t33 -86l-60 -21q-9 40 -28 73t-48 57t-67 37.5t-85 13.5zM408 813q0 22 15 38t38 16q19 0 30 -13t11 -30q0 -22 -15 -37.5t-36 -15.5q-20 0 -31.5 12.5
t-11.5 29.5z" />
    <glyph glyph-name="Hbar" unicode="&#x126;" horiz-adv-x="699" 
d="M549 390l29 135h-384l-29 -135h384zM69 574h71l29 135h64l-29 -135h384l29 135h64l-29 -135h73l-10 -49h-73l-112 -525h-64l70 331h-384l-70 -331h-64l112 525h-71z" />
    <glyph glyph-name="Hcircumflex" unicode="&#x124;" horiz-adv-x="699" 
d="M466 0l70 331h-384l-70 -331h-64l151 709h64l-68 -319h384l68 319h64l-151 -709h-64zM283 759l134 119h81l85 -119h-53l-78 83l-110 -83h-59z" />
    <glyph glyph-name="Idotaccent" unicode="&#x130;" horiz-adv-x="251" 
d="M18 0l151 709h64l-150 -709h-65zM176 813q0 22 15 38t38 16q19 0 30 -13t11 -30q0 -22 -15 -37.5t-36 -15.5q-20 0 -31.5 12.5t-11.5 29.5z" />
    <glyph glyph-name="Ibreve" unicode="&#x12c;" horiz-adv-x="251" 
d="M18 0l151 709h64l-150 -709h-65zM215 754q-31 0 -54 8.5t-38 23.5t-22.5 34.5t-7.5 41.5q0 8 2 18h49q-1 -4 -1 -10q0 -26 17.5 -46.5t59.5 -20.5q23 0 41 6.5t31.5 17.5t23 24.5t14.5 28.5h51q-7 -24 -21 -46.5t-35 -40t-48.5 -28.5t-61.5 -11z" />
    <glyph glyph-name="Imacron" unicode="&#x12a;" horiz-adv-x="251" 
d="M18 0l151 709h64l-150 -709h-65zM81 793l11 54h266l-11 -54h-266z" />
    <glyph glyph-name="Iogonek" unicode="&#x12e;" horiz-adv-x="251" 
d="M-78 -134q0 23 9 44t23 38t31.5 31t34.5 23h-1l150 707h64l-150 -709q-17 -8 -35.5 -20t-34.5 -27.5t-26.5 -34t-10.5 -39.5q0 -22 14.5 -32.5t36.5 -10.5q18 0 37 4l-10 -42q-10 -4 -20.5 -6t-25.5 -2q-38 0 -62 20.5t-24 55.5z" />
    <glyph glyph-name="Itilde" unicode="&#x128;" horiz-adv-x="251" 
d="M18 0l151 709h64l-150 -709h-65zM384 872q-11 -58 -40 -83.5t-65 -25.5q-35 0 -62 24l-17 15q-11 10 -20.5 14.5t-22.5 4.5q-19 0 -32.5 -13.5t-18.5 -41.5h-47q8 56 38 82t66 26q20 0 36 -7.5t29 -18.5l16 -14q11 -10 19.5 -14.5t21.5 -4.5q40 0 52 57h47v0z" />
    <glyph glyph-name="IJ" unicode="&#x132;" horiz-adv-x="575" 
d="M86 338l79 371h65l-80 -371h-64zM564 709l-110 -519q-20 -94 -73.5 -148.5t-139.5 -54.5q-47 0 -81.5 14t-57 38t-34 57.5t-11.5 72.5q0 15 2 31t5 33l5 24l66 10l-9 -39q-7 -29 -7 -56t7 -50t22.5 -40t39 -27t56.5 -10q58 0 95.5 39.5t51.5 106.5l109 518h64z" />
    <glyph glyph-name="Jcircumflex" unicode="&#x134;" horiz-adv-x="532" 
d="M520 709l-110 -519q-20 -94 -73.5 -148.5t-139.5 -54.5q-52 0 -88.5 17.5t-59 47.5t-30 70t-1.5 85q0 3 1 10t2.5 14.5t2.5 15t2 10.5l2 9l65 10l-5 -20q0 -2 -1.5 -9t-3 -14.5t-2.5 -14t-1 -8.5q-5 -32 -1.5 -61.5t17.5 -52.5t39.5 -37t64.5 -14q58 0 95.5 39.5
t51.5 106.5l109 518h64zM343 759l134 119h81l85 -119h-53l-78 83l-110 -83h-59z" />
    <glyph glyph-name="Kcommaaccent" unicode="&#x136;" horiz-adv-x="637" 
d="M280 355l-151 -133l-47 -222h-64l150 709h64l-83 -392l444 392h90l-356 -313l216 -396h-73zM222 -90q0 19 14 33.5t35 14.5q17 0 31.5 -11.5t14.5 -37.5q0 -29 -11.5 -50t-28.5 -35t-37 -20.5t-38 -6.5h-6l7 30q23 1 44.5 14t28.5 37q-6 -4 -16 -4q-17 0 -27.5 10.5
t-10.5 25.5z" />
    <glyph glyph-name="Lacute" unicode="&#x139;" horiz-adv-x="528" 
d="M18 0l151 709h64l-139 -650h351l-13 -59h-414zM243 759h-64l128 119h87z" />
    <glyph glyph-name="Lcaron" unicode="&#x13d;" horiz-adv-x="528" 
d="M18 0l151 709h64l-139 -650h351l-13 -59h-414zM363 574h-49l76 185h72z" />
    <glyph glyph-name="Lcommaaccent" unicode="&#x13b;" horiz-adv-x="528" 
d="M18 0l151 709h64l-139 -650h351l-13 -59h-414zM177 -90q0 19 14 33.5t35 14.5q17 0 31.5 -11.5t14.5 -37.5q0 -29 -11.5 -50t-28.5 -35t-37 -20.5t-38 -6.5h-6l7 30q23 1 44.5 14t28.5 37q-6 -4 -16 -4q-17 0 -27.5 10.5t-10.5 25.5z" />
    <glyph glyph-name="Ldot" unicode="&#x13f;" horiz-adv-x="528" 
d="M18 0l151 709h64l-139 -650h351l-13 -59h-414zM281 354q0 21 15 37.5t38 16.5q19 0 30 -13t11 -30q0 -22 -15 -37.5t-36 -15.5q-19 0 -31 12.5t-12 29.5z" />
    <glyph glyph-name="Nacute" unicode="&#x143;" horiz-adv-x="713" 
d="M477 0l-263 624l-132 -624h-64l150 709h79l254 -609l130 609h63l-150 -709h-67zM443 759h-64l128 119h87z" />
    <glyph glyph-name="Ncaron" unicode="&#x147;" horiz-adv-x="713" 
d="M477 0l-263 624l-132 -624h-64l150 709h79l254 -609l130 609h63l-150 -709h-67zM611 878l-137 -119h-81l-82 119h52l76 -83l110 83h62z" />
    <glyph glyph-name="Ncommaaccent" unicode="&#x145;" horiz-adv-x="713" 
d="M477 0l-263 624l-132 -624h-64l150 709h79l254 -609l130 609h63l-150 -709h-67z" />
    <glyph glyph-name="Eng" unicode="&#x14a;" horiz-adv-x="713" 
d="M481 -10l-267 634l-132 -624h-64l150 709h79l254 -609l130 609h63l-167 -791q-14 -64 -49.5 -92.5t-86.5 -28.5q-23 0 -39.5 4.5t-25.5 11.5l10 49q10 -5 23 -8t28 -3q34 0 54 18.5t28 60.5z" />
    <glyph glyph-name="Obreve" unicode="&#x14e;" horiz-adv-x="746" 
d="M38 293q0 106 33.5 186.5t87.5 134.5t121 81t133 27q63 0 116.5 -20.5t93.5 -59.5t62.5 -96t22.5 -130q0 -106 -33.5 -186.5t-87.5 -134.5t-121 -81t-133 -27q-63 0 -116.5 20.5t-93.5 59.5t-62.5 96t-22.5 130zM643 411q0 63 -18.5 110.5t-50 79t-74 47.5t-91.5 16
q-60 0 -115 -26t-97.5 -73.5t-68 -115t-25.5 -151.5q0 -63 18.5 -110.5t50 -79t74 -47.5t91.5 -16q60 0 115 26t97.5 73.5t68 115t25.5 151.5zM451 754q-31 0 -54 8.5t-38 23.5t-22.5 34.5t-7.5 41.5q0 8 2 18h49q-1 -4 -1 -10q0 -26 17.5 -46.5t59.5 -20.5q23 0 41 6.5
t31.5 17.5t23 24.5t14.5 28.5h51q-7 -24 -21 -46.5t-35 -40t-48.5 -28.5t-61.5 -11z" />
    <glyph glyph-name="Ohungarumlaut" unicode="&#x150;" horiz-adv-x="746" 
d="M38 293q0 106 33.5 186.5t87.5 134.5t121 81t133 27q63 0 116.5 -20.5t93.5 -59.5t62.5 -96t22.5 -130q0 -106 -33.5 -186.5t-87.5 -134.5t-121 -81t-133 -27q-63 0 -116.5 20.5t-93.5 59.5t-62.5 96t-22.5 130zM643 411q0 63 -18.5 110.5t-50 79t-74 47.5t-91.5 16
q-60 0 -115 -26t-97.5 -73.5t-68 -115t-25.5 -151.5q0 -63 18.5 -110.5t50 -79t74 -47.5t91.5 -16q60 0 115 26t97.5 73.5t68 115t25.5 151.5zM519 759h-49l88 119h72zM395 759h-49l82 119h72z" />
    <glyph glyph-name="Omacron" unicode="&#x14c;" horiz-adv-x="746" 
d="M38 293q0 106 33.5 186.5t87.5 134.5t121 81t133 27q63 0 116.5 -20.5t93.5 -59.5t62.5 -96t22.5 -130q0 -106 -33.5 -186.5t-87.5 -134.5t-121 -81t-133 -27q-63 0 -116.5 20.5t-93.5 59.5t-62.5 96t-22.5 130zM643 411q0 63 -18.5 110.5t-50 79t-74 47.5t-91.5 16
q-60 0 -115 -26t-97.5 -73.5t-68 -115t-25.5 -151.5q0 -63 18.5 -110.5t50 -79t74 -47.5t91.5 -16q60 0 115 26t97.5 73.5t68 115t25.5 151.5zM307 793l11 54h266l-11 -54h-266z" />
    <glyph glyph-name="Oslashacute" unicode="&#x1fe;" horiz-adv-x="746" 
d="M103 298q0 -88 36 -147l440 445q-32 34 -75.5 51t-94.5 17q-60 0 -115 -26t-97.5 -73.5t-68 -115t-25.5 -151.5zM643 411q0 43 -8.5 78t-24.5 64l-439 -444q32 -32 74.5 -48t91.5 -16q60 0 115 26t97.5 73.5t68 115t25.5 151.5zM38 293q0 106 33.5 186.5t87.5 134.5
t121 81t133 27q63 0 117 -20.5t94 -61.5l85 87l38 -36l-90 -91q51 -74 51 -184q0 -106 -33.5 -186.5t-87.5 -134.5t-121 -81t-133 -27q-61 0 -114 19.5t-93 58.5l-80 -81l-37 36l83 83q-26 37 -40 84.5t-14 105.5zM465 759h-64l128 119h87z" />
    <glyph glyph-name="Racute" unicode="&#x154;" horiz-adv-x="601" 
d="M312 365q42 0 78 12t62.5 34.5t41 54t14.5 71.5q0 52 -34 83.5t-100 31.5h-153l-61 -287h152zM303 308h-155l-66 -308h-64l151 709h219q43 0 77.5 -13t58.5 -35.5t36.5 -53.5t12.5 -67q0 -46 -15.5 -84.5t-43 -67.5t-65 -47.5t-82.5 -25.5l120 -315h-68zM379 759h-64
l128 119h87z" />
    <glyph glyph-name="Rcaron" unicode="&#x158;" horiz-adv-x="601" 
d="M312 365q42 0 78 12t62.5 34.5t41 54t14.5 71.5q0 52 -34 83.5t-100 31.5h-153l-61 -287h152zM303 308h-155l-66 -308h-64l151 709h219q43 0 77.5 -13t58.5 -35.5t36.5 -53.5t12.5 -67q0 -46 -15.5 -84.5t-43 -67.5t-65 -47.5t-82.5 -25.5l120 -315h-68zM542 878
l-137 -119h-81l-82 119h52l76 -83l110 83h62z" />
    <glyph glyph-name="Rcommaaccent" unicode="&#x156;" horiz-adv-x="601" 
d="M312 365q42 0 78 12t62.5 34.5t41 54t14.5 71.5q0 52 -34 83.5t-100 31.5h-153l-61 -287h152zM303 308h-155l-66 -308h-64l151 709h219q43 0 77.5 -13t58.5 -35.5t36.5 -53.5t12.5 -67q0 -46 -15.5 -84.5t-43 -67.5t-65 -47.5t-82.5 -25.5l120 -315h-68zM197 -90
q0 19 14 33.5t35 14.5q17 0 31.5 -11.5t14.5 -37.5q0 -29 -11.5 -50t-28.5 -35t-37 -20.5t-38 -6.5h-6l7 30q23 1 44.5 14t28.5 37q-6 -4 -16 -4q-17 0 -27.5 10.5t-10.5 25.5z" />
    <glyph glyph-name="Sacute" unicode="&#x15a;" horiz-adv-x="559" 
d="M250 44q36 0 67 10t53 28.5t34.5 44t12.5 56.5q0 39 -21 69.5t-72 53.5l-103 47q-56 25 -88 66t-32 103q0 45 18.5 81.5t49.5 63t71.5 41t84.5 14.5q59 0 101 -18t68 -46.5t38.5 -63.5t13.5 -70l-61 -12q0 26 -8 53t-27.5 49.5t-51 37t-78.5 14.5q-30 0 -57.5 -10
t-49.5 -27.5t-35 -42.5t-13 -55q0 -43 21 -71.5t62 -46.5l102 -47q133 -60 133 -175q0 -44 -17.5 -81.5t-49 -64.5t-74 -42.5t-93.5 -15.5q-62 0 -108.5 19.5t-76.5 53t-43 79t-7 96.5v2q0 2 1 3l63 11q-1 -3 -1 -7q-5 -39 2.5 -75.5t29 -64t56.5 -44t85 -16.5zM379 759h-64
l128 119h87z" />
    <glyph glyph-name="Scedilla" unicode="&#x15e;" horiz-adv-x="559" 
d="M241 -125q0 17 -15 28t-42 11q-5 0 -12 -1t-14 -3l-16 31l57 49q-49 8 -86 30t-61 54q-49 66 -38 161q0 2 1 5l63 11q-1 -2 -1 -5v-2q-5 -39 2.5 -75.5t29 -64t56.5 -44t85 -16.5q36 0 67 10t53 28.5t34.5 44t12.5 56.5q0 39 -21 69.5t-72 53.5l-103 47q-56 25 -88 66
t-32 103q0 45 18.5 81.5t49.5 63t71.5 41t84.5 14.5q59 0 101 -18t68 -46.5t38.5 -63.5t13.5 -70l-61 -12q0 26 -8 53t-27.5 49.5t-51 37t-78.5 14.5q-30 0 -57.5 -10t-49.5 -27.5t-35 -42.5t-13 -55q0 -43 21 -71.5t62 -46.5l102 -47q133 -60 133 -175q0 -44 -17.5 -81
t-48.5 -64t-73.5 -43t-92.5 -16l-51 -43h9q37 -2 58 -21.5t21 -47.5q0 -38 -30 -61.5t-77 -23.5q-45 0 -75 21t-43 46l37 23q8 -17 27 -34t54 -17q26 0 43 12t17 34z" />
    <glyph glyph-name="Scircumflex" unicode="&#x15c;" horiz-adv-x="559" 
d="M250 44q36 0 67 10t53 28.5t34.5 44t12.5 56.5q0 39 -21 69.5t-72 53.5l-103 47q-56 25 -88 66t-32 103q0 45 18.5 81.5t49.5 63t71.5 41t84.5 14.5q59 0 101 -18t68 -46.5t38.5 -63.5t13.5 -70l-61 -12q0 26 -8 53t-27.5 49.5t-51 37t-78.5 14.5q-30 0 -57.5 -10
t-49.5 -27.5t-35 -42.5t-13 -55q0 -43 21 -71.5t62 -46.5l102 -47q133 -60 133 -175q0 -44 -17.5 -81.5t-49 -64.5t-74 -42.5t-93.5 -15.5q-62 0 -108.5 19.5t-76.5 53t-43 79t-7 96.5v2q0 2 1 3l63 11q-1 -3 -1 -7q-5 -39 2.5 -75.5t29 -64t56.5 -44t85 -16.5zM208 759
l134 119h81l85 -119h-53l-78 83l-110 -83h-59z" />
    <glyph glyph-name="Scommaaccent" unicode="&#x218;" horiz-adv-x="559" 
d="M250 44q36 0 67 10t53 28.5t34.5 44t12.5 56.5q0 39 -21 69.5t-72 53.5l-103 47q-56 25 -88 66t-32 103q0 45 18.5 81.5t49.5 63t71.5 41t84.5 14.5q59 0 101 -18t68 -46.5t38.5 -63.5t13.5 -70l-61 -12q0 26 -8 53t-27.5 49.5t-51 37t-78.5 14.5q-30 0 -57.5 -10
t-49.5 -27.5t-35 -42.5t-13 -55q0 -43 21 -71.5t62 -46.5l102 -47q133 -60 133 -175q0 -44 -17.5 -81.5t-49 -64.5t-74 -42.5t-93.5 -15.5q-62 0 -108.5 19.5t-76.5 53t-43 79t-7 96.5v2q0 2 1 3l63 11q-1 -3 -1 -7q-5 -39 2.5 -75.5t29 -64t56.5 -44t85 -16.5zM151 -90
q0 19 14 33.5t35 14.5q17 0 31.5 -11.5t14.5 -37.5q0 -29 -11.5 -50t-28.5 -35t-37 -20.5t-38 -6.5h-6l7 30q23 1 44.5 14t28.5 37q-6 -4 -16 -4q-17 0 -27.5 10.5t-10.5 25.5z" />
    <glyph glyph-name="Tcaron" unicode="&#x164;" horiz-adv-x="555" 
d="M373 651l-138 -651h-64l139 651h-242l12 58h544l-13 -58h-238zM540 878l-137 -119h-81l-82 119h52l76 -83l110 83h62z" />
    <glyph glyph-name="Tcommaaccent" unicode="&#x162;" horiz-adv-x="555" 
d="M373 651l-138 -651h-64l139 651h-242l12 58h544l-13 -58h-238zM136 -90q0 19 14 33.5t35 14.5q17 0 31.5 -11.5t14.5 -37.5q0 -29 -11.5 -50t-28.5 -35t-37 -20.5t-38 -6.5h-6l7 30q23 1 44.5 14t28.5 37q-6 -4 -16 -4q-17 0 -27.5 10.5t-10.5 25.5z" />
    <glyph glyph-name="Tbar" unicode="&#x166;" horiz-adv-x="555" 
d="M374 651l-59 -280h126l-11 -53h-127l-67 -318h-64l67 318h-120l11 53h121l60 280h-242l12 58h544l-13 -58h-238z" />
    <glyph glyph-name="Tcedilla" horiz-adv-x="555" 
d="M144 -210q-45 0 -75 20.5t-42 46.5l36 23q8 -17 27 -34t55 -17q26 0 42.5 12t16.5 34q0 17 -14.5 28t-42.5 11q-13 0 -26 -4l-16 31l65 56l140 654h-242l12 58h544l-13 -58h-238l-138 -651l-6 -1l-66 -56q3 1 9 1q38 -2 58.5 -21.5t20.5 -47.5q0 -38 -30 -61.5t-77 -23.5
z" />
    <glyph glyph-name="Ubreve" unicode="&#x16c;" horiz-adv-x="646" 
d="M638 709l-106 -499q-23 -109 -89.5 -166t-166.5 -57q-105 0 -163 55t-58 152q0 17 1.5 36t6.5 39l94 440h62l-93 -446q-3 -17 -5 -32.5t-2 -30.5q0 -68 39 -111t122 -43q77 0 125 45t65 127l104 491h64zM401 754q-31 0 -54 8.5t-38 23.5t-22.5 34.5t-7.5 41.5q0 8 2 18
h49q-1 -4 -1 -10q0 -26 17.5 -46.5t59.5 -20.5q23 0 41 6.5t31.5 17.5t23 24.5t14.5 28.5h51q-7 -24 -21 -46.5t-35 -40t-48.5 -28.5t-61.5 -11z" />
    <glyph glyph-name="Uhungarumlaut" unicode="&#x170;" horiz-adv-x="646" 
d="M638 709l-106 -499q-23 -109 -89.5 -166t-166.5 -57q-105 0 -163 55t-58 152q0 17 1.5 36t6.5 39l94 440h62l-93 -446q-3 -17 -5 -32.5t-2 -30.5q0 -68 39 -111t122 -43q77 0 125 45t65 127l104 491h64zM476 759h-49l88 119h72zM352 759h-49l82 119h72z" />
    <glyph glyph-name="Umacron" unicode="&#x16a;" horiz-adv-x="646" 
d="M638 709l-106 -499q-23 -109 -89.5 -166t-166.5 -57q-105 0 -163 55t-58 152q0 17 1.5 36t6.5 39l94 440h62l-93 -446q-3 -17 -5 -32.5t-2 -30.5q0 -68 39 -111t122 -43q77 0 125 45t65 127l104 491h64zM278 793l11 54h266l-11 -54h-266z" />
    <glyph glyph-name="Uogonek" unicode="&#x172;" horiz-adv-x="646" 
d="M175 -134q0 40 23 71t52 51q-93 7 -144 61t-51 145q0 17 1.5 36t6.5 39l94 440h62l-93 -446q-3 -17 -5 -32.5t-2 -30.5q0 -68 39 -111t122 -43q77 0 125 45t65 127l104 491h64l-106 -499q-20 -93 -70.5 -147t-127.5 -70q-18 -4 -37 -15t-34.5 -26.5t-25 -34.5t-9.5 -38
q0 -22 15 -32.5t37 -10.5q19 0 36 4l-9 -42q-11 -4 -21 -6t-25 -2q-38 0 -62 20.5t-24 55.5z" />
    <glyph glyph-name="Uring" unicode="&#x16e;" horiz-adv-x="646" 
d="M638 709l-106 -499q-23 -109 -89.5 -166t-166.5 -57q-105 0 -163 55t-58 152q0 17 1.5 36t6.5 39l94 440h62l-93 -446q-3 -17 -5 -32.5t-2 -30.5q0 -68 39 -111t122 -43q77 0 125 45t65 127l104 491h64zM312 836q0 24 9.5 44.5t25 35.5t35.5 23t41 8q41 0 66.5 -26.5
t25.5 -64.5q0 -22 -9 -42t-24 -35.5t-35 -24.5t-42 -9q-20 0 -37 7t-29.5 19.5t-19.5 29t-7 35.5zM420 905q-28 0 -46 -19.5t-18 -45.5q0 -23 14 -37.5t37 -14.5q26 0 45.5 18.5t19.5 46.5q0 22 -14.5 37t-37.5 15z" />
    <glyph glyph-name="Utilde" unicode="&#x168;" horiz-adv-x="646" 
d="M638 709l-106 -499q-23 -109 -89.5 -166t-166.5 -57q-105 0 -163 55t-58 152q0 17 1.5 36t6.5 39l94 440h62l-93 -446q-3 -17 -5 -32.5t-2 -30.5q0 -68 39 -111t122 -43q77 0 125 45t65 127l104 491h64zM577 872q-11 -58 -40 -83.5t-65 -25.5q-35 0 -62 24l-17 15
q-11 10 -20.5 14.5t-22.5 4.5q-19 0 -32.5 -13.5t-18.5 -41.5h-47q8 56 38 82t66 26q20 0 36 -7.5t29 -18.5l16 -14q11 -10 19.5 -14.5t21.5 -4.5q40 0 52 57h47v0z" />
    <glyph glyph-name="Wacute" unicode="&#x1e82;" horiz-adv-x="951" 
d="M579 709l70 -617l290 617h66l-337 -709h-68l-71 622l-311 -622h-69l-56 709h63l45 -614l308 614h70zM570 759h-64l128 119h87z" />
    <glyph glyph-name="Wcircumflex" unicode="&#x174;" horiz-adv-x="951" 
d="M579 709l70 -617l290 617h66l-337 -709h-68l-71 622l-311 -622h-69l-56 709h63l45 -614l308 614h70zM409 759l134 119h81l85 -119h-53l-78 83l-110 -83h-59z" />
    <glyph glyph-name="Wdieresis" unicode="&#x1e84;" horiz-adv-x="951" 
d="M659 814q0 21 14 35t34 14q17 0 27.5 -12t10.5 -27q0 -21 -14 -34.5t-34 -13.5q-17 0 -27.5 11t-10.5 27zM351 814q0 21 14 35t35 14q17 0 27 -12t10 -27q0 -21 -14 -34.5t-34 -13.5q-17 0 -27.5 11t-10.5 27zM579 709l70 -617l290 617h66l-337 -709h-68l-71 622
l-311 -622h-69l-56 709h63l45 -614l308 614h70z" />
    <glyph glyph-name="Wgrave" unicode="&#x1e80;" horiz-adv-x="951" 
d="M579 709l70 -617l290 617h66l-337 -709h-68l-71 622l-311 -622h-69l-56 709h63l45 -614l308 614h70zM423 878h78l83 -119h-57z" />
    <glyph glyph-name="uni1E8A" unicode="&#x1e8a;" horiz-adv-x="618" 
d="M33 0h-79l315 356l-162 353h70l135 -303l269 303h79l-320 -357l161 -352h-70l-136 302zM324 813q0 22 15 38t38 16q19 0 30 -13t11 -30q0 -22 -15 -37.5t-36 -15.5q-20 0 -31.5 12.5t-11.5 29.5z" />
    <glyph glyph-name="Ycircumflex" unicode="&#x176;" horiz-adv-x="584" 
d="M95 709h67l132 -341l257 341h75l-313 -404l-64 -305h-63l66 311zM215 759l134 119h81l85 -119h-53l-78 83l-110 -83h-59z" />
    <glyph glyph-name="Ygrave" unicode="&#x1ef2;" horiz-adv-x="584" 
d="M95 709h67l132 -341l257 341h75l-313 -404l-64 -305h-63l66 311zM238 878h78l83 -119h-57z" />
    <glyph glyph-name="Zacute" unicode="&#x179;" horiz-adv-x="621" 
d="M-27 0l14 64l573 587h-438l12 58h517l-14 -63l-574 -587h441l-12 -59h-519zM394 759h-64l128 119h87z" />
    <glyph glyph-name="Zdotaccent" unicode="&#x17b;" horiz-adv-x="621" 
d="M-27 0l14 64l573 587h-438l12 58h517l-14 -63l-574 -587h441l-12 -59h-519zM356 813q0 22 15 38t38 16q19 0 30 -13t11 -30q0 -22 -15 -37.5t-36 -15.5q-20 0 -31.5 12.5t-11.5 29.5z" />
    <glyph glyph-name="uni01B5" unicode="&#x1b5;" horiz-adv-x="632" 
d="M-21 0l14 64l272 279h-158l11 55h200l248 253h-438l12 58h517l-14 -63l-243 -248h163l-11 -55h-205l-278 -284h441l-12 -59h-519z" />
    <glyph glyph-name="uni018F" unicode="&#x18f;" horiz-adv-x="768" 
d="M416 722q65 0 122.5 -21.5t100 -61.5t67 -97.5t24.5 -129.5q0 -105 -34 -184.5t-88.5 -133.5t-123.5 -81t-138 -27q-63 0 -119 21.5t-98 61.5t-66.5 97t-24.5 128q0 31 6 66h619q1 11 1.5 23t0.5 25q0 61 -20 109t-54 80t-80.5 49t-98.5 17q-41 0 -81 -11t-75.5 -32
t-65 -51.5t-48.5 -68.5l-51 26q24 46 59 82t77.5 61.5t90.5 39t98 13.5zM350 44q49 0 97 16.5t89 49t71.5 81t45.5 112.5h-553q-1 -3 -1 -10q0 -57 20 -103.5t54 -78.5t79.5 -49.5t97.5 -17.5z" />
    <glyph glyph-name="abreve" unicode="&#x103;" horiz-adv-x="555" 
d="M260 436q-40 0 -74 -19t-59 -52t-39.5 -76t-14.5 -91q0 -33 8.5 -62t26 -50t43 -33t59.5 -12q35 0 65.5 15.5t54 43t39.5 65.5t21 82q5 20 5 37q0 33 -8.5 60.5t-25.5 48t-42.5 32t-58.5 11.5zM502 477l-74 -345q-6 -31 -8 -57t-2 -42v-19.5t1 -13.5h-57q-1 6 -1.5 14
t-0.5 20q0 10 0.5 20.5t2.5 24.5q-12 -17 -28.5 -33t-37 -28.5t-45.5 -20.5t-53 -8q-45 0 -79.5 16.5t-58.5 44t-36 65t-12 79.5q0 62 19 116t52.5 93.5t78.5 62.5t96 23q40 0 68.5 -11.5t47.5 -28t29.5 -36t15.5 -35.5l21 99h61zM294 538q-29 0 -50.5 9t-36 24t-21.5 34.5
t-7 41.5q0 8 1 15.5t3 13.5h45q-2 -5 -2 -9v-8q0 -27 17 -48.5t58 -21.5q24 0 42.5 8t32.5 20.5t23 28t14 30.5h49q-6 -26 -19.5 -50.5t-35 -44t-50 -31.5t-63.5 -12z" />
    <glyph glyph-name="amacron" unicode="&#x101;" horiz-adv-x="555" 
d="M260 436q-40 0 -74 -19t-59 -52t-39.5 -76t-14.5 -91q0 -33 8.5 -62t26 -50t43 -33t59.5 -12q35 0 65.5 15.5t54 43t39.5 65.5t21 82q5 20 5 37q0 33 -8.5 60.5t-25.5 48t-42.5 32t-58.5 11.5zM502 477l-74 -345q-6 -31 -8 -57t-2 -42v-19.5t1 -13.5h-57q-1 6 -1.5 14
t-0.5 20q0 10 0.5 20.5t2.5 24.5q-12 -17 -28.5 -33t-37 -28.5t-45.5 -20.5t-53 -8q-45 0 -79.5 16.5t-58.5 44t-36 65t-12 79.5q0 62 19 116t52.5 93.5t78.5 62.5t96 23q40 0 68.5 -11.5t47.5 -28t29.5 -36t15.5 -35.5l21 99h61zM182 581l11 53h254l-11 -53h-254z" />
    <glyph glyph-name="aogonek" unicode="&#x105;" horiz-adv-x="555" 
d="M259 -134q0 24 9.5 45.5t24 39t32.5 31t36 22.5q-1 8 -1 15v15v21.5t2 23.5q-12 -17 -28 -33t-36.5 -28.5t-45.5 -20.5t-53 -8q-45 0 -79.5 16.5t-58.5 44t-36 65t-12 79.5q0 62 19 116t52.5 93.5t78.5 62.5t96 23q40 0 68.5 -11.5t47.5 -28t29.5 -36t15.5 -35.5l21 99
h61l-74 -345q-6 -31 -8 -57.5t-2 -41.5v-22t1 -11q-17 -8 -35.5 -20t-34.5 -27.5t-26.5 -34t-10.5 -39.5q0 -22 15 -32.5t37 -10.5q17 0 36 4l-10 -42q-10 -4 -20.5 -6t-25.5 -2q-38 0 -61.5 20.5t-23.5 55.5zM260 436q-40 0 -74 -19t-59 -52t-39.5 -76t-14.5 -91
q0 -33 8.5 -62t26 -50t43 -33t59.5 -12q35 0 65.5 15.5t54 43t39.5 65.5t21 82q5 20 5 37q0 33 -8.5 60.5t-25.5 48t-42.5 32t-58.5 11.5z" />
    <glyph glyph-name="aringacute" unicode="&#x1fb;" horiz-adv-x="555" 
d="M369 775h-53l120 136h83zM325 738q42 0 68.5 -27t26.5 -67q0 -23 -9.5 -44t-25 -37t-36.5 -25t-44 -9q-42 0 -69 27t-27 66q0 25 10 46.5t26 37t37 24t43 8.5zM253 627q0 -23 15 -39t40 -16q26 0 46.5 20t20.5 49q0 23 -14.5 38.5t-40.5 15.5q-28 0 -47.5 -20t-19.5 -48z
M260 436q-40 0 -74 -19t-59 -52t-39.5 -76t-14.5 -91q0 -33 8.5 -62t26 -50t43 -33t59.5 -12q35 0 65.5 15.5t54 43t39.5 65.5t21 82q5 20 5 37q0 33 -8.5 60.5t-25.5 48t-42.5 32t-58.5 11.5zM502 477l-74 -345q-6 -31 -8 -57t-2 -42v-19.5t1 -13.5h-57q-1 6 -1.5 14
t-0.5 20q0 10 0.5 20.5t2.5 24.5q-12 -17 -28.5 -33t-37 -28.5t-45.5 -20.5t-53 -8q-45 0 -79.5 16.5t-58.5 44t-36 65t-12 79.5q0 62 19 116t52.5 93.5t78.5 62.5t96 23q40 0 68.5 -11.5t47.5 -28t29.5 -36t15.5 -35.5l21 99h61z" />
    <glyph glyph-name="aeacute" unicode="&#x1fd;" horiz-adv-x="862" 
d="M316 272q35 2 46.5 21t11.5 45q0 41 -30 69t-90 28q-50 0 -87 -27t-52 -73l-53 17q10 31 29.5 56.5t45.5 42.5t57 26.5t65 9.5q68 0 107.5 -27t53.5 -67q36 47 86 72t103 25q48 0 84.5 -15t61 -41t37 -61.5t12.5 -76.5q0 -20 -3 -38t-6 -32h-379q-2 -8 -2 -15v-15
q0 -35 11 -64t31 -49.5t47.5 -31.5t59.5 -11q57 0 98 30t63 69l47 -30q-29 -52 -83.5 -87.5t-126.5 -35.5q-67 0 -118.5 33.5t-72.5 95.5q-2 -4 -3.5 -8t-3.5 -9q-26 -45 -75 -78t-117 -33q-41 0 -71 10.5t-50.5 28t-30.5 41t-10 49.5q0 35 13.5 62t36.5 46t54 29t66 12z
M606 436q-34 0 -63.5 -13t-52.5 -34.5t-39.5 -50.5t-25.5 -61h315q0 5 0.5 10.5t0.5 11.5q0 27 -8 52t-24.5 44t-42 30t-60.5 11zM71 120q0 -20 9 -35t23.5 -25.5t33.5 -16t39 -5.5q48 0 88 28t57 74q4 4 9.5 16t11 27t9.5 30t5 23q-2 -3 -9.5 -5t-17.5 -3.5t-19.5 -3
t-16.5 -1.5l-116 -5q-21 -1 -40 -7.5t-33.5 -19t-23.5 -30t-9 -41.5zM462 537h-55l124 140h86z" />
    <glyph glyph-name="cacute" unicode="&#x107;" horiz-adv-x="512" 
d="M408 322q-11 48 -46 81t-95 33q-36 0 -71 -16t-62.5 -46t-44 -73.5t-16.5 -97.5q0 -36 11 -66t31 -51.5t48 -33t63 -11.5q59 0 99 33t63 79l50 -24q-15 -30 -36 -56t-48.5 -45t-60.5 -30t-71 -11q-48 0 -87 16.5t-66.5 45t-42.5 68t-15 85.5q0 63 21.5 116t57.5 91.5
t83 59.5t98 21q45 0 78.5 -13t56.5 -34t37 -47.5t20 -53.5zM301 537h-55l124 140h86z" />
    <glyph glyph-name="ccaron" unicode="&#x10d;" horiz-adv-x="512" 
d="M408 322q-11 48 -46 81t-95 33q-36 0 -71 -16t-62.5 -46t-44 -73.5t-16.5 -97.5q0 -36 11 -66t31 -51.5t48 -33t63 -11.5q59 0 99 33t63 79l50 -24q-15 -30 -36 -56t-48.5 -45t-60.5 -30t-71 -11q-48 0 -87 16.5t-66.5 45t-42.5 68t-15 85.5q0 63 21.5 116t57.5 91.5
t83 59.5t98 21q45 0 78.5 -13t56.5 -34t37 -47.5t20 -53.5zM477 676l-137 -138h-78l-77 138h51l71 -99l112 99h58z" />
    <glyph glyph-name="ccircumflex" unicode="&#x109;" horiz-adv-x="512" 
d="M408 322q-11 48 -46 81t-95 33q-36 0 -71 -16t-62.5 -46t-44 -73.5t-16.5 -97.5q0 -36 11 -66t31 -51.5t48 -33t63 -11.5q59 0 99 33t63 79l50 -24q-15 -30 -36 -56t-48.5 -45t-60.5 -30t-71 -11q-48 0 -87 16.5t-66.5 45t-42.5 68t-15 85.5q0 63 21.5 116t57.5 91.5
t83 59.5t98 21q45 0 78.5 -13t56.5 -34t37 -47.5t20 -53.5zM141 538l137 137h78l77 -137h-51l-71 99l-111 -99h-59z" />
    <glyph glyph-name="cdotaccent" unicode="&#x10b;" horiz-adv-x="512" 
d="M408 322q-11 48 -46 81t-95 33q-36 0 -71 -16t-62.5 -46t-44 -73.5t-16.5 -97.5q0 -36 11 -66t31 -51.5t48 -33t63 -11.5q59 0 99 33t63 79l50 -24q-15 -30 -36 -56t-48.5 -45t-60.5 -30t-71 -11q-48 0 -87 16.5t-66.5 45t-42.5 68t-15 85.5q0 63 21.5 116t57.5 91.5
t83 59.5t98 21q45 0 78.5 -13t56.5 -34t37 -47.5t20 -53.5zM251 601q0 21 15 37.5t38 16.5q19 0 30 -13t11 -30q0 -22 -15 -37.5t-36 -15.5q-19 0 -31 12.5t-12 29.5z" />
    <glyph glyph-name="dcaron" unicode="&#x10f;" horiz-adv-x="604" 
d="M260 436q-40 0 -74 -19.5t-59 -52.5t-39.5 -76t-14.5 -91q0 -33 9 -61.5t26.5 -49t42.5 -32.5t58 -12q42 0 76.5 21t59 55.5t37.5 77.5t13 88q0 33 -8.5 60.5t-25.5 48t-42.5 32t-58.5 11.5zM361 79q-11 -17 -27 -33t-36.5 -28.5t-45.5 -20.5t-53 -8q-45 0 -79.5 15.5
t-58 43.5t-36 65t-12.5 81q0 61 19 115t52.5 94t78.5 63t96 23q40 0 68 -11.5t47 -28t29.5 -36t15.5 -35.5l73 344h60l-125 -590q-6 -31 -8.5 -55.5t-2.5 -40.5q0 -14 0.5 -21t1.5 -15h-58q-1 6 -1.5 14t-0.5 20q0 10 0.5 20.5t2.5 24.5zM614 542h-48l75 180h69z" />
    <glyph glyph-name="dcroat" unicode="&#x111;" horiz-adv-x="566" 
d="M260 436q-40 0 -74 -19.5t-59 -52.5t-39.5 -76t-14.5 -91q0 -33 9 -61.5t26.5 -49t42.5 -32.5t58 -12q42 0 76.5 21t59 55.5t37.5 77.5t13 88q0 33 -8.5 60.5t-25.5 48t-42.5 32t-58.5 11.5zM199 -11q-45 0 -79.5 15.5t-58 43.5t-36 65t-12.5 81q0 61 19 115t52.5 94
t78.5 63t96 23q40 0 68 -11.5t47 -28t29.5 -36t15.5 -35.5l40 190h-130l11 50h130l22 104h60l-23 -104h96l-10 -50h-96l-92 -436q-6 -31 -8.5 -55.5t-2.5 -40.5v-21t1 -15h-58q-1 6 -1.5 14t-0.5 20q0 11 1 21t3 24q-11 -17 -27 -33t-36.5 -28.5t-45.5 -20.5t-53 -8z" />
    <glyph glyph-name="ebreve" unicode="&#x115;" horiz-adv-x="521" 
d="M75 226q-1 -8 -1.5 -15t-0.5 -15q0 -35 11.5 -64t31.5 -49t47 -31t59 -11q58 0 99 30t63 69l46 -31q-29 -52 -83 -87t-126 -35q-44 0 -82 14t-66 41t-44 66.5t-16 90.5q0 67 22 120.5t58 91.5t81.5 58.5t93.5 20.5t84.5 -15t61 -41t36.5 -61.5t12 -76.5q0 -20 -2.5 -38
t-6.5 -32h-378zM399 277q1 5 1.5 10.5t0.5 11.5q0 27 -8 52t-24.5 44t-42 30t-60.5 11q-34 0 -63.5 -13t-53 -34.5t-40 -50.5t-24.5 -61h314zM300 538q-29 0 -50.5 9t-36 24t-21.5 34.5t-7 41.5q0 8 1 15.5t3 13.5h45q-2 -5 -2 -9v-8q0 -27 17 -48.5t58 -21.5q24 0 42.5 8
t32.5 20.5t23 28t14 30.5h49q-6 -26 -19.5 -50.5t-35 -44t-50 -31.5t-63.5 -12z" />
    <glyph glyph-name="ecaron" unicode="&#x11b;" horiz-adv-x="521" 
d="M75 226q-1 -8 -1.5 -15t-0.5 -15q0 -35 11.5 -64t31.5 -49t47 -31t59 -11q58 0 99 30t63 69l46 -31q-29 -52 -83 -87t-126 -35q-44 0 -82 14t-66 41t-44 66.5t-16 90.5q0 67 22 120.5t58 91.5t81.5 58.5t93.5 20.5t84.5 -15t61 -41t36.5 -61.5t12 -76.5q0 -20 -2.5 -38
t-6.5 -32h-378zM399 277q1 5 1.5 10.5t0.5 11.5q0 27 -8 52t-24.5 44t-42 30t-60.5 11q-34 0 -63.5 -13t-53 -34.5t-40 -50.5t-24.5 -61h314zM462 676l-137 -138h-78l-77 138h51l71 -99l112 99h58z" />
    <glyph glyph-name="edotaccent" unicode="&#x117;" horiz-adv-x="521" 
d="M75 226q-1 -8 -1.5 -15t-0.5 -15q0 -35 11.5 -64t31.5 -49t47 -31t59 -11q58 0 99 30t63 69l46 -31q-29 -52 -83 -87t-126 -35q-44 0 -82 14t-66 41t-44 66.5t-16 90.5q0 67 22 120.5t58 91.5t81.5 58.5t93.5 20.5t84.5 -15t61 -41t36.5 -61.5t12 -76.5q0 -20 -2.5 -38
t-6.5 -32h-378zM399 277q1 5 1.5 10.5t0.5 11.5q0 27 -8 52t-24.5 44t-42 30t-60.5 11q-34 0 -63.5 -13t-53 -34.5t-40 -50.5t-24.5 -61h314zM252 601q0 21 15 37.5t38 16.5q19 0 30 -13t11 -30q0 -22 -15 -37.5t-36 -15.5q-19 0 -31 12.5t-12 29.5z" />
    <glyph glyph-name="emacron" unicode="&#x113;" horiz-adv-x="521" 
d="M75 226q-1 -8 -1.5 -15t-0.5 -15q0 -35 11.5 -64t31.5 -49t47 -31t59 -11q58 0 99 30t63 69l46 -31q-29 -52 -83 -87t-126 -35q-44 0 -82 14t-66 41t-44 66.5t-16 90.5q0 67 22 120.5t58 91.5t81.5 58.5t93.5 20.5t84.5 -15t61 -41t36.5 -61.5t12 -76.5q0 -20 -2.5 -38
t-6.5 -32h-378zM399 277q1 5 1.5 10.5t0.5 11.5q0 27 -8 52t-24.5 44t-42 30t-60.5 11q-34 0 -63.5 -13t-53 -34.5t-40 -50.5t-24.5 -61h314zM177 581l11 53h254l-11 -53h-254z" />
    <glyph glyph-name="eogonek" unicode="&#x119;" horiz-adv-x="521" 
d="M119 -134q0 39 22.5 71t53.5 51q-39 4 -72.5 20t-57.5 43t-38 64t-14 84q0 67 22 120.5t58 91.5t81.5 58.5t93.5 20.5t84.5 -15t61 -41t36.5 -61.5t12 -76.5q0 -20 -2.5 -38t-6.5 -32h-378q-1 -8 -1.5 -15t-0.5 -15q0 -35 11.5 -64t31.5 -49t47 -31t59 -11q58 0 99 30
t63 69l46 -31q-23 -42 -63.5 -72.5t-92.5 -43.5q-17 -4 -34.5 -15t-32.5 -26.5t-24.5 -34t-9.5 -38.5q0 -22 14.5 -32.5t36.5 -10.5q17 0 36 4l-10 -42q-10 -4 -20.5 -6t-25.5 -2q-38 0 -61.5 20.5t-23.5 55.5zM399 277q1 5 1.5 10.5t0.5 11.5q0 27 -8 52t-24.5 44t-42 30
t-60.5 11t-64.5 -13t-52.5 -34.5t-39.5 -50.5t-24.5 -61h314z" />
    <glyph glyph-name="gbreve" unicode="&#x11f;" horiz-adv-x="546" 
d="M220 78q40 0 73 18t56 48t35.5 68t12.5 79q0 27 -8.5 53t-25.5 46t-43 32t-61 12q-36 0 -69 -15.5t-57.5 -43t-39 -66t-14.5 -83.5q0 -64 35 -106t106 -42zM163 -203q-47 0 -83.5 14t-62 37.5t-39.5 55.5t-14 68l58 13v-2q0 -28 9.5 -52t27.5 -42t44.5 -28.5t61.5 -10.5
q42 0 72 14t51 38t34 55.5t21 67.5l16 79q-19 -30 -57 -54t-93 -24q-45 0 -80.5 15t-60 41.5t-37.5 62.5t-13 78q0 56 19 104.5t51.5 84t76 56t93.5 20.5q36 0 63 -9t46.5 -24t32 -34t18.5 -38l20 94h61l-94 -451q-9 -40 -25 -81t-44 -74t-70.5 -53.5t-102.5 -20.5zM303 538
q-29 0 -50.5 9t-36 24t-21.5 34.5t-7 41.5q0 8 1 15.5t3 13.5h45q-2 -5 -2 -9v-8q0 -27 17 -48.5t58 -21.5q24 0 42.5 8t32.5 20.5t23 28t14 30.5h49q-6 -26 -19.5 -50.5t-35 -44t-50 -31.5t-63.5 -12z" />
    <glyph glyph-name="gcircumflex" unicode="&#x11d;" horiz-adv-x="546" 
d="M220 78q40 0 73 18t56 48t35.5 68t12.5 79q0 27 -8.5 53t-25.5 46t-43 32t-61 12q-36 0 -69 -15.5t-57.5 -43t-39 -66t-14.5 -83.5q0 -64 35 -106t106 -42zM163 -203q-47 0 -83.5 14t-62 37.5t-39.5 55.5t-14 68l58 13v-2q0 -28 9.5 -52t27.5 -42t44.5 -28.5t61.5 -10.5
q42 0 72 14t51 38t34 55.5t21 67.5l16 79q-19 -30 -57 -54t-93 -24q-45 0 -80.5 15t-60 41.5t-37.5 62.5t-13 78q0 56 19 104.5t51.5 84t76 56t93.5 20.5q36 0 63 -9t46.5 -24t32 -34t18.5 -38l20 94h61l-94 -451q-9 -40 -25 -81t-44 -74t-70.5 -53.5t-102.5 -20.5zM151 538
l137 137h78l77 -137h-51l-71 99l-111 -99h-59z" />
    <glyph glyph-name="gcommaaccent" unicode="&#x123;" horiz-adv-x="546" 
d="M220 78q40 0 73 18t56 48t35.5 68t12.5 79q0 27 -8.5 53t-25.5 46t-43 32t-61 12q-36 0 -69 -15.5t-57.5 -43t-39 -66t-14.5 -83.5q0 -64 35 -106t106 -42zM163 -203q-47 0 -83.5 14t-62 37.5t-39.5 55.5t-14 68l58 13v-2q0 -28 9.5 -52t27.5 -42t44.5 -28.5t61.5 -10.5
q42 0 72 14t51 38t34 55.5t21 67.5l16 79q-19 -30 -57 -54t-93 -24q-45 0 -80.5 15t-60 41.5t-37.5 62.5t-13 78q0 56 19 104.5t51.5 84t76 56t93.5 20.5q36 0 63 -9t46.5 -24t32 -34t18.5 -38l20 94h61l-94 -451q-9 -40 -25 -81t-44 -74t-70.5 -53.5t-102.5 -20.5zM344 582
q0 -20 -13 -34.5t-35 -14.5q-16 0 -31 12t-15 35q0 30 12 51.5t29.5 35.5t38 20.5t38.5 6.5h2q-2 -6 -2.5 -11t-1.5 -10l-2 -10h-2q-24 0 -45 -14t-26 -37q8 4 16 4q17 0 27 -10t10 -24z" />
    <glyph glyph-name="gdotaccent" unicode="&#x121;" horiz-adv-x="546" 
d="M220 78q40 0 73 18t56 48t35.5 68t12.5 79q0 27 -8.5 53t-25.5 46t-43 32t-61 12q-36 0 -69 -15.5t-57.5 -43t-39 -66t-14.5 -83.5q0 -64 35 -106t106 -42zM163 -203q-47 0 -83.5 14t-62 37.5t-39.5 55.5t-14 68l58 13v-2q0 -28 9.5 -52t27.5 -42t44.5 -28.5t61.5 -10.5
q42 0 72 14t51 38t34 55.5t21 67.5l16 79q-19 -30 -57 -54t-93 -24q-45 0 -80.5 15t-60 41.5t-37.5 62.5t-13 78q0 56 19 104.5t51.5 84t76 56t93.5 20.5q36 0 63 -9t46.5 -24t32 -34t18.5 -38l20 94h61l-94 -451q-9 -40 -25 -81t-44 -74t-70.5 -53.5t-102.5 -20.5zM269 601
q0 21 15 37.5t38 16.5q19 0 30 -13t11 -30q0 -22 -15 -37.5t-36 -15.5q-19 0 -31 12.5t-12 29.5z" />
    <glyph glyph-name="hbar" unicode="&#x127;" horiz-adv-x="531" 
d="M325 0l61 293q2 9 3 18.5t1 18.5q0 46 -25.5 76t-82.5 30q-29 0 -53.5 -12t-44.5 -33t-34 -48.5t-21 -58.5l-60 -284h-61l121 569h-88l11 52h88l21 101h61l-22 -101h137l-11 -52h-137l-33 -155q22 31 60 53t88 22q37 0 65 -11t46.5 -30.5t28 -46t9.5 -57.5
q0 -11 -1.5 -22t-3.5 -23l-62 -299h-61z" />
    <glyph glyph-name="hcircumflex" unicode="&#x125;" horiz-adv-x="531" 
d="M325 0l61 293q2 9 3 18.5t1 18.5q0 46 -25.5 76t-82.5 30q-29 0 -53.5 -12t-44.5 -33t-34 -48.5t-21 -58.5l-60 -284h-61l153 722h61l-66 -308q22 31 60 53t88 22q37 0 65 -11t46.5 -30.5t28 -46t9.5 -57.5q0 -11 -1.5 -22t-3.5 -23l-62 -299h-61zM200 763l134 119h81
l85 -119h-53l-78 83l-110 -83h-59z" />
    <glyph glyph-name="ibreve" unicode="&#x12d;" horiz-adv-x="228" 
d="M8 0l102 477h60l-101 -477h-61zM149 538q-29 0 -50.5 9t-36 24t-21.5 34.5t-7 41.5q0 8 1 15.5t3 13.5h45q-2 -5 -2 -9v-8q0 -27 17 -48.5t58 -21.5q24 0 42.5 8t32.5 20.5t23 28t14 30.5h49q-6 -26 -19.5 -50.5t-35 -44t-50 -31.5t-63.5 -12z" />
    <glyph glyph-name="imacron" unicode="&#x12b;" horiz-adv-x="228" 
d="M8 0l102 477h60l-101 -477h-61zM33 581l11 53h254l-11 -53h-254z" />
    <glyph glyph-name="iogonek" unicode="&#x12f;" horiz-adv-x="228" 
d="M131 670q0 23 16.5 39.5t38.5 16.5q20 0 32 -13t12 -33q0 -22 -16 -38t-38 -16q-20 0 -32.5 12.5t-12.5 31.5zM-38 -121q0 -22 14.5 -32.5t36.5 -10.5q19 0 36 4l-9 -42q-11 -4 -21 -6t-25 -2q-38 0 -62 20.5t-24 55.5q0 24 9 45t23.5 38.5t32.5 31t36 22.5l101 474h60
l-101 -477q-17 -8 -35.5 -20t-34.5 -27.5t-26.5 -34t-10.5 -39.5z" />
    <glyph glyph-name="itilde" unicode="&#x129;" horiz-adv-x="228" 
d="M8 0l102 477h60l-101 -477h-61zM-3 553q8 57 37.5 82.5t66.5 25.5q21 0 36.5 -7t27.5 -18l16 -15q11 -8 20 -13t21 -5q41 0 52 56h48q-11 -57 -39.5 -82.5t-64.5 -25.5q-19 0 -34 6.5t-27 17.5l-17 15q-11 10 -20.5 14.5t-23.5 4.5q-40 0 -51 -56h-48z" />
    <glyph glyph-name="idotaccent" horiz-adv-x="228" 
d="M131 670q0 23 16.5 39.5t38.5 16.5q20 0 32 -13t12 -33q0 -22 -16 -38t-38 -16q-20 0 -32.5 12.5t-12.5 31.5zM8 0l102 477h60l-101 -477h-61z" />
    <glyph glyph-name="ij" unicode="&#x133;" horiz-adv-x="453" 
d="M356 670q0 23 16.5 39.5t38.5 16.5q20 0 32 -13t12 -33q0 -22 -16 -38t-38 -16q-20 0 -32.5 12.5t-12.5 31.5zM131 670q0 23 16.5 39.5t38.5 16.5q20 0 32 -13t12 -33q0 -22 -16 -38t-38 -16q-20 0 -32.5 12.5t-12.5 31.5zM8 0l102 477h60l-101 -477h-61zM335 477h60
l-118 -554q-14 -63 -49.5 -92t-86.5 -29q-23 0 -40 4.5t-26 11.5l11 49q8 -5 21.5 -8t28.5 -3q35 0 54.5 18.5t28.5 60.5z" />
    <glyph glyph-name="jcircumflex" unicode="&#x135;" horiz-adv-x="228" 
d="M110 477h60l-118 -554q-14 -63 -49.5 -92t-86.5 -29q-23 0 -40 4.5t-26 11.5l11 49q8 -5 21.5 -8t28.5 -3q35 0 54.5 18.5t28.5 60.5zM5 538l137 137h78l77 -137h-51l-71 99l-111 -99h-59z" />
    <glyph glyph-name="dotlessj" unicode="&#x237;" horiz-adv-x="228" 
d="M110 477h60l-118 -554q-14 -63 -49.5 -92t-86.5 -29q-23 0 -40 4.5t-26 11.5l11 49q8 -5 21.5 -8t28.5 -3q35 0 54.5 18.5t28.5 60.5z" />
    <glyph glyph-name="kcommaaccent" unicode="&#x137;" horiz-adv-x="502" 
d="M216 245l-116 -95l-32 -150h-60l153 722h61l-104 -486l293 241h89l-238 -194l149 -283h-69zM139 -89q0 19 14 33.5t35 14.5q17 0 31.5 -11.5t14.5 -37.5q0 -29 -11.5 -50t-28.5 -35t-37 -20.5t-38 -6.5h-6l7 30q23 1 44.5 14t28.5 37q-6 -4 -16 -4q-17 0 -27.5 10.5
t-10.5 25.5z" />
    <glyph glyph-name="lacute" unicode="&#x13a;" horiz-adv-x="228" 
d="M8 0l153 722h61l-153 -722h-61zM219 763h-55l124 140h86z" />
    <glyph glyph-name="lcaron" unicode="&#x13e;" horiz-adv-x="267" 
d="M8 0l153 722h61l-153 -722h-61zM282 542h-48l75 180h69z" />
    <glyph glyph-name="lcommaaccent" unicode="&#x13c;" horiz-adv-x="228" 
d="M8 0l153 722h61l-153 -722h-61zM-31 -89q0 19 14 33.5t35 14.5q17 0 31.5 -11.5t14.5 -37.5q0 -29 -11.5 -50t-28.5 -35t-37 -20.5t-38 -6.5h-6l7 30q23 1 44.5 14t28.5 37q-6 -4 -16 -4q-17 0 -27.5 10.5t-10.5 25.5z" />
    <glyph glyph-name="ldot" unicode="&#x140;" horiz-adv-x="284" 
d="M8 0l153 722h61l-153 -722h-61zM188 305q0 21 15 37.5t38 16.5q19 0 30 -13t11 -30q0 -22 -15 -37.5t-36 -15.5q-19 0 -31 12.5t-12 29.5z" />
    <glyph glyph-name="nacute" unicode="&#x144;" horiz-adv-x="531" 
d="M325 0l60 282q6 27 6 50q0 47 -26.5 75.5t-81.5 28.5q-29 0 -54 -12t-45 -33t-34 -48.5t-21 -58.5l-60 -284h-61l84 395q7 30 9 52.5t2 29.5h59q0 -8 -1.5 -28t-6.5 -40q22 34 62 57t90 23q69 0 108 -40t39 -105q0 -11 -1.5 -25.5t-4.5 -29.5l-62 -289h-60zM316 537h-55
l124 140h86z" />
    <glyph glyph-name="napostrophe" unicode="&#x149;" horiz-adv-x="531" 
d="M325 0l60 282q6 27 6 50q0 47 -26.5 75.5t-81.5 28.5q-29 0 -54 -12t-45 -33t-34 -48.5t-21 -58.5l-60 -284h-61l84 395q7 30 9 52.5t2 29.5h59q0 -8 -1.5 -28t-6.5 -40q22 34 62 57t90 23q69 0 108 -40t39 -105q0 -11 -1.5 -25.5t-4.5 -29.5l-62 -289h-60zM126 567
q24 1 45 13.5t29 37.5q-6 -4 -16 -4q-17 0 -27.5 10.5t-10.5 24.5q0 20 13.5 34t34.5 14q17 0 31.5 -10.5t14.5 -36.5q0 -27 -10.5 -48t-27 -35.5t-37.5 -22.5t-41 -8h-4z" />
    <glyph glyph-name="ncaron" unicode="&#x148;" horiz-adv-x="531" 
d="M325 0l60 282q6 27 6 50q0 47 -26.5 75.5t-81.5 28.5q-29 0 -54 -12t-45 -33t-34 -48.5t-21 -58.5l-60 -284h-61l84 395q7 30 9 52.5t2 29.5h59q0 -8 -1.5 -28t-6.5 -40q22 34 62 57t90 23q69 0 108 -40t39 -105q0 -11 -1.5 -25.5t-4.5 -29.5l-62 -289h-60zM468 676
l-137 -138h-78l-77 138h51l71 -99l112 99h58z" />
    <glyph glyph-name="ncommaaccent" unicode="&#x146;" horiz-adv-x="531" 
d="M325 0l60 282q6 27 6 50q0 47 -26.5 75.5t-81.5 28.5q-29 0 -54 -12t-45 -33t-34 -48.5t-21 -58.5l-60 -284h-61l84 395q7 30 9 52.5t2 29.5h59q0 -8 -1.5 -28t-6.5 -40q22 34 62 57t90 23q69 0 108 -40t39 -105q0 -11 -1.5 -25.5t-4.5 -29.5l-62 -289h-60zM140 -89
q0 19 14 33.5t35 14.5q17 0 31.5 -11.5t14.5 -37.5q0 -29 -11.5 -50t-28.5 -35t-37 -20.5t-38 -6.5h-6l7 30q23 1 44.5 14t28.5 37q-6 -4 -16 -4q-17 0 -27.5 10.5t-10.5 25.5z" />
    <glyph glyph-name="eng" unicode="&#x14b;" horiz-adv-x="531" 
d="M385 282q3 14 4.5 27t1.5 23q0 47 -26.5 75.5t-81.5 28.5q-29 0 -54 -12t-45 -33t-34 -48.5t-21 -58.5l-60 -284h-61l84 395q7 30 9 52.5t2 29.5h59q0 -8 -1.5 -28t-6.5 -40q22 34 62 57t90 23q69 0 108 -40t39 -105q0 -11 -1.5 -26t-4.5 -29l-79 -370
q-14 -64 -49.5 -92.5t-86.5 -28.5q-23 0 -40 4.5t-26 10.5l11 50q9 -5 22 -8.5t29 -3.5q34 0 53.5 18.5t28.5 60.5z" />
    <glyph glyph-name="obreve" unicode="&#x14f;" horiz-adv-x="529" 
d="M471 277q0 -65 -21 -118.5t-56.5 -91.5t-82 -59t-96.5 -21q-46 0 -83.5 16t-63.5 44.5t-40.5 67.5t-14.5 85q0 66 21.5 119.5t57 91.5t82 58.5t96.5 20.5q47 0 84 -16t63 -44.5t40 -67.5t14 -85zM266 436q-35 0 -69 -15.5t-61.5 -45t-44.5 -73t-17 -99.5q0 -37 10.5 -67
t30 -51t45.5 -32.5t58 -11.5q34 0 68.5 15.5t62 45.5t44.5 73.5t17 99.5q0 74 -39.5 117.5t-104.5 43.5zM291 538q-29 0 -50.5 9t-36 24t-21.5 34.5t-7 41.5q0 8 1 15.5t3 13.5h45q-2 -5 -2 -9v-8q0 -27 17 -48.5t58 -21.5q24 0 42.5 8t32.5 20.5t23 28t14 30.5h49
q-6 -26 -19.5 -50.5t-35 -44t-50 -31.5t-63.5 -12z" />
    <glyph glyph-name="ohungarumlaut" unicode="&#x151;" horiz-adv-x="529" 
d="M471 277q0 -65 -21 -118.5t-56.5 -91.5t-82 -59t-96.5 -21q-46 0 -83.5 16t-63.5 44.5t-40.5 67.5t-14.5 85q0 66 21.5 119.5t57 91.5t82 58.5t96.5 20.5q47 0 84 -16t63 -44.5t40 -67.5t14 -85zM266 436q-35 0 -69 -15.5t-61.5 -45t-44.5 -73t-17 -99.5q0 -37 10.5 -67
t30 -51t45.5 -32.5t58 -11.5q34 0 68.5 15.5t62 45.5t44.5 73.5t17 99.5q0 74 -39.5 117.5t-104.5 43.5zM367 537h-46l95 140h69zM253 537h-46l89 140h69z" />
    <glyph glyph-name="omacron" unicode="&#x14d;" horiz-adv-x="529" 
d="M471 277q0 -65 -21 -118.5t-56.5 -91.5t-82 -59t-96.5 -21q-46 0 -83.5 16t-63.5 44.5t-40.5 67.5t-14.5 85q0 66 21.5 119.5t57 91.5t82 58.5t96.5 20.5q47 0 84 -16t63 -44.5t40 -67.5t14 -85zM266 436q-35 0 -69 -15.5t-61.5 -45t-44.5 -73t-17 -99.5q0 -37 10.5 -67
t30 -51t45.5 -32.5t58 -11.5q34 0 68.5 15.5t62 45.5t44.5 73.5t17 99.5q0 74 -39.5 117.5t-104.5 43.5zM168 581l11 53h254l-11 -53h-254z" />
    <glyph glyph-name="oslashacute" unicode="&#x1ff;" horiz-adv-x="529" 
d="M266 436q-35 0 -69 -15.5t-61.5 -45t-44.5 -73t-17 -99.5q0 -46 15 -77l279 268q-39 42 -102 42zM410 275q0 44 -15 77l-279 -268q19 -20 45 -31.5t57 -11.5q34 0 68.5 15.5t62 45.5t44.5 73.5t17 99.5zM-20 20l63 61q-30 51 -30 119q0 66 21.5 119.5t57 91.5t82 58.5
t96.5 20.5q45 0 80 -14t61 -40l58 56l33 -36l-61 -59q30 -50 30 -120q0 -65 -21 -118.5t-56.5 -91.5t-82 -59t-96.5 -21q-44 0 -80 14.5t-62 40.5l-60 -58zM315 537h-55l124 140h86z" />
    <glyph glyph-name="racute" unicode="&#x155;" horiz-adv-x="355" 
d="M334 411q-10 3 -22.5 5.5t-27.5 2.5q-55 0 -99 -38.5t-61 -118.5l-56 -262h-60l84 395q6 30 8 52t2 30h59q0 -12 -1.5 -33t-5.5 -40q28 42 67 60.5t81 18.5q15 0 26.5 -2.5t18.5 -5.5l-13 -64v0zM245 537h-55l124 140h86z" />
    <glyph glyph-name="rcaron" unicode="&#x159;" horiz-adv-x="355" 
d="M334 411q-10 3 -22.5 5.5t-27.5 2.5q-55 0 -99 -38.5t-61 -118.5l-56 -262h-60l84 395q6 30 8 52t2 30h59q0 -12 -1.5 -33t-5.5 -40q28 42 67 60.5t81 18.5q15 0 26.5 -2.5t18.5 -5.5l-13 -64v0zM407 676l-137 -138h-78l-77 138h51l71 -99l112 99h58z" />
    <glyph glyph-name="rcommaaccent" unicode="&#x157;" horiz-adv-x="355" 
d="M334 411q-10 3 -22.5 5.5t-27.5 2.5q-55 0 -99 -38.5t-61 -118.5l-56 -262h-60l84 395q6 30 8 52t2 30h59q0 -12 -1.5 -33t-5.5 -40q28 42 67 60.5t81 18.5q15 0 26.5 -2.5t18.5 -5.5l-13 -64v0zM-28 -89q0 19 14 33.5t35 14.5q17 0 31.5 -11.5t14.5 -37.5
q0 -29 -11.5 -50t-28.5 -35t-37 -20.5t-38 -6.5h-6l7 30q23 1 44.5 14t28.5 37q-6 -4 -16 -4q-17 0 -27.5 10.5t-10.5 25.5z" />
    <glyph glyph-name="sacute" unicode="&#x15b;" horiz-adv-x="428" 
d="M51 154q1 -49 30.5 -82t87.5 -33q45 0 74 24t29 62q0 26 -15.5 44t-43.5 31l-69 32q-39 17 -62 45t-23 70q0 28 11.5 54t33 46t52 31.5t67.5 11.5q43 0 73 -13.5t49.5 -34t29 -45t10.5 -47.5q-12 -4 -22 -6.5l-18 -4.5q-9 -3 -16 -4q-1 19 -7.5 37.5t-19.5 33.5t-34 24
t-50 9q-41 0 -70.5 -24t-29.5 -59q0 -24 12.5 -41.5t43.5 -31.5l69 -31q43 -20 66.5 -50.5t23.5 -69.5q0 -27 -11 -53t-32 -46.5t-52 -33t-71 -12.5q-42 0 -74 12.5t-53.5 34t-32.5 49t-11 57.5q0 10 2 16l55 13q-2 -8 -2 -15zM270 537h-55l124 140h86z" />
    <glyph glyph-name="scedilla" unicode="&#x15f;" horiz-adv-x="428" 
d="M208 -125q0 -38 -30 -61.5t-78 -23.5q-45 0 -74.5 21t-42.5 46l37 23q8 -17 26.5 -34t54.5 -17q26 0 42.5 12t16.5 34q0 17 -14 28t-42 11q-14 0 -26 -4l-16 31l59 50q-62 14 -93.5 56t-31.5 93q0 10 2 16l55 13q-2 -8 -2 -15q1 -49 30.5 -82t87.5 -33q45 0 74 24t29 62
q0 26 -15.5 44t-43.5 31l-69 32q-39 17 -62 45t-23 70q0 28 11.5 54t33 46t52 31.5t67.5 11.5q43 0 73 -13.5t49.5 -34t29 -45t10.5 -47.5l-56 -15q-1 19 -7.5 37.5t-19.5 33.5t-34 24t-50 9q-41 0 -70.5 -24t-29.5 -59q0 -24 12.5 -41.5t43.5 -31.5l69 -31
q43 -20 66.5 -50.5t23.5 -69.5q0 -27 -10.5 -52.5t-31 -45.5t-50 -33t-68.5 -14h-2l-51 -43h9q37 -2 58 -21.5t21 -47.5z" />
    <glyph glyph-name="scircumflex" unicode="&#x15d;" horiz-adv-x="428" 
d="M51 154q1 -49 30.5 -82t87.5 -33q45 0 74 24t29 62q0 26 -15.5 44t-43.5 31l-69 32q-39 17 -62 45t-23 70q0 28 11.5 54t33 46t52 31.5t67.5 11.5q43 0 73 -13.5t49.5 -34t29 -45t10.5 -47.5q-12 -4 -22 -6.5l-18 -4.5q-9 -3 -16 -4q-1 19 -7.5 37.5t-19.5 33.5t-34 24
t-50 9q-41 0 -70.5 -24t-29.5 -59q0 -24 12.5 -41.5t43.5 -31.5l69 -31q43 -20 66.5 -50.5t23.5 -69.5q0 -27 -11 -53t-32 -46.5t-52 -33t-71 -12.5q-42 0 -74 12.5t-53.5 34t-32.5 49t-11 57.5q0 10 2 16l55 13q-2 -8 -2 -15zM107 538l137 137h78l77 -137h-51l-71 99
l-111 -99h-59z" />
    <glyph glyph-name="scommaaccent" unicode="&#x219;" horiz-adv-x="428" 
d="M51 154q1 -49 30.5 -82t87.5 -33q45 0 74 24t29 62q0 26 -15.5 44t-43.5 31l-69 32q-39 17 -62 45t-23 70q0 28 11.5 54t33 46t52 31.5t67.5 11.5q43 0 73 -13.5t49.5 -34t29 -45t10.5 -47.5q-12 -4 -22 -6.5l-18 -4.5q-9 -3 -16 -4q-1 19 -7.5 37.5t-19.5 33.5t-34 24
t-50 9q-41 0 -70.5 -24t-29.5 -59q0 -24 12.5 -41.5t43.5 -31.5l69 -31q43 -20 66.5 -50.5t23.5 -69.5q0 -27 -11 -53t-32 -46.5t-52 -33t-71 -12.5q-42 0 -74 12.5t-53.5 34t-32.5 49t-11 57.5q0 10 2 16l55 13q-2 -8 -2 -15zM85 -89q0 19 14 33.5t35 14.5q17 0 31.5 -11.5
t14.5 -37.5q0 -29 -11.5 -50t-28.5 -35t-37 -20.5t-38 -6.5h-6l7 30q23 1 44.5 14t28.5 37q-6 -4 -16 -4q-17 0 -27.5 10.5t-10.5 25.5z" />
    <glyph glyph-name="tbar" unicode="&#x167;" horiz-adv-x="331" 
d="M147 275h108l-10 -51h-108l-16 -74q-3 -16 -4.5 -25.5t-1.5 -17.5q0 -27 15 -43t48 -16q20 0 31 3l-11 -51q-5 -2 -13.5 -3.5t-23.5 -1.5q-52 0 -80 28t-28 76q0 18 8 53l15 72h-84l11 51h84l31 147h-90l11 55h21q35 0 57 14t30 54l18 83h58l-33 -151h100l-11 -55h-100z
" />
    <glyph glyph-name="tcaron" unicode="&#x165;" horiz-adv-x="331" 
d="M53 99q0 18 8 53l57 270h-90l11 55h21q35 0 57 14t30 54l18 83h58l-33 -151h100l-11 -55h-100l-58 -272q-3 -16 -4.5 -25.5t-1.5 -17.5q0 -27 15 -43t48 -16q20 0 31 3l-11 -51q-5 -2 -13.5 -3.5t-23.5 -1.5q-52 0 -80 28t-28 76zM318 550h-48l75 180h69z" />
    <glyph glyph-name="tcommaaccent" unicode="&#x163;" horiz-adv-x="331" 
d="M53 99q0 18 8 53l57 270h-90l11 55h21q35 0 57 14t30 54l18 83h58l-33 -151h100l-11 -55h-100l-58 -272q-3 -16 -4.5 -25.5t-1.5 -17.5q0 -27 15 -43t48 -16q20 0 31 3l-11 -51q-5 -2 -13.5 -3.5t-23.5 -1.5q-52 0 -80 28t-28 76zM48 -89q0 19 14 33.5t35 14.5
q17 0 31.5 -11.5t14.5 -37.5q0 -29 -11.5 -50t-28.5 -35t-37 -20.5t-38 -6.5h-6l7 30q23 1 44.5 14t28.5 37q-6 -4 -16 -4q-17 0 -27.5 10.5t-10.5 25.5z" />
    <glyph glyph-name="tcedilla" horiz-adv-x="331" 
d="M57 -210q-45 0 -75.5 20.5t-42.5 46.5l37 23q8 -17 26.5 -34t54.5 -17q26 0 42.5 12t16.5 34q0 17 -14 28t-42 11q-14 0 -26 -4l-16 31l77 67h7q-49 26 -49 91q0 18 8 53l57 270h-90l11 55h21q35 0 57 14t30 54l18 83h58l-33 -151h100l-11 -55h-100l-58 -272
q-3 -16 -4.5 -25.5t-1.5 -17.5q0 -27 15 -43t48 -16q20 0 31 3l-11 -51q-5 -2 -13.5 -3.5t-23.5 -1.5q-6 0 -11.5 0.5t-11.5 1.5l-62 -53h9q37 -2 58 -21.5t21 -47.5q0 -38 -30 -61.5t-77 -23.5z" />
    <glyph glyph-name="ubreve" unicode="&#x16d;" horiz-adv-x="522" 
d="M326 71q-20 -33 -58.5 -57.5t-86.5 -24.5q-73 0 -111.5 41.5t-38.5 107.5q0 26 6 59l60 280h60l-59 -278q-6 -30 -6 -54q0 -45 24.5 -74.5t81.5 -29.5q28 0 52.5 12t44 33t33.5 50t21 62l59 279h61l-81 -381q-7 -31 -8 -54.5t-1 -35.5v-6h-58q0 13 0.5 29t4.5 31v11v0z
M293 538q-29 0 -50.5 9t-36 24t-21.5 34.5t-7 41.5q0 8 1 15.5t3 13.5h45q-2 -5 -2 -9v-8q0 -27 17 -48.5t58 -21.5q24 0 42.5 8t32.5 20.5t23 28t14 30.5h49q-6 -26 -19.5 -50.5t-35 -44t-50 -31.5t-63.5 -12z" />
    <glyph glyph-name="uhungarumlaut" unicode="&#x171;" horiz-adv-x="522" 
d="M326 71q-20 -33 -58.5 -57.5t-86.5 -24.5q-73 0 -111.5 41.5t-38.5 107.5q0 26 6 59l60 280h60l-59 -278q-6 -30 -6 -54q0 -45 24.5 -74.5t81.5 -29.5q28 0 52.5 12t44 33t33.5 50t21 62l59 279h61l-81 -381q-7 -31 -8 -54.5t-1 -35.5v-6h-58q0 13 0.5 29t4.5 31v11v0z
M354 537h-46l95 140h69zM240 537h-46l89 140h69z" />
    <glyph glyph-name="umacron" unicode="&#x16b;" horiz-adv-x="522" 
d="M326 71q-20 -33 -58.5 -57.5t-86.5 -24.5q-73 0 -111.5 41.5t-38.5 107.5q0 26 6 59l60 280h60l-59 -278q-6 -30 -6 -54q0 -45 24.5 -74.5t81.5 -29.5q28 0 52.5 12t44 33t33.5 50t21 62l59 279h61l-81 -381q-7 -31 -8 -54.5t-1 -35.5v-6h-58q0 13 0.5 29t4.5 31v11v0z
M172 581l11 53h254l-11 -53h-254z" />
    <glyph glyph-name="uogonek" unicode="&#x173;" horiz-adv-x="522" 
d="M218 -134q0 24 9.5 45.5t24.5 39t33 31t36 22.5q0 17 1 31.5t4 25.5v10q-20 -33 -58.5 -57.5t-86.5 -24.5q-73 0 -111.5 41.5t-38.5 107.5q0 26 6 59l60 280h60l-59 -278q-6 -30 -6 -54q0 -45 24.5 -74.5t81.5 -29.5q28 0 52.5 12t44 33t33.5 50t21 62l59 279h61
l-81 -381q-7 -31 -8.5 -54.5t-1.5 -35.5v-6q-17 -8 -35.5 -20t-34 -27.5t-26 -34t-10.5 -39.5q0 -22 14.5 -32.5t36.5 -10.5q19 0 36 4l-9 -42q-11 -4 -21 -6t-25 -2q-38 0 -62 20.5t-24 55.5z" />
    <glyph glyph-name="uring" unicode="&#x16f;" horiz-adv-x="522" 
d="M326 71q-20 -33 -58.5 -57.5t-86.5 -24.5q-73 0 -111.5 41.5t-38.5 107.5q0 26 6 59l60 280h60l-59 -278q-6 -30 -6 -54q0 -45 24.5 -74.5t81.5 -29.5q28 0 52.5 12t44 33t33.5 50t21 62l59 279h61l-81 -381q-7 -31 -8 -54.5t-1 -35.5v-6h-58q0 13 0.5 29t4.5 31v11v0z
M317 739q42 0 68.5 -27t26.5 -67q0 -23 -9.5 -44t-25 -37t-36.5 -25t-44 -9q-42 0 -69 27t-27 66q0 25 10 46.5t26 37t37 24t43 8.5zM245 628q0 -23 15 -39t40 -16q26 0 46.5 20t20.5 49q0 23 -14.5 38.5t-40.5 15.5q-28 0 -47.5 -20t-19.5 -48z" />
    <glyph glyph-name="utilde" unicode="&#x169;" horiz-adv-x="522" 
d="M326 71q-20 -33 -58.5 -57.5t-86.5 -24.5q-73 0 -111.5 41.5t-38.5 107.5q0 26 6 59l60 280h60l-59 -278q-6 -30 -6 -54q0 -45 24.5 -74.5t81.5 -29.5q28 0 52.5 12t44 33t33.5 50t21 62l59 279h61l-81 -381q-7 -31 -8 -54.5t-1 -35.5v-6h-58q0 13 0.5 29t4.5 31v11v0z
M147 553q8 57 37.5 82.5t66.5 25.5q21 0 36.5 -7t27.5 -18l16 -15q11 -8 20 -13t21 -5q41 0 52 56h48q-11 -57 -39.5 -82.5t-64.5 -25.5q-19 0 -34 6.5t-27 17.5l-17 15q-11 10 -20.5 14.5t-23.5 4.5q-40 0 -51 -56h-48z" />
    <glyph glyph-name="wacute" unicode="&#x1e83;" horiz-adv-x="742" 
d="M426 477l49 -400l208 400h66l-255 -477h-64l-51 411l-226 -411h-62l-48 477h60l34 -397l218 397h71zM429 537h-55l124 140h86z" />
    <glyph glyph-name="wcircumflex" unicode="&#x175;" horiz-adv-x="742" 
d="M426 477l49 -400l208 400h66l-255 -477h-64l-51 411l-226 -411h-62l-48 477h60l34 -397l218 397h71zM248 538l137 137h78l77 -137h-51l-71 99l-111 -99h-59z" />
    <glyph glyph-name="wdieresis" unicode="&#x1e85;" horiz-adv-x="742" 
d="M474 605q0 20 14 35t34 15q17 0 27.5 -12.5t10.5 -27.5q0 -20 -14.5 -33.5t-33.5 -13.5q-17 0 -27.5 11t-10.5 26zM261 605q0 20 14 35t34 15q17 0 27 -12.5t10 -27.5q0 -20 -14 -33.5t-34 -13.5q-17 0 -27 11t-10 26zM426 477l49 -400l208 400h66l-255 -477h-64l-51 411
l-226 -411h-62l-48 477h60l34 -397l218 397h71z" />
    <glyph glyph-name="wgrave" unicode="&#x1e81;" horiz-adv-x="742" 
d="M426 477l49 -400l208 400h66l-255 -477h-64l-51 411l-226 -411h-62l-48 477h60l34 -397l218 397h71zM293 677h72l59 -140h-47z" />
    <glyph glyph-name="uni1E8B" unicode="&#x1e8b;" horiz-adv-x="468" 
d="M17 0h-79l236 246l-125 231h67l100 -188l175 188h78l-225 -233l132 -244h-68l-105 199zM220 601q0 21 15 37.5t38 16.5q19 0 30 -13t11 -30q0 -22 -15 -37.5t-36 -15.5q-19 0 -31 12.5t-12 29.5z" />
    <glyph glyph-name="ycircumflex" unicode="&#x177;" horiz-adv-x="471" 
d="M-30 -190l178 265l-118 402h65l96 -343l220 343h71l-442 -667h-70zM113 538l137 137h78l77 -137h-51l-71 99l-111 -99h-59z" />
    <glyph glyph-name="ygrave" unicode="&#x1ef3;" horiz-adv-x="471" 
d="M-30 -190l178 265l-118 402h65l96 -343l220 343h71l-442 -667h-70zM169 677h72l59 -140h-47z" />
    <glyph glyph-name="zacute" unicode="&#x17a;" horiz-adv-x="471" 
d="M-27 0l11 54l374 368h-284l11 55h362l-10 -55l-375 -367h303l-11 -55h-381zM286 537h-55l124 140h86z" />
    <glyph glyph-name="zdotaccent" unicode="&#x17c;" horiz-adv-x="471" 
d="M-27 0l11 54l374 368h-284l11 55h362l-10 -55l-375 -367h303l-11 -55h-381zM240 601q0 21 15 37.5t38 16.5q19 0 30 -13t11 -30q0 -22 -15 -37.5t-36 -15.5q-19 0 -31 12.5t-12 29.5z" />
    <glyph glyph-name="kgreenlandic" unicode="&#x138;" horiz-adv-x="494" 
d="M216 245l-116 -95l-32 -150h-60l102 477h60l-52 -241l293 241h89l-236 -194l147 -283h-69z" />
    <glyph glyph-name="uni01B6" unicode="&#x1b6;" horiz-adv-x="481" 
d="M55 275h159l150 147h-285l11 55h363l-11 -55l-151 -147h114l-10 -50h-155l-173 -170h303l-11 -55h-381l11 54l174 171h-118z" />
    <glyph glyph-name="uni0259" unicode="&#x259;" horiz-adv-x="522" 
d="M13 186q0 36 7 63h385q1 6 1 12v12q0 36 -10 65.5t-29.5 51.5t-47.5 34t-65 12q-55 0 -97 -29t-65 -71l-47 28q31 56 86.5 91t126.5 35q47 0 85 -15.5t65 -44t41.5 -67.5t14.5 -87q0 -66 -21 -119.5t-56 -91t-80.5 -58t-94.5 -20.5q-48 0 -85 15.5t-62.5 42.5t-38.5 63.5
t-13 77.5zM74 199q0 -5 -0.5 -9.5t-0.5 -9.5q0 -30 9 -55.5t27 -44t44.5 -29.5t60.5 -11q62 0 112 43.5t70 115.5h-322z" />
    <glyph glyph-name="Euro" unicode="&#x20ac;" horiz-adv-x="740" 
d="M66 455h89q22 60 61 109t89 84.5t108 54.5t120 19q63 0 117.5 -19t90.5 -52l-37 -45q-31 28 -78.5 44.5t-99.5 16.5q-47 0 -93 -15t-87 -42.5t-73.5 -66.5t-52.5 -88h364l-36 -51h-346q-12 -44 -12 -92v-7h298l-37 -52h-255q8 -48 30.5 -87t56 -67t77 -43t94.5 -15
q95 0 167 49l21 -46q-41 -27 -90 -42t-104 -15q-60 0 -113.5 19.5t-94.5 55t-69 84t-37 107.5h-112l12 52h95v6q0 50 10 93h-85z" />
    <glyph glyph-name="Pcircle" unicode="&#x24c5;" horiz-adv-x="828" 
d="M43 354q0 76 28.5 143t77.5 117t115 79t142 29t142 -29t115.5 -79t78 -117t28.5 -143t-28.5 -142.5t-78 -116.5t-115.5 -79t-142 -29t-142 29t-115 79t-77.5 116.5t-28.5 142.5zM94 354q0 -67 24.5 -125.5t66.5 -101.5t99 -68t122 -25t122 25t99 68t66 101.5t24 125.5
t-24 126t-66 102t-99 68t-122 25t-122 -25t-99 -68t-66.5 -102t-24.5 -126zM345 315l-34 -159h-48l85 400h124q50 0 79 -29.5t29 -73.5q0 -31 -12 -56.5t-32.5 -43.5t-48 -28t-58.5 -10h-84zM424 357q48 0 78 25.5t30 69.5q0 29 -19.5 45t-55.5 16h-68l-34 -156h69z" />
    <glyph glyph-name="registered.salt" horiz-adv-x="428" 
d="M60 527q0 39 14.5 74t40 60.5t60 40.5t73.5 15t74 -15t60.5 -40.5t40.5 -60.5t15 -74t-15 -73.5t-40.5 -60t-60.5 -40.5t-74 -15t-73.5 15t-60 40.5t-40 60t-14.5 73.5zM95 527q0 -33 12 -61.5t33 -49.5t49 -33t60 -12t60 12t49 33t33 49.5t12 61.5t-12 61.5t-33 49.5
t-49 33.5t-60 12.5t-60 -12.5t-49 -33.5t-33 -49.5t-12 -61.5zM256 532q19 0 32 11.5t13 26.5q0 14 -9 22t-26 8h-28l-14 -68h32zM202 430h-35l42 200h67q28 0 44 -16t16 -39q0 -25 -16.5 -44t-40.5 -24l27 -77h-37l-24 73h-28z" />
    <glyph glyph-name="uni2126" unicode="&#x2126;" horiz-adv-x="822" 
d="M410 665q-55 0 -107 -20t-92 -57.5t-64.5 -91t-24.5 -120.5q0 -60 20.5 -110.5t55 -88t78 -61.5t90.5 -33v-83h-299v55h222q-45 14 -86.5 42.5t-74 69.5t-51.5 93.5t-19 114.5q0 79 29 143t77.5 109.5t112 70t133.5 24.5t134 -24.5t112.5 -70t77.5 -109.5t29 -143
q0 -62 -19 -114.5t-51 -93.5t-74 -69.5t-87 -42.5h222v-55h-298v83q46 9 90 33t78 61.5t54.5 88t20.5 110.5q0 67 -24.5 120.5t-64.5 91t-92.5 57.5t-107.5 20z" />
    <glyph glyph-name="Delta" horiz-adv-x="617" 
d="M252 709h66l276 -709h-616zM285 634l-217 -576h436z" />
    <glyph glyph-name="uni00A0" unicode="&#xa0;" horiz-adv-x="0" 
 />
    <glyph glyph-name="dieresis.salt" horiz-adv-x="247" 
d="M191 606q0 19 12.5 33t32.5 14q17 0 26.5 -11.5t9.5 -25.5q0 -20 -13 -33t-32 -13q-17 0 -26.5 11t-9.5 25zM65 606q0 19 13 33t33 14q16 0 26 -11.5t10 -25.5q0 -20 -13.5 -33t-32.5 -13q-17 0 -26.5 11t-9.5 25z" />
    <glyph glyph-name="commaaccent" unicode="&#xf6c3;" horiz-adv-x="160" 
d="M71 567q24 1 45 13.5t29 37.5q-6 -4 -16 -4q-17 0 -27.5 10.5t-10.5 24.5q0 20 13.5 34t34.5 14q17 0 31.5 -10.5t14.5 -36.5q0 -27 -10.5 -48t-27 -35.5t-37.5 -22.5t-41 -8h-4z" />
    <glyph glyph-name="caron.alt" horiz-adv-x="184" 
d="M113 535h-48l75 180h69z" />
    <glyph glyph-name="commaturn" horiz-adv-x="160" 
d="M159 582q0 -20 -13 -34.5t-35 -14.5q-16 0 -31 12t-15 35q0 30 12 51.5t29.5 35.5t38 20.5t38.5 6.5h2q-2 -6 -2.5 -11t-1.5 -10l-2 -10h-2q-24 0 -45 -14t-26 -37q8 4 16 4q17 0 27 -10t10 -24z" />
    <glyph glyph-name="undercommaaccent" horiz-adv-x="191" 
d="M-23 -90q0 19 14 33.5t35 14.5q17 0 31.5 -11.5t14.5 -37.5q0 -29 -11.5 -50t-28.5 -35t-37 -20.5t-38 -6.5h-6l7 30q23 1 44.5 14t28.5 37q-6 -4 -16 -4q-17 0 -27.5 10.5t-10.5 25.5z" />
    <glyph glyph-name="grave.uc" horiz-adv-x="201" 
d="M65 878h78l83 -119h-57z" />
    <glyph glyph-name="acute.uc" horiz-adv-x="255" 
d="M129 759h-64l128 119h87z" />
    <glyph glyph-name="dieresis.uc" horiz-adv-x="330" 
d="M270 814q0 21 14 35t34 14q17 0 27 -12t10 -27q0 -21 -13.5 -34.5t-33.5 -13.5q-17 0 -27.5 11t-10.5 27zM65 814q0 21 14 35t35 14q17 0 27 -12t10 -27q0 -21 -14 -34.5t-34 -13.5q-17 0 -27.5 11t-10.5 27z" />
    <glyph glyph-name="dieresis.uc.salt" horiz-adv-x="255" 
d="M199 814q0 20 13 33.5t33 13.5q16 0 25.5 -11.5t9.5 -25.5q0 -20 -13 -33t-32 -13q-16 0 -26 10.5t-10 25.5zM65 814q0 20 13 33.5t33 13.5q16 0 25.5 -11.5t9.5 -25.5q0 -20 -13 -33t-32 -13q-16 0 -26 10.5t-10 25.5z" />
    <glyph glyph-name="macron.uc" horiz-adv-x="317" 
d="M65 793l11 54h266l-11 -54h-266z" />
    <glyph glyph-name="circumflex.uc" horiz-adv-x="327" 
d="M59 759l134 119h81l85 -119h-53l-78 83l-110 -83h-59z" />
    <glyph glyph-name="caron.uc" horiz-adv-x="327" 
d="M359 878l-137 -119h-81l-82 119h52l76 -83l110 83h62z" />
    <glyph glyph-name="breve.uc" horiz-adv-x="328" 
d="M187 754q-31 0 -54 8.5t-38 23.5t-22.5 34.5t-7.5 41.5q0 8 2 18h49q-1 -4 -1 -10q0 -26 17.5 -46.5t59.5 -20.5q23 0 41 6.5t31.5 17.5t23 24.5t14.5 28.5h51q-7 -24 -21 -46.5t-35 -40t-48.5 -28.5t-61.5 -11z" />
    <glyph glyph-name="dotaccent.uc" horiz-adv-x="134" 
d="M65 813q0 22 15 38t38 16q19 0 30 -13t11 -30q0 -22 -15 -37.5t-36 -15.5q-20 0 -31.5 12.5t-11.5 29.5z" />
    <glyph glyph-name="ring.uc" horiz-adv-x="243" 
d="M65 836q0 24 9.5 44.5t25 35.5t35.5 23t41 8q41 0 66.5 -26.5t25.5 -64.5q0 -22 -9 -42t-24 -35.5t-35 -24.5t-42 -9q-20 0 -37 7t-29.5 19.5t-19.5 29t-7 35.5zM173 905q-28 0 -46 -19.5t-18 -45.5q0 -23 14 -37.5t37 -14.5q26 0 45.5 18.5t19.5 46.5q0 22 -14.5 37
t-37.5 15z" />
    <glyph glyph-name="tilde.uc" horiz-adv-x="365" 
d="M390 872q-11 -58 -40 -83.5t-65 -25.5q-35 0 -62 24l-17 15q-11 10 -20.5 14.5t-22.5 4.5q-19 0 -32.5 -13.5t-18.5 -41.5h-47q8 56 38 82t66 26q20 0 36 -7.5t29 -18.5l16 -14q11 -10 19.5 -14.5t21.5 -4.5q40 0 52 57h47v0z" />
    <glyph glyph-name="hungarumlaut.uc" horiz-adv-x="322" 
d="M238 759h-49l88 119h72zM114 759h-49l82 119h72z" />
    <glyph glyph-name="caron.alt.uc" horiz-adv-x="188" 
d="M114 543h-49l76 185h72z" />
    <glyph glyph-name="dollar.tf" 
d="M176 526q0 -42 20.5 -70t62.5 -48l22 -10l56 260h-12q-29 0 -56 -10t-47.5 -27t-33 -41.5t-12.5 -53.5zM427 188q0 38 -21.5 67.5t-69.5 52.5l-19 8l-57 -265h9q34 1 63 11.5t50 28.5t33 42.5t12 54.5zM174 -114l24 118q-81 17 -123.5 73.5t-42.5 130.5q0 8 0.5 18
t2.5 18l55 9q-1 -8 -2 -18t-1 -18q0 -57 29.5 -102t92.5 -60l61 284l-37 17q-54 26 -84 64.5t-30 97.5q0 43 17.5 78t47 60t68 39t80.5 14h15l22 101h52l-23 -109q39 -9 66.5 -28t45.5 -43.5t26.5 -53.5t9.5 -58l-54 -11q0 46 -24 86t-80 57l-60 -276l30 -14q63 -29 95 -69
t32 -97q0 -42 -17 -77.5t-47 -62t-71 -41.5t-89 -15h-11l-24 -112h-52z" />
    <glyph glyph-name="Euro.tf" 
d="M44 474h76q20 53 54.5 98t80 78t100.5 52t117 19q45 0 77.5 -8t55.5 -21l-27 -48q-20 10 -46.5 16t-67.5 6q-43 0 -85 -13t-79 -37.5t-67.5 -60.5t-49.5 -81h299l-29 -52h-288q-8 -25 -14 -59.5t-6 -70.5h257l-28 -53h-223q8 -45 29 -81t52.5 -62t72 -40t87.5 -14
q13 0 30 2t34 7l3 -54q-13 -5 -33 -7.5t-38 -2.5q-57 0 -107.5 18.5t-90.5 51.5t-66 79.5t-35 102.5h-98l12 53h81q0 35 6 70.5t14 59.5h-73z" />
    <glyph glyph-name="sterling.tf" horiz-adv-x="577" 
d="M145 373q-5 32 -10.5 63t-5.5 63q0 48 17 89t47 70.5t70 46.5t86 17q49 0 86.5 -14t62 -39t37 -58t12.5 -70q0 -8 -1 -17.5t-3 -14.5l-61 -9q3 18 3 34q0 28 -9 52.5t-26 42.5t-43 28t-59 10t-62 -12t-50 -33.5t-33 -52t-12 -67.5q0 -33 6 -64.5t11 -64.5h217l-11 -56
h-201q1 -5 1.5 -10.5t0.5 -10.5q-2 -81 -44.5 -141t-110.5 -99h262q69 0 111.5 41t56.5 106l57 -11q-19 -91 -75.5 -141.5t-145.5 -50.5h-357l13 67q78 36 124 96.5t47 131.5v11.5t-1 10.5h-103l11 56h85z" />
    <glyph glyph-name="yen.tf" 
d="M55 370h159l-133 339h69l125 -336l254 336h73l-265 -339h159l-11 -49h-190l-19 -90h192l-11 -49h-191l-39 -182h-62l38 182h-186l10 49h187l19 90h-189z" />
    <glyph glyph-name="zero.tf" 
d="M225 -13q-55 0 -93.5 20.5t-62.5 56t-35 82t-11 97.5q0 49 7 104t22.5 108t39.5 101.5t57.5 85t77 58.5t98.5 22t93.5 -21t62.5 -56.5t35 -82t11 -97.5q0 -78 -17.5 -162t-54.5 -154.5t-94 -116t-136 -45.5zM85 243q0 -40 7 -76t24 -63.5t45 -43.5t69 -16q43 0 77 19.5
t60 52.5t45 76.5t30.5 90.5t17 95t5.5 91q0 39 -7 75t-24 63.5t-45 43.5t-70 16q-45 0 -80 -21t-61 -56t-44 -80t-28.5 -92t-15.5 -92.5t-5 -82.5z" />
    <glyph glyph-name="one.tf" 
d="M220 56l111 527q-8 -12 -30.5 -23t-51 -20t-58 -15.5t-50.5 -7.5l9 46q35 3 67 16t59 32.5t48 44.5t34 53h60l-138 -653h188l-11 -56h-422l10 56h175z" />
    <glyph glyph-name="two.tf" 
d="M-1 0q10 85 59.5 154.5t136.5 113.5l151 76q68 34 108.5 80t40.5 112q0 27 -8.5 51t-26.5 42t-44.5 28.5t-62.5 10.5q-38 0 -71.5 -13t-58 -38t-39.5 -61t-15 -81v-4l-60 9v3q0 49 18.5 92.5t51 76t78 51.5t99.5 19q51 0 89 -14.5t63 -39.5t37.5 -57.5t12.5 -69.5
q0 -44 -13.5 -80.5t-37.5 -66.5t-57 -53.5t-71 -42.5l-166 -84q-45 -23 -82.5 -64t-51.5 -92h395l-13 -58h-462z" />
    <glyph glyph-name="three.tf" 
d="M239 -13q-54 0 -96.5 16.5t-71.5 45t-44.5 67t-15.5 81.5q0 18 3 33l62 8q-2 -8 -3 -17.5t-1 -18.5q0 -35 12.5 -64t34.5 -50.5t52.5 -33.5t67.5 -12q39 0 74.5 13.5t62 38t42.5 59.5t16 78q0 34 -12 60t-33 43.5t-50 26.5t-62 9q-10 0 -20 -1t-17 -3l-21 57l299 229
h-377l13 57h454l-14 -67l-292 -223h9q36 -1 69.5 -13.5t59.5 -36t41.5 -57.5t15.5 -79q0 -51 -19.5 -96t-54 -78t-82 -52.5t-102.5 -19.5z" />
    <glyph glyph-name="four.tf" 
d="M11 249l409 460h87l-102 -478h125l-12 -56h-125l-36 -175h-59l35 175h-338zM434 646l-365 -415h276z" />
    <glyph glyph-name="five.tf" 
d="M253 42q38 0 73 14.5t62 41t43 63.5t16 82q0 71 -40.5 114t-116.5 43q-79 0 -146 -55l-55 34l156 330h345l-7 -57h-306l-115 -243q29 25 66 35.5t75 10.5q48 0 86 -14.5t65 -41.5t41.5 -65t14.5 -84q0 -55 -20 -103t-55 -83.5t-83 -56t-103 -20.5q-51 0 -92.5 16.5
t-70 45t-44 67t-15.5 83.5v11t1 11l60 12q-1 -5 -1 -10.5v-10.5q0 -34 10 -65t30.5 -54t52 -37t73.5 -14z" />
    <glyph glyph-name="six.tf" 
d="M578 620q-23 17 -58.5 29.5t-86.5 12.5q-64 0 -117.5 -26t-94 -70t-68 -101.5t-39.5 -121.5q11 22 30 44t45 39t59.5 27.5t74.5 10.5q46 0 84.5 -14.5t66 -41t42.5 -64.5t15 -84q0 -62 -22.5 -112.5t-59.5 -86t-85 -55t-98 -19.5t-91 17t-70.5 49t-46 78.5t-16.5 105.5
q0 86 26 172t76.5 154.5t124.5 111t169 42.5q53 0 96 -13t71 -35zM308 410q-39 0 -75.5 -15t-64.5 -42t-44.5 -64t-16.5 -80q0 -36 11.5 -67t33 -53t51.5 -34.5t66 -12.5q37 0 72.5 14.5t63.5 41.5t45 65.5t17 86.5q0 73 -42 116.5t-117 43.5z" />
    <glyph glyph-name="seven.tf" 
d="M63 0q40 136 98.5 241.5t121.5 185t124.5 135t106.5 90.5h-437l12 57h505l-14 -63q-60 -47 -123.5 -107t-123.5 -138.5t-113 -177.5t-92 -223h-65z" />
    <glyph glyph-name="eight.tf" 
d="M497 199q0 -46 -19 -85t-52 -67t-78.5 -44t-99.5 -16q-59 0 -101.5 15.5t-71 41.5t-42 59.5t-13.5 69.5q0 38 14 71t39 59t58 43.5t71 24.5q-42 17 -67 56.5t-25 89.5q0 45 18.5 82.5t50.5 65t75 42.5t91 15q51 0 90.5 -14t66.5 -38t41 -56t14 -68q0 -35 -13 -66.5
t-35 -56.5t-52.5 -42.5t-64.5 -24.5q50 -19 77.5 -59.5t27.5 -97.5zM324 387q36 0 67 11.5t54.5 31.5t37 48.5t13.5 63.5q0 26 -10 49t-29.5 40.5t-48 27.5t-65.5 10q-38 0 -70 -11.5t-55 -32t-36 -48.5t-13 -62q0 -31 12.5 -55t34 -40t49.5 -24.5t59 -8.5zM83 175
q0 -35 14 -60t38 -42t54.5 -25t63.5 -8q39 0 72.5 12t58.5 33.5t39 50.5t14 64q0 28 -10.5 53t-31.5 43.5t-52.5 29.5t-74.5 11q-42 0 -76 -12t-58 -33.5t-37.5 -51t-13.5 -65.5z" />
    <glyph glyph-name="nine.tf" 
d="M128 467q0 -76 44 -118.5t116 -42.5q38 0 73 15t61.5 41.5t42 63t15.5 80.5q0 35 -12 64.5t-33.5 51t-50.5 33.5t-63 12q-35 0 -69.5 -14t-62 -39.5t-44.5 -63t-17 -83.5zM17 107q32 -29 73.5 -44.5t91.5 -15.5q63 0 112.5 24.5t86 68t60 102t33.5 127.5
q-24 -53 -75.5 -85.5t-121.5 -32.5q-44 0 -82.5 14.5t-67 41.5t-45.5 65t-17 85q0 63 22.5 112.5t59.5 83.5t84 51.5t95 17.5q50 0 91 -16.5t70.5 -48t45.5 -78t16 -106.5q0 -56 -10 -113.5t-30 -111.5t-50 -100.5t-71 -81.5t-93 -55t-115 -20q-56 0 -108.5 17t-83.5 49z
" />
    <glyph glyph-name="cent.tf" 
d="M106 313q0 -58 27 -99t75 -57l83 394q-36 -3 -69.5 -21t-59 -48.5t-41 -73t-15.5 -95.5zM482 239q-15 -31 -37 -57t-49.5 -45.5t-61 -30.5t-72.5 -11q-9 0 -14 1l-20 -96h-53l22 103q-71 20 -111 76.5t-40 133.5q0 63 21 115.5t56 91t81.5 60.5t97.5 24l23 105h52
l-23 -109q35 -6 61 -20t45 -34t30.5 -43t17.5 -47l-55 -20q-9 42 -36 72t-74 39l-84 -398q5 -1 12 -1q59 2 99 35t63 79z" />
    <glyph glyph-name="percent.tf" 
d="M217 717q29 0 54 -10.5t43 -28.5t28 -42t10 -52q0 -33 -13 -63t-35.5 -52.5t-52 -35.5t-63.5 -13q-29 0 -54 10t-43 28t-28 42t-10 52q0 33 12.5 62.5t34.5 52.5t52 36.5t65 13.5zM301 582q0 38 -24 62.5t-65 24.5q-22 0 -41.5 -9t-34.5 -25t-23.5 -36.5t-8.5 -43.5
q0 -38 24 -63t64 -25q22 0 42 9t35 25t23.5 36.5t8.5 44.5zM542 493l-500 -327l13 65l501 328zM531 156q0 -33 -13 -63t-35.5 -52.5t-52.5 -35.5t-64 -13q-29 0 -53.5 10t-42.5 28t-28 42t-10 52q0 33 12.5 62.5t35 52.5t52 36.5t64.5 13.5q29 0 54 -10t43 -28t28 -42.5
t10 -52.5zM480 154q0 38 -24 62.5t-65 24.5q-22 0 -41.5 -9t-34.5 -24.5t-23.5 -36.5t-8.5 -44q0 -38 24 -63t64 -25q22 0 42 9t35 25t23.5 36.5t8.5 44.5z" />
    <glyph glyph-name="perthousand.tf" 
d="M43 588q0 25 9.5 48.5t27 41.5t41 28.5t50.5 10.5q47 0 77 -30t30 -75q0 -27 -10.5 -50.5t-28 -41.5t-41 -28.5t-49.5 -10.5q-23 0 -42 8.5t-33.5 23t-22.5 34t-8 41.5zM167 673q-15 0 -29.5 -6.5t-25.5 -17.5t-17.5 -26t-6.5 -33q0 -26 17.5 -46t46.5 -20q16 0 30.5 6.5
t26 18t18.5 27t7 33.5q0 27 -18.5 45.5t-48.5 18.5zM527 536l-503 -308l15 64l503 309zM197 -7q-23 0 -42 8.5t-33.5 23t-22.5 33.5t-8 41q0 25 9.5 48.5t27 42t41 29.5t51.5 11q31 0 53.5 -14.5t35.5 -37.5q16 23 41 37.5t57 14.5q23 0 42.5 -8t34 -22.5t22.5 -34t8 -41.5
q0 -27 -10.5 -50.5t-28 -41.5t-40.5 -28.5t-49 -10.5q-31 0 -54 15t-36 38q-17 -23 -42.5 -38t-56.5 -15zM137 102q0 -26 17 -46t47 -20q29 0 52 21t27 53v7q0 2 1 5q0 27 -17.5 45.5t-47.5 18.5q-16 0 -30 -6.5t-25 -18t-17.5 -26.5t-6.5 -33zM469 122q0 27 -18.5 45.5
t-47.5 18.5q-16 0 -30.5 -6.5t-25.5 -18t-17.5 -26.5t-6.5 -33q0 -26 18 -46t47 -20q32 0 56.5 24.5t24.5 61.5z" />
    <glyph glyph-name="section.tf" horiz-adv-x="560" 
d="M236 387q-17 -2 -34.5 -10.5t-31.5 -22.5t-23 -32t-9 -40q0 -27 15 -48.5t43 -41.5l77 -60q16 3 34 12t32 23.5t23.5 32.5t9.5 39q0 27 -15 48.5t-41 41.5zM70 6q-2 -10 -3 -19.5t-1 -18.5q0 -51 29.5 -85t91.5 -34q25 0 49 8t42.5 23t29.5 37t11 50q0 30 -15 54t-41 44
l-90 66q-39 29 -67 61.5t-28 78.5q0 31 12 55.5t30.5 42.5t40.5 29t42 15q-35 26 -53 59.5t-18 68.5q0 42 16.5 75.5t43.5 57t62.5 36t74.5 12.5q42 0 73.5 -12.5t52.5 -33.5t32 -50t11 -62q0 -19 -3 -40l-59 -6q4 17 4 37q0 51 -28.5 83.5t-85.5 32.5q-25 0 -49 -8
t-42.5 -23.5t-30 -38t-11.5 -50.5q0 -30 14 -53t41 -42l91 -67q19 -14 36 -28.5t30 -31t20.5 -35.5t7.5 -42q0 -29 -11 -53.5t-28.5 -43t-39.5 -31t-45 -18.5q35 -27 53.5 -59.5t18.5 -68.5q0 -42 -17 -75.5t-44.5 -56.5t-63.5 -35.5t-74 -12.5q-43 0 -76 12.5t-55 34
t-33 50.5t-11 62q0 10 1.5 22.5t3.5 20.5z" />
    <glyph glyph-name="numbersign.tf" 
d="M177 258h145l39 194h-146zM51 502h120l42 207h55l-42 -207h145l43 207h55l-43 -207h121v-50h-131l-38 -194h118v-50h-129l-42 -208h-55l42 208h-146l-41 -208h-55l41 208h-111v50h122l39 194h-110v50z" />
    <glyph glyph-name="logicalnot.tf" 
d="M438 197v202h-374v52h429v-254h-55z" />
    <glyph glyph-name="currency.tf" 
d="M77 313q0 39 12.5 74t35.5 63l-76 79l39 38l75 -79q29 20 62 32.5t71 12.5q35 0 68 -11t60 -30l73 75l39 -38l-72 -75q23 -28 37.5 -64t14.5 -77t-13 -76t-37 -63l71 -73l-38 -37l-72 73q-27 -21 -61 -33t-70 -12q-39 0 -73.5 13t-62.5 36l-74 -77l-38 37l75 78
q-46 57 -46 134zM130 313q0 -36 13 -66.5t35.5 -53t52.5 -35t65 -12.5q34 0 64 12.5t52.5 35t35 53t12.5 66.5t-12.5 66.5t-35 53t-52.5 35t-64 12.5q-35 0 -65 -12.5t-52.5 -35t-35.5 -53t-13 -66.5z" />
    <glyph glyph-name="plus.tf" 
d="M313 93h-53v210h-193v50h193v207h53v-207h195v-50h-195v-210z" />
    <glyph glyph-name="minus.tf" 
d="M78 353h421v-50h-421v50z" />
    <glyph glyph-name="multiply.tf" 
d="M80 142l178 185l-177 185l36 37l177 -185l178 185l37 -36l-180 -186l180 -185l-36 -37l-180 185l-177 -184z" />
    <glyph glyph-name="divide.tf" 
d="M237 505q0 20 14 34t34 14t34 -14t14 -34t-14 -34t-34 -14t-34 14t-14 34zM65 354h441v-53h-441v53zM237 149q0 20 14 34t34 14t34 -14t14 -34t-14 -34t-34 -14t-34 14t-14 34z" />
    <glyph glyph-name="equal.tf" 
d="M66 449h446v-49h-446v49zM66 256h446v-50h-446v50z" />
    <glyph glyph-name="less.tf" 
d="M83 354l402 207v-60l-343 -173l343 -175v-60l-402 207v54z" />
    <glyph glyph-name="greater.tf" 
d="M497 300l-401 -207v60l343 175l-343 173v60l401 -207v-54z" />
    <glyph glyph-name="florin.tf" horiz-adv-x="560" 
d="M258 423h-118v54h128l23 113q14 72 57.5 105.5t96.5 33.5q27 0 41.5 -3.5t22.5 -5.5v-55q-4 2 -17 5t-34 3q-18 0 -34.5 -5t-31 -17t-25.5 -31.5t-17 -49.5l-19 -93h133v-54h-144l-86 -432q-14 -72 -57 -105.5t-96 -33.5q-27 0 -41.5 3t-24.5 6v55q6 -2 20 -5t34 -3
q17 0 33.5 5t30.5 17t25 31.5t17 49.5z" />
    <glyph glyph-name="plusminus.tf" 
d="M314 218h-52v146h-188v49h188v146h52v-146h189v-49h-189v-146zM74 155h429v-50h-429v50z" />
    <glyph glyph-name="notequal.tf" 
d="M68 449h293l82 108h62l-82 -108h91v-49h-129l-110 -144h239v-50h-277l-85 -110h-62l85 110h-107v50h145l111 144h-256v49z" />
    <glyph glyph-name="approxequal.tf" 
d="M521 429q-26 -35 -57.5 -54t-73.5 -19q-23 0 -47 8t-50 22l-47 25q-17 9 -35 14.5t-34 5.5q-56 0 -95 -49l-35 30q26 36 57 55t73 19q23 0 46 -8t49 -22l46 -24q19 -11 39.5 -16.5t38.5 -5.5q29 0 50.5 11.5t41.5 36.5zM521 236q-26 -35 -57.5 -54t-73.5 -19
q-23 0 -47 7.5t-50 21.5l-47 26q-36 19 -69 19q-56 0 -95 -48l-35 30q26 36 57 55t73 19q23 0 46 -8t49 -22l46 -24q19 -11 39.5 -17t38.5 -6q29 0 50.5 11.5t41.5 37.5z" />
    <glyph glyph-name="lessequal.tf" 
d="M86 414l404 147v-55l-336 -119l336 -118v-55l-404 146v54zM86 155h404v-50h-404v50z" />
    <glyph glyph-name="greaterequal.tf" 
d="M488 360l-404 -146v55l336 118l-336 119v55l404 -147v-54zM488 105h-404v50h404v-50z" />
    <glyph glyph-name="period.tf" horiz-adv-x="560" 
d="M200 -4q-23 0 -36.5 14t-13.5 33q0 26 17.5 45t43.5 19q23 0 36 -15t13 -35q0 -26 -17.5 -43.5t-42.5 -17.5z" />
    <glyph glyph-name="comma.tf" horiz-adv-x="560" 
d="M172 44q0 26 18 43.5t44 17.5q24 0 41 -17t17 -48q0 -38 -15 -71.5t-40 -60t-56 -43t-63 -19.5l9 42q20 4 39 15.5t34 26.5t25.5 33t15.5 36q-6 -3 -20 -3q-21 0 -35 13t-14 35z" />
    <glyph glyph-name="colon.tf" horiz-adv-x="560" 
d="M273 371q-23 0 -36 14.5t-13 34.5q0 26 17.5 44t43.5 18q23 0 35.5 -14.5t12.5 -34.5q0 -26 -17.5 -44t-42.5 -18zM193 -7q-23 0 -36 14.5t-13 34.5q0 26 17 44t43 18q23 0 36 -14.5t13 -34.5q0 -26 -18 -44t-42 -18z" />
    <glyph glyph-name="semicolon.tf" horiz-adv-x="560" 
d="M292 372q-23 0 -36 14t-13 33q0 26 17 44t43 18q23 0 35.5 -14.5t12.5 -34.5q0 -26 -17.5 -43t-41.5 -17zM160 44q0 25 17.5 41.5t41.5 16.5t40.5 -16t16.5 -46q0 -37 -14.5 -69.5t-38.5 -58t-54 -41.5t-61 -19l8 41q19 4 37.5 14.5t33 25.5t25 32t15.5 35q-8 -3 -20 -3
q-20 0 -33.5 12.5t-13.5 34.5z" />
    <glyph glyph-name="space.tf" horiz-adv-x="560" 
 />
    <glyph glyph-name="zero.numr" horiz-adv-x="397" 
d="M70 478q0 33 9 74t29.5 77t54 61t83.5 25q35 0 59.5 -11.5t40 -31t22.5 -44t7 -50.5q0 -36 -9 -78t-30 -77.5t-54.5 -59.5t-82.5 -24q-63 0 -96 38t-33 101zM119 477q0 -38 19 -65.5t65 -27.5q32 0 55.5 19t38.5 48t22 62.5t7 62.5q0 37 -20 65.5t-65 28.5
q-34 0 -57 -20.5t-37.5 -50.5t-21 -63.5t-6.5 -58.5z" />
    <glyph glyph-name="one.numr" horiz-adv-x="267" 
d="M108 346l61 280q-4 -4 -15 -8t-24.5 -7.5t-27 -5.5t-22.5 -2l7 39q38 3 64.5 22t38.5 45h47l-78 -363h-51z" />
    <glyph glyph-name="two.numr" horiz-adv-x="376" 
d="M243 526q33 14 52 34t19 49q0 25 -17.5 44t-52.5 19q-38 0 -61.5 -25t-23.5 -67v-7l-47 1q-2 6 -2 10q0 27 9.5 51t27 41.5t42.5 27.5t57 10q29 0 51.5 -8.5t37.5 -22.5t23 -32.5t8 -38.5q0 -43 -27.5 -74t-69.5 -49l-78 -34q-51 -22 -64 -65h210l-10 -44h-267
q8 48 33 86.5t77 61.5z" />
    <glyph glyph-name="three.numr" horiz-adv-x="415" 
d="M186 569l139 96h-186l9 44h247l-11 -57l-132 -87q41 -2 70.5 -28.5t29.5 -70.5q0 -25 -10 -48t-28.5 -40.5t-44.5 -28t-59 -10.5q-58 0 -94 31.5t-36 78.5v8t1 8l48 7q-1 -5 -1 -14q0 -33 24 -54t59 -21q38 0 63.5 23.5t25.5 58.5q0 32 -22.5 48t-53.5 16h-10.5t-10.5 -2
z" />
    <glyph glyph-name="four.numr" horiz-adv-x="412" 
d="M80 484l223 225h62l-51 -236h68l-9 -44h-67q-3 -17 -7 -32q-3 -14 -6 -27.5t-5 -23.5h-50l18 83h-186zM303 650l-176 -177h137z" />
    <glyph glyph-name="five.numr" horiz-adv-x="400" 
d="M121 466v-6q0 -32 20.5 -54t59.5 -22q37 0 63 23t26 63q0 32 -21 51t-56 19q-39 0 -70 -24l-42 22l80 171h199l-10 -45h-163l-47 -103q15 11 34 16t35 5q53 0 83.5 -29.5t30.5 -77.5q0 -28 -11 -52.5t-30 -43t-45.5 -29.5t-57.5 -11q-29 0 -53 9t-41 24.5t-26 35.5t-9 43
v6z" />
    <glyph glyph-name="six.numr" horiz-adv-x="381" 
d="M361 650q-14 9 -33.5 15t-48.5 6q-27 0 -50.5 -9.5t-42.5 -27t-33 -40.5t-21 -50q13 18 41 32t59 14q53 0 83.5 -31t30.5 -79q0 -32 -12.5 -57.5t-33 -44.5t-47.5 -29t-55 -10q-55 0 -91.5 36.5t-36.5 100.5q0 55 17.5 99.5t47 75.5t67.5 47.5t79 16.5q32 0 57.5 -6.5
t42.5 -20.5zM216 547q-17 0 -33.5 -7t-29.5 -19t-20.5 -28.5t-7.5 -35.5q0 -33 21.5 -53.5t53.5 -20.5q18 0 34.5 6.5t30 18.5t21.5 29t8 39q0 32 -21.5 51.5t-56.5 19.5z" />
    <glyph glyph-name="seven.numr" horiz-adv-x="349" 
d="M369 664q-30 -19 -63.5 -46.5t-65 -65.5t-59.5 -89t-47 -117h-54q18 66 47 118.5t61 92t63 66t52 41.5h-214l9 45h281z" />
    <glyph glyph-name="eight.numr" horiz-adv-x="386" 
d="M201 339q-25 0 -48.5 6t-42 18t-29.5 30t-11 42q0 38 26 65.5t71 35.5q-23 9 -37 29t-14 43q0 47 37 77t93 30t87.5 -27t31.5 -66q0 -35 -24 -61t-60 -34q25 -10 41 -31t16 -46q0 -24 -10.5 -44.5t-28.5 -35t-43 -23t-55 -8.5zM167 608q0 -28 21 -42t49 -14q32 0 54.5 17
t22.5 48q0 23 -18 39t-53 17q-34 0 -55 -18t-21 -47zM122 441q0 -30 25 -44.5t56 -14.5q38 0 61.5 19t23.5 50q0 25 -20 43t-62 18q-38 0 -61 -20t-23 -51z" />
    <glyph glyph-name="nine.numr" horiz-adv-x="390" 
d="M223 508q18 0 34 7t28.5 19t19.5 28.5t7 35.5q0 31 -22.5 51.5t-54.5 20.5q-17 0 -33 -6t-28.5 -17.5t-20 -28t-7.5 -37.5q0 -35 22.5 -54t54.5 -19zM85 412q34 -28 86 -28q50 0 87.5 33t50.5 98q-15 -23 -42 -36.5t-55 -13.5q-24 0 -45.5 8t-37.5 22t-25.5 34.5
t-9.5 46.5q0 31 12 56.5t31.5 43.5t45.5 28t55 10q56 0 92.5 -35t36.5 -101q0 -50 -13.5 -94t-39 -76t-62.5 -50.5t-83 -18.5q-29 0 -57.5 9.5t-46.5 23.5z" />
    <glyph glyph-name="zero.dnom" horiz-adv-x="410" 
d="M32 134q0 33 9 74t29.5 77t54 61t83.5 25q35 0 59.5 -11.5t40 -31t22.5 -44t7 -50.5q0 -36 -9 -78t-30 -77.5t-54.5 -59.5t-82.5 -24q-63 0 -96 38t-33 101zM81 133q0 -38 19 -65.5t65 -27.5q32 0 55.5 19t38.5 48t22 62.5t7 62.5q0 37 -20 65.5t-65 28.5
q-34 0 -57 -20.5t-37.5 -50.5t-21 -63.5t-6.5 -58.5z" />
    <glyph glyph-name="one.dnom" horiz-adv-x="267" 
d="M60 0l61 280q-4 -4 -15 -8t-24.5 -7.5t-27 -5.5t-22.5 -2l7 39q38 3 64.5 22t38.5 45h47l-78 -363h-51z" />
    <glyph glyph-name="two.dnom" horiz-adv-x="371" 
d="M185 180q33 14 52 34t19 49q0 25 -17.5 44t-52.5 19q-38 0 -61.5 -25t-23.5 -67v-7l-47 1q-2 6 -2 10q0 27 9.5 51t27 41.5t42.5 27.5t57 10q29 0 51.5 -8.5t37.5 -22.5t23 -32.5t8 -38.5q0 -43 -27.5 -74t-69.5 -49l-78 -34q-51 -22 -64 -65h210l-10 -44h-267
q8 48 33 86.5t77 61.5z" />
    <glyph glyph-name="three.dnom" horiz-adv-x="415" 
d="M128 224l139 96h-186l9 44h247l-11 -57l-132 -87q41 -2 70.5 -28.5t29.5 -70.5q0 -25 -10 -48t-28.5 -40.5t-44.5 -28t-59 -10.5q-58 0 -94 31.5t-36 78.5v8t1 8l48 7q-1 -5 -1 -14q0 -33 24 -54t59 -21q38 0 63.5 23.5t25.5 58.5q0 32 -22.5 48t-53.5 16h-10.5t-10.5 -2
z" />
    <glyph glyph-name="four.dnom" horiz-adv-x="412" 
d="M13 138l222 225h62l-51 -236h68l-9 -44h-67q-3 -17 -7 -32q-3 -14 -6 -27.5t-5 -23.5h-50l18 83h-186zM235 304l-175 -177h136z" />
    <glyph glyph-name="five.dnom" horiz-adv-x="393" 
d="M63 120v-6q0 -32 20.5 -54t59.5 -22q37 0 63 23t26 63q0 32 -21 51t-56 19q-39 0 -70 -24l-42 22l80 171h199l-10 -45h-163l-47 -103q15 11 34 16t35 5q53 0 83.5 -29.5t30.5 -77.5q0 -28 -11 -52.5t-30 -43t-45.5 -29.5t-57.5 -11q-29 0 -53 9t-41 24.5t-26 35.5t-9 43
v6z" />
    <glyph glyph-name="six.dnom" horiz-adv-x="381" 
d="M303 304q-14 10 -33 15.5t-48 5.5q-27 0 -51 -9.5t-43 -27t-33 -40.5t-21 -50q13 18 41 32t59 14q53 0 83.5 -31t30.5 -79q0 -32 -12.5 -57.5t-33 -44.5t-47.5 -29t-55 -10q-55 0 -91.5 36.5t-36.5 100.5q0 55 18 99.5t47 75.5t67 47.5t79 16.5q66 0 100 -26zM159 201
q-18 0 -34.5 -7t-29 -19t-20.5 -28.5t-8 -35.5q0 -33 21.5 -53.5t53.5 -20.5q18 0 34.5 6.5t30 18.5t21.5 29t8 39q0 32 -21 51.5t-56 19.5z" />
    <glyph glyph-name="seven.dnom" horiz-adv-x="355" 
d="M317 318q-30 -19 -63.5 -46.5t-65 -65.5t-59.5 -89t-47 -117h-54q18 66 47 118.5t61 92t63 66t52 41.5h-214l9 45h281z" />
    <glyph glyph-name="eight.dnom" horiz-adv-x="386" 
d="M143 -7q-25 0 -48.5 6t-42 18t-29.5 30t-11 42q0 38 26 65.5t71 35.5q-23 9 -37 29t-14 43q0 47 37 77t93 30t87.5 -27t31.5 -66q0 -35 -24 -61t-60 -34q25 -10 41 -31t16 -46q0 -24 -10.5 -44.5t-28.5 -35t-43 -23t-55 -8.5zM109 262q0 -28 21 -42t49 -14q32 0 54.5 17
t22.5 48q0 23 -18 39t-53 17q-34 0 -55 -18t-21 -47zM64 95q0 -30 25 -44.5t56 -14.5q38 0 61.5 19t23.5 50q0 25 -20 43t-62 18q-38 0 -61 -20t-23 -51z" />
    <glyph glyph-name="nine.dnom" horiz-adv-x="392" 
d="M170 162q18 0 34 7t28.5 19t19.5 28.5t7 35.5q0 31 -22.5 51.5t-54.5 20.5q-17 0 -33 -6t-28.5 -18t-20 -28.5t-7.5 -37.5q0 -35 22.5 -53.5t54.5 -18.5zM32 65q34 -28 86 -28q50 0 87.5 33.5t50.5 97.5q-14 -23 -41 -36t-56 -13q-24 0 -45.5 8t-37.5 22t-25.5 34.5
t-9.5 46.5q0 31 12 56.5t31.5 43.5t45.5 28t55 10q56 0 92.5 -35.5t36.5 -101.5q0 -50 -13.5 -93.5t-39 -76t-62 -51t-82.5 -18.5q-30 0 -58.5 9.5t-46.5 24.5z" />
    <glyph glyph-name="uni2070" unicode="&#x2070;" horiz-adv-x="403" 
d="M70 478q0 33 9 74t29.5 77t54 61t83.5 25q35 0 59.5 -11.5t40 -31t22.5 -44t7 -50.5q0 -36 -9 -77.5t-30 -77t-54.5 -59.5t-82.5 -24q-63 0 -96 38t-33 100zM119 478q0 -38 19 -65.5t65 -27.5q32 0 55.5 19t38.5 47.5t22 62t7 62.5q0 38 -20 66t-65 28q-34 0 -57 -20.5
t-37.5 -50.5t-21 -63t-6.5 -58z" />
    <glyph glyph-name="uni2074" unicode="&#x2074;" horiz-adv-x="419" 
d="M74 484l222 225h62l-50 -236h67l-8 -44h-68q-3 -17 -7 -32q-3 -14 -6 -27.5t-5 -23.5h-50l18 83h-186zM296 650l-175 -177h137z" />
    <glyph glyph-name="uni2075" unicode="&#x2075;" horiz-adv-x="406" 
d="M121 466v-6q0 -32 20.5 -54t59.5 -22q37 0 63 23t26 63q0 32 -21 51t-56 19q-39 0 -70 -24l-42 22l80 171h199l-10 -45h-163l-47 -103q15 11 34 16t35 5q53 0 83.5 -29.5t30.5 -77.5q0 -28 -11 -52.5t-30 -43t-45.5 -29.5t-57.5 -11q-29 0 -53 9t-41 24.5t-26 35.5t-9 43
v6z" />
    <glyph glyph-name="uni2076" unicode="&#x2076;" horiz-adv-x="387" 
d="M361 651q-14 9 -33.5 15t-48.5 6q-27 0 -50.5 -9.5t-42.5 -27t-33 -40.5t-21 -50q13 18 41 32t59 14q53 0 83.5 -31t30.5 -79q0 -32 -12.5 -58t-33 -44.5t-47.5 -28.5t-55 -10q-55 0 -91.5 36t-36.5 101q0 55 17.5 99.5t47 75.5t67.5 47.5t79 16.5q65 0 100 -27zM216 547
q-17 0 -33.5 -7t-29.5 -19t-20.5 -28.5t-7.5 -35.5q0 -32 21.5 -53t53.5 -21q18 0 34.5 6.5t30 18.5t21.5 29.5t8 38.5q0 33 -21.5 52t-56.5 19z" />
    <glyph glyph-name="uni2077" unicode="&#x2077;" horiz-adv-x="355" 
d="M369 664q-30 -19 -63.5 -46.5t-65 -65.5t-59.5 -89t-47 -117h-54q18 66 47 118.5t61 92t63 66t52 41.5h-214l9 45h281z" />
    <glyph glyph-name="uni2078" unicode="&#x2078;" horiz-adv-x="392" 
d="M201 340q-25 0 -48.5 6t-42 18t-29.5 30t-11 42q0 38 26 65.5t71 35.5q-23 9 -37 29t-14 43q0 47 37 76.5t93 29.5t87.5 -26.5t31.5 -65.5q0 -35 -24 -61t-60 -34q25 -11 41 -31.5t16 -46.5q0 -24 -10.5 -44t-28.5 -35t-43 -23t-55 -8zM167 608q0 -27 21 -41.5t49 -14.5
q32 0 54.5 17t22.5 49q0 23 -18 39t-53 17q-34 0 -55 -18.5t-21 -47.5zM122 442q0 -30 25 -44.5t56 -14.5q38 0 61.5 19t23.5 50q0 25 -20 42.5t-62 17.5q-38 0 -61 -20t-23 -50z" />
    <glyph glyph-name="uni2079" unicode="&#x2079;" horiz-adv-x="389" 
d="M216 510q18 0 34.5 7t28.5 19t19.5 28.5t7.5 35.5q0 31 -22.5 51.5t-54.5 20.5q-17 0 -33 -6t-28.5 -18t-20 -28.5t-7.5 -37.5q0 -35 22 -53.5t54 -18.5zM79 413q17 -14 39 -21t46 -7q50 0 87.5 33t50.5 98q-14 -23 -41 -36t-55 -13q-24 0 -46 8t-38 22t-25.5 34.5
t-9.5 46.5q0 30 12 55.5t32 44t46 28.5t55 10q55 0 91.5 -35.5t36.5 -101.5q0 -50 -13.5 -93.5t-38.5 -76t-62 -51t-83 -18.5q-30 0 -58 9.5t-47 24.5z" />
    <glyph glyph-name="uni2080" unicode="&#x2080;" horiz-adv-x="397" 
d="M15 50q0 33 9 74t30 77t54.5 61t83.5 25q35 0 59.5 -11.5t39.5 -31t22 -44t7 -50.5q0 -36 -9 -78t-30 -77.5t-54.5 -59.5t-81.5 -24q-63 0 -96.5 38.5t-33.5 100.5zM65 49q0 -38 19 -65.5t65 -27.5q32 0 55 19t38 48t22 62.5t7 62.5q0 38 -19.5 66t-64.5 28
q-34 0 -57 -20.5t-37.5 -50.5t-21 -63.5t-6.5 -58.5z" />
    <glyph glyph-name="uni2081" unicode="&#x2081;" horiz-adv-x="255" 
d="M48 -78l61 280q-4 -4 -15 -8t-24.5 -7.5t-27 -5.5t-22.5 -2l7 39q38 3 64.5 22t38.5 45h47l-78 -363h-51z" />
    <glyph glyph-name="uni2082" unicode="&#x2082;" horiz-adv-x="374" 
d="M175 98q33 15 52.5 34.5t19.5 49.5q0 25 -18 43.5t-53 18.5q-38 0 -61.5 -24.5t-23.5 -66.5q0 -5 1 -7h-48q-2 8 -2 10q0 56 36.5 93.5t99.5 37.5q29 0 51.5 -8.5t37.5 -22.5t23 -32.5t8 -38.5q0 -43 -27.5 -74t-69.5 -50l-77 -33q-27 -12 -43 -28.5t-22 -36.5h210
l-10 -45h-267q8 48 33 86.5t77 61.5z" />
    <glyph glyph-name="uni2083" unicode="&#x2083;" horiz-adv-x="410" 
d="M118 141l140 96h-187l9 45h247l-11 -57l-132 -87q41 -2 70.5 -28.5t29.5 -70.5q0 -25 -10 -48t-28.5 -40.5t-44.5 -28t-59 -10.5q-58 0 -94 31.5t-36 78.5v8t1 8l49 7q-1 -4 -1 -7.5v-6.5q0 -33 23.5 -54t58.5 -21q38 0 64 23.5t26 58.5q0 32 -23 48t-54 16
q-5 0 -10.5 -0.5t-10.5 -1.5z" />
    <glyph glyph-name="uni2084" unicode="&#x2084;" horiz-adv-x="412" 
d="M13 57l222 224h62l-51 -236h68l-9 -44h-67q-3 -16 -7 -31q-3 -13 -6 -27.5t-5 -24.5h-50l18 83h-186zM235 222l-175 -177h136z" />
    <glyph glyph-name="uni2085" unicode="&#x2085;" horiz-adv-x="393" 
d="M53 39v-7q0 -31 20.5 -53.5t59.5 -22.5q37 0 63 23.5t26 62.5q0 32 -21 51t-56 19q-39 0 -70 -24l-42 23l80 170h199l-9 -44h-164l-47 -104q15 11 34 16t35 5q53 0 83.5 -29t30.5 -77q0 -28 -11 -53t-30 -43.5t-45.5 -29.5t-57.5 -11q-29 0 -53 9t-41 24.5t-26 35.5
t-9 43v7z" />
    <glyph glyph-name="uni2086" unicode="&#x2086;" horiz-adv-x="381" 
d="M293 222q-14 10 -33 15.5t-48 5.5q-27 0 -51 -9.5t-43 -26.5t-33 -40t-21 -50q13 18 41 31.5t59 13.5q53 0 83.5 -30.5t30.5 -78.5q0 -32 -12.5 -58t-33 -45t-47.5 -29t-55 -10q-55 0 -91.5 36.5t-36.5 100.5q0 56 18 100.5t47 75t67 47t79 16.5q66 0 100 -26zM149 119
q-18 0 -34.5 -7t-29 -19t-20.5 -28.5t-8 -35.5q0 -32 21.5 -53t53.5 -21q18 0 34.5 6.5t30 18.5t21.5 29.5t8 38.5q0 32 -21 51.5t-56 19.5z" />
    <glyph glyph-name="uni2087" unicode="&#x2087;" horiz-adv-x="355" 
d="M311 236q-30 -19 -63.5 -46.5t-65 -65.5t-59.5 -89t-47 -117h-54q18 67 47 119.5t61 92t63 66t52 41.5h-214l9 44h281z" />
    <glyph glyph-name="uni2088" unicode="&#x2088;" horiz-adv-x="380" 
d="M136 -89q-25 0 -48.5 6t-42 18t-29.5 30.5t-11 42.5q0 38 26.5 65t71.5 35q-23 10 -37 29.5t-14 42.5q0 48 37 77.5t93 29.5t87.5 -26.5t31.5 -66.5q0 -35 -24 -60.5t-60 -33.5q25 -11 41 -32t16 -46q0 -24 -10.5 -44.5t-28.5 -35t-43.5 -23t-55.5 -8.5zM102 180
q0 -27 21.5 -41.5t49.5 -14.5q32 0 54.5 17t22.5 49q0 23 -18 39t-54 16q-33 0 -54.5 -18t-21.5 -47zM57 13q1 -29 25.5 -44t55.5 -15q39 0 62 19t23 51q0 24 -20 42t-61 18q-38 0 -61.5 -20t-23.5 -51z" />
    <glyph glyph-name="uni2089" unicode="&#x2089;" horiz-adv-x="392" 
d="M163 81q18 0 34.5 7t28.5 19t19.5 28.5t7.5 35.5q0 31 -22.5 51.5t-54.5 20.5q-17 0 -33 -6t-28.5 -17.5t-20 -28t-7.5 -37.5q0 -35 22 -54t54 -19zM26 -15q34 -28 86 -28q49 0 87 33t50 98q-14 -23 -41 -36.5t-55 -13.5q-24 0 -46 8t-38 22t-25.5 34.5t-9.5 46.5
q0 31 12 56.5t32 43.5t46 28t55 10q55 0 92 -35t37 -101q0 -50 -13.5 -94t-39 -76t-62.5 -50.5t-83 -18.5q-29 0 -57.5 9.5t-47.5 23.5z" />
    <glyph glyph-name="questiondown.case" horiz-adv-x="479" 
d="M355 671q0 -23 -15.5 -39.5t-39.5 -16.5q-20 0 -32 13t-12 31q0 23 16.5 39.5t38.5 16.5q20 0 32 -13t12 -31zM187 -12q-46 0 -81 14t-59 37t-36.5 53t-12.5 62q0 69 38.5 118t98.5 84l52 30q43 25 59 58t16 77h54q1 -2 1 -5.5v-5.5q-2 -62 -29 -102.5t-79 -70.5l-50 -30
q-47 -28 -72 -63t-25 -83q0 -23 8 -44.5t24 -37.5t41 -25.5t58 -9.5q39 0 69.5 15t51.5 39t31.5 55.5t10.5 64.5v12l59 -11q1 -3 1 -9q-1 -44 -17 -84t-45.5 -71t-72 -49t-94.5 -18z" />
    <glyph glyph-name="exclamdown.case" horiz-adv-x="271" 
d="M241 670q0 -23 -15.5 -40t-39.5 -17q-20 0 -32 13.5t-12 30.5q0 23 16 39.5t38 16.5q20 0 32.5 -12.5t12.5 -30.5zM96 0h-78l127 519h43z" />
    <glyph glyph-name="hyphen.case" horiz-adv-x="350" 
d="M33 310l11 54h263l-11 -54h-263z" />
    <glyph glyph-name="endash.case" horiz-adv-x="615" 
d="M43 310l11 54h500l-11 -54h-500z" />
    <glyph glyph-name="emdash.case" horiz-adv-x="1054" 
d="M53 310l11 54h919l-11 -54h-919z" />
    <glyph glyph-name="guilsinglleft.case" horiz-adv-x="254" 
d="M114 147l-96 192l171 190h67l-176 -195l91 -187h-57z" />
    <glyph glyph-name="guilsinglright.case" horiz-adv-x="260" 
d="M119 529l95 -193l-172 -189h-66l177 195l-93 187h59z" />
    <glyph glyph-name="guillemotleft.case" horiz-adv-x="422" 
d="M114 147l-96 192l171 190h67l-176 -195l91 -187h-57zM282 147l-96 192l171 190h67l-176 -195l91 -187h-57z" />
    <glyph glyph-name="guillemotright.case" horiz-adv-x="434" 
d="M293 529l95 -193l-172 -189h-67l177 195l-92 187h59zM119 529l95 -193l-172 -189h-66l177 195l-93 187h59z" />
    <glyph glyph-name="parenleft.case" horiz-adv-x="263" 
d="M37 228q0 181 75.5 320t211.5 238l31 -35q-61 -47 -110 -101t-84 -118.5t-54 -140t-19 -164.5q0 -80 24 -152.5t62 -135.5l-43 -26q-38 61 -66 142t-28 173z" />
    <glyph glyph-name="parenright.case" horiz-adv-x="261" 
d="M227 457q0 -89 -19.5 -167t-56.5 -145.5t-89.5 -126t-119.5 -108.5l-31 34q60 48 108.5 101.5t83 116t53.5 136t19 160.5q0 81 -26.5 158t-67.5 140l43 26q20 -30 38.5 -67.5t33 -79.5t23 -87t8.5 -91z" />
    <glyph glyph-name="bracketleft.case" horiz-adv-x="239" 
d="M-7 -63l181 857h155l-11 -50h-101l-161 -757h102l-11 -50h-154z" />
    <glyph glyph-name="bracketright.case" horiz-adv-x="241" 
d="M-90 -63l10 50h102l160 757h-101l11 50h154l-181 -857h-155z" />
    <glyph glyph-name="braceleft.case" horiz-adv-x="286" 
d="M39 395q43 3 77 26.5t45 73.5l31 144q17 83 60 118.5t115 35.5h9l-10 -49h-9q-50 0 -76 -25t-37 -77l-34 -159q-10 -48 -43 -80t-83 -40q38 -6 57.5 -31.5t19.5 -61.5q0 -8 -1 -15.5t-3 -16.5l-31 -149q-4 -20 -4 -40q0 -32 17 -47t57 -15h8l-10 -49h-9q-57 0 -86 27
t-29 78q0 12 1 23.5t4 25.5l30 142q3 15 3 27q0 37 -22.5 56t-59.5 21z" />
    <glyph glyph-name="braceright.case" horiz-adv-x="286" 
d="M257 336q-44 -3 -78 -26.5t-45 -73.5l-30 -144q-18 -83 -60.5 -118.5t-114.5 -35.5h-10l11 49h8q51 0 76.5 24t36.5 78l34 159q10 48 43 80t83 39q-38 8 -57 33t-19 61q0 14 3 31l32 150q4 20 4 39q0 63 -74 63h-9l10 49h9q58 0 86.5 -27.5t28.5 -78.5q0 -11 -1 -23
t-4 -26l-30 -141q-3 -15 -3 -28q0 -36 23 -55t59 -22z" />
    <glyph glyph-name="thinspace" unicode="&#x2009;" horiz-adv-x="0" 
 />
    <glyph glyph-name="divisionslash" unicode="&#x2215;" horiz-adv-x="364" 
d="M438 648l-448 -648h-62l449 648h61z" />
    <glyph glyph-name="arrowleft" unicode="&#x2190;" horiz-adv-x="987" 
d="M4 289l195 165v-137h714v-54h-714v-137z" />
    <glyph glyph-name="arrowup" unicode="&#x2191;" horiz-adv-x="404" 
d="M391 578h-147v-726h-54v726h-147l174 222z" />
    <glyph glyph-name="arrowright" unicode="&#x2192;" horiz-adv-x="992" 
d="M731 116v146h-699v54h699v148l207 -175z" />
    <glyph glyph-name="arrowdown" unicode="&#x2193;" horiz-adv-x="391" 
d="M181 -162l-178 225h151v723h54v-723h151z" />
    <glyph glyph-name="uni2196" unicode="&#x2196;" horiz-adv-x="876" 
d="M322 709l-106 -106l573 -573l-39 -38l-572 572l-107 -107v252h251z" />
    <glyph glyph-name="uni2197" unicode="&#x2197;" horiz-adv-x="702" 
d="M664 709v-252l-108 107l-572 -572l-39 38l574 573l-106 106h251z" />
    <glyph glyph-name="uni2198" unicode="&#x2198;" horiz-adv-x="858" 
d="M519 0l106 106l-573 573l38 38l573 -572l107 107v-252h-251z" />
    <glyph glyph-name="uni2199" unicode="&#x2199;" horiz-adv-x="735" 
d="M33 0v252l107 -107l572 572l39 -38l-573 -573l106 -106h-251z" />
    <glyph glyph-name="uni21BA" unicode="&#x21ba;" horiz-adv-x="693" 
d="M66 0v595h450v127l184 -154l-184 -154v127h-396v-541h-54z" />
    <glyph glyph-name="uni21BB" unicode="&#x21bb;" horiz-adv-x="770" 
d="M44 567l184 155v-128h430v-595h-54v541h-376v-127z" />
    <glyph glyph-name="uni21A9" unicode="&#x21a9;" horiz-adv-x="715" 
d="M627 709v-595h-450v-127l-184 154l184 154v-127h396v541h54z" />
    <glyph glyph-name="uni21B0" unicode="&#x21b0;" horiz-adv-x="795" 
d="M715 141l-183 -154v127h-450v595h54v-541h396v127z" />
    <glyph glyph-name="uni21B1" unicode="&#x21b1;" horiz-adv-x="789" 
d="M58 709h565v-539h127l-154 -184l-154 184h127v485h-511v54z" />
    <glyph glyph-name="uni21B2" unicode="&#x21b2;" horiz-adv-x="733" 
d="M32 170h127v539h565v-54h-511v-485h127l-154 -184z" />
    <glyph glyph-name="uni21B3" unicode="&#x21b3;" horiz-adv-x="1060" 
d="M58 540l195 164v-137h722v-54h-722v-137zM807 6v137h-722v54h722v137l195 -164z" />
    <glyph glyph-name="uni21B4" unicode="&#x21b4;" horiz-adv-x="807" 
d="M407 654h168q42 0 78.5 -15t64.5 -41t44 -62.5t16 -78.5q0 -44 -16.5 -80t-45 -62t-65.5 -40.5t-78 -14.5h-369v-137l-195 164l195 164v-137h367q30 0 58 10t49.5 28.5t34 45t12.5 59.5q0 31 -12 57.5t-33 45.5t-49 29.5t-60 10.5h-164v54z" />
    <glyph glyph-name="uni21B5" unicode="&#x21b5;" horiz-adv-x="1065" 
d="M48 355h124q0 76 29 143t78.5 116.5t116.5 78.5t143 29q50 0 95.5 -12t85.5 -35l-24 -48q-35 20 -74.5 30.5t-82.5 10.5q-65 0 -122 -24.5t-99.5 -67t-67 -99.5t-24.5 -122h128l-153 -191zM906 355q0 -77 -29 -144t-79 -116.5t-116.5 -78.5t-142.5 -29q-50 0 -95.5 12.5
t-86.5 35.5l24 48q35 -20 74.5 -31t82.5 -11q65 0 122.5 24.5t100 67t67 100t24.5 122.5h-127l153 191l153 -191h-125z" />
    <glyph glyph-name="uni21C6" unicode="&#x21c6;" horiz-adv-x="944" 
d="M758 546l153 -191h-123q0 -76 -29 -143t-79 -117t-117 -79t-143 -29t-143 29t-116.5 79t-78.5 117t-29 143t29 143t78.5 116.5t116.5 78.5t143 29q50 0 95.5 -12t86.5 -35l-24 -48q-35 20 -74.5 30.5t-82.5 10.5q-65 0 -122.5 -24.5t-100 -67t-67 -99.5t-24.5 -122
t24.5 -122.5t67 -100t100 -67t122.5 -24.5t122 24.5t99.5 67t67 100t24.5 122.5h-129z" />
    <glyph glyph-name="uni2160" unicode="&#x2160;" horiz-adv-x="491" 
d="M502 647l-11 -56h-164l-113 -534h163l-12 -57h-387l11 57h163l113 534h-162l11 56h388z" />
    <glyph glyph-name="uni2161" unicode="&#x2161;" horiz-adv-x="755" 
d="M766 647l-11 -56h-158l-113 -534h157l-12 -57h-651l11 57h157l113 534h-156l11 56h652zM422 57l113 534h-214l-113 -534h214z" />
    <glyph glyph-name="uni2162" unicode="&#x2162;" horiz-adv-x="1024" 
d="M-11 57h157l113 534h-156l11 56h922l-12 -56h-157l-112 -534h156l-12 -57h-921zM532 591h-211l-113 -534h211zM805 591h-211l-112 -534h211z" />
    <glyph glyph-name="uni2163" unicode="&#x2163;" horiz-adv-x="986" 
d="M114 648h887l-11 -56h-113l-298 -535h298l-12 -57h-887l11 57h151l114 535h-151zM536 88l274 504h-334zM202 57h276l-68 535h-94z" />
    <glyph glyph-name="uni2164" unicode="&#x2164;" horiz-adv-x="776" 
d="M273 57l-70 535h-108l11 56h685l-12 -56h-108l-298 -535h289l-12 -57h-676l12 57h287zM330 88l274 504h-334z" />
    <glyph glyph-name="uni2165" unicode="&#x2165;" horiz-adv-x="986" 
d="M111 648h887l-12 -56h-142l-114 -535h143l-12 -57h-887l11 57h297l-69 535h-113zM339 88l275 504h-334zM383 57h286l113 535h-101z" />
    <glyph glyph-name="uni2166" unicode="&#x2166;" horiz-adv-x="1274" 
d="M-26 0l11 57h296l-67 535h-115l11 56h1175l-11 -56h-157l-114 -535h157l-11 -57h-1175zM1055 592h-211l-114 -535h212zM781 592h-101l-297 -535h285zM614 592h-334l59 -504z" />
    <glyph glyph-name="uni2167" unicode="&#x2167;" horiz-adv-x="1527" 
d="M114 648h1424l-11 -56h-154l-114 -535h154l-12 -57h-1423l11 57h294l-66 535h-114zM340 88l272 504h-329zM383 57h285l113 535h-102zM994 57h203l114 535h-203zM730 57h202l114 535h-203z" />
    <glyph glyph-name="uni2168" unicode="&#x2168;" horiz-adv-x="956" 
d="M114 647h857l-11 -56h-102l-248 -271l130 -263h107l-12 -57h-857l11 57h151l113 534h-150zM583 369l202 222h-308zM407 591h-92l-113 -534h95l243 263zM368 57h302l-105 215z" />
    <glyph glyph-name="uni2169" unicode="&#x2169;" horiz-adv-x="743" 
d="M195 591h-96l12 56h648l-12 -56h-98l-250 -273l128 -261h107l-12 -57h-648l11 57h103l241 261zM373 367l203 224h-312zM159 57h299l-104 212z" />
    <glyph glyph-name="uni216C" unicode="&#x216c;" horiz-adv-x="626" 
d="M472 647l-11 -56h-154l-113 -534h265l46 220h63l-58 -277h-532l11 57h143l113 534h-142l11 56h358z" />
    <glyph glyph-name="uni216D" unicode="&#x216d;" horiz-adv-x="687" 
d="M686 649l-45 -215h-56q-2 37 -15.5 68t-38.5 53.5t-60.5 35.5t-81.5 13q-49 0 -99 -20.5t-90 -62t-65.5 -104.5t-25.5 -148q0 -54 17.5 -96t47.5 -71t70.5 -44t87.5 -15q43 0 78.5 13t62.5 35.5t45.5 54t27.5 67.5l1 7h62l-47 -220h-60l15 76q-31 -38 -78.5 -63.5
t-113.5 -25.5q-60 0 -111 20.5t-88 57.5t-57.5 89t-20.5 114q0 97 32 170.5t82.5 123t113 74.5t122.5 25q85 0 134 -32.5t72 -78.5l21 99h61z" />
    <glyph glyph-name="uni216E" unicode="&#x216e;" horiz-adv-x="710" 
d="M-11 57h149l113 535h-148l11 56h295q53 0 99 -16t80 -47.5t53.5 -78t19.5 -107.5q0 -87 -29.5 -160.5t-80.5 -126.5t-119 -82.5t-145 -29.5h-309zM198 57h87q56 0 112 22t101 64.5t73 106.5t28 148q0 48 -15 84.5t-41.5 60.5t-62.5 36.5t-78 12.5h-89z" />
    <glyph glyph-name="uni216F" unicode="&#x216f;" horiz-adv-x="1043" 
d="M291 0h-313l11 57h131l112 535h-129l11 56h217l129 -563l368 563h227l-12 -56h-134l-112 -535h136l-12 -57h-313l11 57h117l106 506l-371 -563h-51l-133 564l-107 -507h122z" />
    <glyph glyph-name="uni2780" unicode="&#x2780;" horiz-adv-x="828" 
d="M43 354q0 76 28.5 143t77.5 117t115 79t141 29t141.5 -29t116 -79t78.5 -117t29 -143q0 -75 -29 -142t-78.5 -117t-116 -79t-141.5 -29t-141 29t-115 79t-77.5 117t-28.5 142zM93 354q0 -67 24.5 -125t66.5 -101.5t99 -68.5t122 -25t122 25t99 68.5t66.5 101.5t24.5 125
t-24.5 126t-66.5 102t-99 68t-122 25t-122 -25t-99 -68t-66.5 -102t-24.5 -126zM411 167q-41 0 -68 16t-44 39q-20 28 -28 63t-8 70t8 70.5t28 63.5q17 23 44 38.5t68 15.5q42 0 69 -15.5t44 -38.5q20 -28 27.5 -63.5t7.5 -70.5t-7.5 -70t-27.5 -63q-17 -23 -44 -39t-69 -16
zM411 212q29 0 47.5 13t29.5 33.5t15 46t4 50.5t-4 50.5t-15 46t-29.5 33.5t-47.5 13t-47 -13t-29 -33.5t-15 -46t-4 -50.5t4 -50.5t15 -46t29 -33.5t47 -13z" />
    <glyph glyph-name="uni2781" unicode="&#x2781;" horiz-adv-x="828" 
d="M43 354q0 76 28.5 143t77.5 117t115 79t141 29t141.5 -29t116 -79t78.5 -117t29 -143q0 -75 -29 -142t-78.5 -117t-116 -79t-141.5 -29t-141 29t-115 79t-77.5 117t-28.5 142zM93 354q0 -67 24.5 -125t66.5 -101.5t99 -68.5t122 -25t122 25t99 68.5t66.5 101.5t24.5 125
t-24.5 126t-66.5 102t-99 68t-122 25t-122 -25t-99 -68t-66.5 -102t-24.5 -126zM393 174v277q-3 -3 -13.5 -7.5t-24 -9t-27 -7.5t-22.5 -4v40q38 5 60.5 26.5t28.5 47.5h49v-363h-51z" />
    <glyph glyph-name="uni2782" unicode="&#x2782;" horiz-adv-x="828" 
d="M405 722q75 0 141.5 -29t116 -79t78.5 -117t29 -143q0 -75 -29 -142t-78.5 -117t-116 -79t-141.5 -29t-141 29t-115 79t-77.5 117t-28.5 142q0 76 28.5 143t77.5 117t115 79t141 29zM93 354q0 -67 24.5 -125t66.5 -101.5t99 -68.5t122 -25t122 25t99 68.5t66.5 101.5
t24.5 125t-24.5 126t-66.5 102t-99 68t-122 25t-122 -25t-99 -68t-66.5 -102t-24.5 -126zM429 359q24 15 39 34.5t15 42.5q0 26 -19 46t-54 20q-34 0 -55.5 -20t-21.5 -55q0 -4 0.5 -10.5t1.5 -12.5l-50 4q-2 5 -2.5 12t-0.5 11q0 24 9 44.5t25.5 36t40.5 24.5t53 9
t52.5 -8.5t39.5 -23.5t24.5 -35t8.5 -42q0 -36 -20 -62.5t-52 -46.5l-73 -46q-18 -11 -30.5 -26t-15.5 -34h196v-45h-259v4q0 41 18.5 75.5t60.5 60.5z" />
    <glyph glyph-name="uni2783" unicode="&#x2783;" horiz-adv-x="828" 
d="M43 354q0 76 28.5 143t77.5 117t115 79t141 29t141.5 -29t116 -79t78.5 -117t29 -143q0 -75 -29 -142t-78.5 -117t-116 -79t-141.5 -29t-141 29t-115 79t-77.5 117t-28.5 142zM93 354q0 -67 24.5 -125t66.5 -101.5t99 -68.5t122 -25t122 25t99 68.5t66.5 101.5t24.5 125
t-24.5 126t-66.5 102t-99 68t-122 25t-122 -25t-99 -68t-66.5 -102t-24.5 -126zM359 388l114 103h-194v44h262v-43l-116 -103q2 1 9 1q22 0 43 -7t37 -20.5t25.5 -33.5t9.5 -46q0 -24 -10 -45.5t-28 -37.5t-44 -25.5t-57 -9.5q-61 0 -98 31t-44 75l47 17q3 -36 31 -57
t63 -21q38 0 62.5 20.5t24.5 52.5q0 35 -25 52.5t-58 17.5q-17 0 -32 -5z" />
    <glyph glyph-name="uni2784" unicode="&#x2784;" horiz-adv-x="828" 
d="M43 354q0 76 28.5 143t77.5 117t115 79t141 29t141.5 -29t116 -79t78.5 -117t29 -143q0 -75 -29 -142t-78.5 -117t-116 -79t-141.5 -29t-141 29t-115 79t-77.5 117t-28.5 142zM93 354q0 -67 24.5 -125t66.5 -101.5t99 -68.5t122 -25t122 25t99 68.5t66.5 101.5t24.5 125
t-24.5 126t-66.5 102t-99 68t-122 25t-122 -25t-99 -68t-66.5 -102t-24.5 -126zM236 309l179 230h62v-237h70v-45h-70v-81h-51v81h-190v52zM426 481l-140 -179h140v179z" />
    <glyph glyph-name="uni2785" unicode="&#x2785;" horiz-adv-x="828" 
d="M43 354q0 76 28.5 143t77.5 117t115 79t141 29t141.5 -29t116 -79t78.5 -117t29 -143q0 -75 -29 -142t-78.5 -117t-116 -79t-141.5 -29t-141 29t-115 79t-77.5 117t-28.5 142zM93 354q0 -67 24.5 -125t66.5 -101.5t99 -68.5t122 -25t122 25t99 68.5t66.5 101.5t24.5 125
t-24.5 126t-66.5 102t-99 68t-122 25t-122 -25t-99 -68t-66.5 -102t-24.5 -126zM312 285q5 -32 30 -53t60 -21q38 0 62 21.5t24 56.5q0 36 -24 57.5t-61 21.5q-46 0 -78 -34l-45 16l49 186h196v-45h-162l-30 -113q17 17 39 24.5t44 7.5q56 0 90 -33t34 -86q0 -26 -9.5 -48.5
t-27.5 -39.5t-43.5 -27t-57.5 -10q-27 0 -50 8.5t-41 22t-29.5 31.5t-14.5 38z" />
    <glyph glyph-name="uni2786" unicode="&#x2786;" horiz-adv-x="828" 
d="M43 354q0 76 28.5 143t77.5 117t115 79t141 29t141.5 -29t116 -79t78.5 -117t29 -143q0 -75 -29 -142t-78.5 -117t-116 -79t-141.5 -29t-141 29t-115 79t-77.5 117t-28.5 142zM93 354q0 -67 24.5 -125t66.5 -101.5t99 -68.5t122 -25t122 25t99 68.5t66.5 101.5t24.5 125
t-24.5 126t-66.5 102t-99 68t-122 25t-122 -25t-99 -68t-66.5 -102t-24.5 -126zM512 484q-29 16 -69 16q-32 0 -57 -11t-43 -30.5t-28 -45.5t-12 -57q11 25 40.5 43t65.5 18q56 0 92.5 -33.5t36.5 -90.5q0 -28 -11 -51.5t-30 -40t-44.5 -25.5t-54.5 -9q-30 0 -56.5 11
t-46.5 32t-31.5 52.5t-11.5 72.5q0 50 15 89t40.5 65.5t59.5 40.5t73 14q53 0 85 -19zM312 293q0 -37 26.5 -59t60.5 -22q35 0 60.5 22t25.5 59t-25.5 58.5t-60.5 21.5q-34 0 -60.5 -21.5t-26.5 -58.5z" />
    <glyph glyph-name="uni2787" unicode="&#x2787;" horiz-adv-x="828" 
d="M43 354q0 76 28.5 143t77.5 117t115 79t141 29t141.5 -29t116 -79t78.5 -117t29 -143q0 -75 -29 -142t-78.5 -117t-116 -79t-141.5 -29t-141 29t-115 79t-77.5 117t-28.5 142zM93 354q0 -67 24.5 -125t66.5 -101.5t99 -68.5t122 -25t122 25t99 68.5t66.5 101.5t24.5 125
t-24.5 126t-66.5 102t-99 68t-122 25t-122 -25t-99 -68t-66.5 -102t-24.5 -126zM557 488q-23 -20 -49 -47t-49.5 -65.5t-41.5 -88.5t-25 -115h-55q7 68 27 121.5t44 93t47 65t37 38.5h-219v45h284v-47z" />
    <glyph glyph-name="uni2788" unicode="&#x2788;" horiz-adv-x="828" 
d="M43 354q0 76 28.5 143t77.5 117t115 79t141 29t141.5 -29t116 -79t78.5 -117t29 -143q0 -75 -29 -142t-78.5 -117t-116 -79t-141.5 -29t-141 29t-115 79t-77.5 117t-28.5 142zM93 354q0 -67 24.5 -125t66.5 -101.5t99 -68.5t122 -25t122 25t99 68.5t66.5 101.5t24.5 125
t-24.5 126t-66.5 102t-99 68t-122 25t-122 -25t-99 -68t-66.5 -102t-24.5 -126zM410 167q-66 0 -101.5 30.5t-35.5 74.5q0 30 20 54t54 35q-29 9 -46 31.5t-17 50.5q0 44 34.5 72.5t91.5 28.5t92.5 -28.5t35.5 -72.5q0 -28 -17.5 -50.5t-46.5 -31.5q34 -11 54 -35t20 -54
q0 -44 -36 -74.5t-102 -30.5zM410 381q35 0 56 17t21 44q0 26 -20.5 43t-56.5 17q-35 0 -55 -17t-20 -43q0 -27 20.5 -44t54.5 -17zM410 211q42 0 63.5 18.5t21.5 45.5q0 28 -21.5 46.5t-63.5 18.5q-41 0 -63 -18.5t-22 -46.5q0 -27 22.5 -45.5t62.5 -18.5z" />
    <glyph glyph-name="uni2789" unicode="&#x2789;" horiz-adv-x="828" 
d="M43 354q0 76 28.5 143t77.5 117t115 79t141 29t141.5 -29t116 -79t78.5 -117t29 -143q0 -75 -29 -142t-78.5 -117t-116 -79t-141.5 -29t-141 29t-115 79t-77.5 117t-28.5 142zM93 354q0 -67 24.5 -125t66.5 -101.5t99 -68.5t122 -25t122 25t99 68.5t66.5 101.5t24.5 125
t-24.5 126t-66.5 102t-99 68t-122 25t-122 -25t-99 -68t-66.5 -102t-24.5 -126zM500 419q0 37 -25.5 58.5t-60.5 21.5t-60 -21.5t-25 -58.5t25 -58.5t60 -21.5t60.5 21.5t25.5 58.5zM302 229q16 -8 35 -13t38 -5q59 0 96 36.5t39 109.5q-11 -27 -40 -44t-64 -17
q-27 0 -50.5 8.5t-41 24.5t-27.5 39t-10 51q0 27 11 50t29.5 39.5t44 25.5t54.5 9q30 0 56.5 -11t46 -32t31 -52t11.5 -71q0 -47 -12 -86t-35 -67t-57 -43t-79 -15q-25 0 -49 6t-40 16z" />
    <glyph glyph-name="uni2051" unicode="&#x2051;" horiz-adv-x="422" 
d="M281 577l133 43l6 -43l-135 -43l60 -110l-38 -25l-60 112l-104 -114l-34 29l105 112l-115 41l20 41l116 -43l25 132h49zM191 179l133 43l6 -43l-135 -43l60 -110l-38 -25l-60 112l-104 -114l-34 29l105 112l-115 41l20 41l116 -43l25 132h49z" />
    <glyph glyph-name="uni2042" unicode="&#x2042;" horiz-adv-x="815" 
d="M477 577l133 43l6 -43l-135 -43l60 -110l-38 -25l-60 112l-104 -114l-34 29l105 112l-115 41l20 41l116 -43l25 132h49zM608 179l133 43l6 -43l-135 -43l60 -110l-38 -25l-60 112l-104 -114l-34 29l105 112l-115 41l20 41l116 -43l25 132h49zM197 179l133 43l6 -43
l-135 -43l60 -110l-38 -25l-60 112l-104 -114l-34 29l105 112l-115 41l20 41l116 -43l25 132h49z" />
    <glyph glyph-name="uni262E" unicode="&#x262e;" horiz-adv-x="828" 
d="M770 354q0 -75 -28.5 -142t-78 -117t-116 -79t-142.5 -29q-75 0 -141 29t-115 79t-77.5 117t-28.5 142q0 76 28.5 143t77.5 117t115 79t141 29q76 0 142.5 -29t116 -79t78 -117t28.5 -143zM94 354q0 -51 14.5 -97t41.5 -84l228 228v272q-60 -5 -112 -31.5t-90.5 -69
t-60 -98.5t-21.5 -120zM717 354q0 64 -22 120t-60 98.5t-90.5 69t-112.5 31.5v-272l229 -230q26 39 41 85.5t15 97.5zM182 130q38 -40 88 -64.5t108 -29.5v289zM432 36q57 5 107.5 29t88.5 64l-196 196v-289z" />
    <glyph glyph-name="uni2715" unicode="&#x2715;" horiz-adv-x="772" 
d="M44 34l304 311l-304 311l38 38l304 -311l303 311l39 -38l-305 -311l305 -311l-38 -38l-304 311l-304 -311z" />
    <glyph glyph-name="uni2713" unicode="&#x2713;" horiz-adv-x="834" 
d="M268 -16l-281 314l39 37l245 -270l596 643l38 -37z" />
    <glyph glyph-name="uni25A0" unicode="&#x25a0;" horiz-adv-x="880" 
d="M88 709h704v-709h-704v709z" />
    <glyph glyph-name="uni25A1" unicode="&#x25a1;" horiz-adv-x="880" 
d="M88 0v709h704v-709h-704zM141 49h598v611h-598v-611z" />
    <glyph glyph-name="uni25B2" unicode="&#x25b2;" horiz-adv-x="859" 
d="M786 0h-840l422 726z" />
    <glyph glyph-name="uni25B3" unicode="&#x25b3;" horiz-adv-x="859" 
d="M368 726l418 -726h-840zM35 49h662l-330 572z" />
    <glyph glyph-name="uni25CF" unicode="&#x25cf;" horiz-adv-x="842" 
d="M47 354q0 76 29 143.5t78.5 117.5t116.5 79t144 29q76 0 143.5 -29t117.5 -79t79 -117.5t29 -143.5q0 -77 -29 -144t-79 -116.5t-117.5 -78.5t-143.5 -29q-77 0 -144 29t-116.5 78.5t-78.5 116.5t-29 144z" />
    <glyph glyph-name="uni25CB" unicode="&#x25cb;" horiz-adv-x="842" 
d="M784 354q0 -77 -29 -144t-79 -116.5t-117.5 -78.5t-143.5 -29q-77 0 -144 29t-116.5 78.5t-78.5 116.5t-29 144q0 76 29 143.5t78.5 117.5t116.5 79t144 29q76 0 143.5 -29t117.5 -79t79 -117.5t29 -143.5zM730 354q0 66 -24.5 124t-67.5 100.5t-100 67.5t-123 25
q-65 0 -122.5 -25t-100.5 -67.5t-67.5 -100.5t-24.5 -124t24.5 -124t67.5 -100.5t100.5 -67.5t122.5 -25q66 0 123 25t100 67.5t67.5 100.5t24.5 124z" />
    <glyph glyph-name="G.salt" horiz-adv-x="736" 
d="M417 723q58 0 105.5 -17t83.5 -46t59 -69.5t33 -86.5l-60 -21q-9 40 -28 73t-48 57t-67 37.5t-85 13.5q-60 0 -115 -25t-98 -71.5t-68.5 -114t-25.5 -152.5q0 -63 19 -110.5t51.5 -80t75.5 -49t92 -16.5q47 0 90 16t77.5 45t60 69t37.5 88h-270l13 57h330
q-8 -70 -36 -130.5t-73 -105.5t-104.5 -71t-129.5 -26q-60 0 -114 21t-95 61t-65 98t-24 131q0 106 34 185.5t88.5 133t122 80t134.5 26.5z" />
    <glyph glyph-name="Gbreve.salt" horiz-adv-x="736" 
d="M417 723q58 0 105.5 -17t83.5 -46t59 -69.5t33 -86.5l-60 -21q-9 40 -28 73t-48 57t-67 37.5t-85 13.5q-60 0 -115 -25t-98 -71.5t-68.5 -114t-25.5 -152.5q0 -63 19 -110.5t51.5 -80t75.5 -49t92 -16.5q47 0 90 16t77.5 45t60 69t37.5 88h-270l13 57h330
q-8 -70 -36 -130.5t-73 -105.5t-104.5 -71t-129.5 -26q-60 0 -114 21t-95 61t-65 98t-24 131q0 106 34 185.5t88.5 133t122 80t134.5 26.5zM439 754q-31 0 -54 8.5t-38 23.5t-22.5 34.5t-7.5 41.5q0 8 2 18h49q-1 -4 -1 -10q0 -26 17.5 -46.5t59.5 -20.5q23 0 41 6.5
t31.5 17.5t23 24.5t14.5 28.5h51q-7 -24 -21 -46.5t-35 -40t-48.5 -28.5t-61.5 -11z" />
    <glyph glyph-name="Gcircumflex.salt" horiz-adv-x="736" 
d="M417 723q58 0 105.5 -17t83.5 -46t59 -69.5t33 -86.5l-60 -21q-9 40 -28 73t-48 57t-67 37.5t-85 13.5q-60 0 -115 -25t-98 -71.5t-68.5 -114t-25.5 -152.5q0 -63 19 -110.5t51.5 -80t75.5 -49t92 -16.5q47 0 90 16t77.5 45t60 69t37.5 88h-270l13 57h330
q-8 -70 -36 -130.5t-73 -105.5t-104.5 -71t-129.5 -26q-60 0 -114 21t-95 61t-65 98t-24 131q0 106 34 185.5t88.5 133t122 80t134.5 26.5zM280 759l134 119h81l85 -119h-53l-78 83l-110 -83h-59z" />
    <glyph glyph-name="Gcommaaccent.salt" horiz-adv-x="736" 
d="M417 723q58 0 105.5 -17t83.5 -46t59 -69.5t33 -86.5l-60 -21q-9 40 -28 73t-48 57t-67 37.5t-85 13.5q-60 0 -115 -25t-98 -71.5t-68.5 -114t-25.5 -152.5q0 -63 19 -110.5t51.5 -80t75.5 -49t92 -16.5q47 0 90 16t77.5 45t60 69t37.5 88h-270l13 57h330
q-8 -70 -36 -130.5t-73 -105.5t-104.5 -71t-129.5 -26q-60 0 -114 21t-95 61t-65 98t-24 131q0 106 34 185.5t88.5 133t122 80t134.5 26.5zM267 -90q0 19 14 33.5t35 14.5q17 0 31.5 -11.5t14.5 -37.5q0 -29 -11.5 -50t-28.5 -35t-37 -20.5t-38 -6.5h-6l7 30q23 1 44.5 14
t28.5 37q-6 -4 -16 -4q-17 0 -27.5 10.5t-10.5 25.5z" />
    <glyph glyph-name="Gdotaccent.salt" horiz-adv-x="736" 
d="M417 723q58 0 105.5 -17t83.5 -46t59 -69.5t33 -86.5l-60 -21q-9 40 -28 73t-48 57t-67 37.5t-85 13.5q-60 0 -115 -25t-98 -71.5t-68.5 -114t-25.5 -152.5q0 -63 19 -110.5t51.5 -80t75.5 -49t92 -16.5q47 0 90 16t77.5 45t60 69t37.5 88h-270l13 57h330
q-8 -70 -36 -130.5t-73 -105.5t-104.5 -71t-129.5 -26q-60 0 -114 21t-95 61t-65 98t-24 131q0 106 34 185.5t88.5 133t122 80t134.5 26.5zM404 813q0 22 15 38t38 16q19 0 30 -13t11 -30q0 -22 -15 -37.5t-36 -15.5q-20 0 -31.5 12.5t-11.5 29.5z" />
    <glyph glyph-name="ampersand.salt" horiz-adv-x="645" 
d="M520 241q-9 -65 -33.5 -112.5t-60.5 -79t-80.5 -47t-92.5 -15.5q-53 0 -94.5 15t-70.5 41t-44.5 61t-15.5 76q0 45 16.5 82.5t44 66t63.5 47t76 24.5q-42 18 -64 53.5t-22 76.5t16.5 76t44.5 61t65.5 40.5t78.5 14.5q45 0 79 -13t57.5 -36t35.5 -54.5t12 -68.5
q0 -6 -0.5 -11.5t-1.5 -10.5l-62 -8q1 5 1.5 10.5t0.5 10.5q0 54 -30.5 89.5t-95.5 35.5q-28 0 -53 -10t-44 -28t-30.5 -43t-11.5 -54q0 -42 30 -73.5t84 -37.5l-12 -55h-12q-37 0 -73 -11t-64.5 -33.5t-46.5 -55.5t-18 -78q0 -29 10.5 -54.5t31 -45t51 -31t70.5 -11.5
q35 0 68.5 10.5t61 34t47 61t27.5 90.5h-108l11 58h255l-12 -58h-85z" />
    <glyph glyph-name="uni2113" unicode="&#x2113;" horiz-adv-x="422" 
d="M82 107q0 11 1.5 24t4.5 27q1 3 4 19t7 33l9 45q-18 -6 -36 -10t-36 -7l12 56q17 4 35.5 9t38.5 13l47 224q14 68 47.5 103.5t82.5 35.5q54 0 79.5 -29t25.5 -74q0 -51 -18 -96t-49.5 -82.5t-73.5 -68t-89 -51.5l-27 -129q-2 -7 -3 -17t-1 -17q0 -34 19.5 -49.5
t53.5 -15.5q23 0 40 5.5t30 11.5l-11 -55q-13 -7 -30.5 -12t-38.5 -5q-62 0 -93 30t-31 82zM189 349q31 17 59 39t49 50t33.5 61t12.5 72q0 23 -11 37.5t-35 14.5q-50 0 -69 -89z" />
    <glyph glyph-name="mu.alt" horiz-adv-x="540" 
d="M402 84q-7 -17 -20 -34t-32 -30.5t-44.5 -22.5t-57.5 -9q-49 0 -85 19.5t-53 54.5v-252h-40v664h40v-291q0 -31 7.5 -59.5t24.5 -50.5t44 -35.5t66 -13.5q33 0 60.5 12.5t46.5 34.5t29.5 50.5t10.5 60.5v292h40v-382q0 -26 2 -50.5t4 -41.5h-38q-1 8 -3.5 30t-1.5 54z
" />
    <glyph glyph-name="k.ordn" horiz-adv-x="414" 
d="M212 481l-75 -58l-23 -110h-51l109 509h51l-71 -328l203 156h76l-179 -138l99 -199h-58z" />
    <glyph glyph-name="i.ordn" horiz-adv-x="251" 
d="M171 781q0 19 12.5 31t29.5 12t26 -9.5t9 -24.5q0 -18 -12.5 -30t-29.5 -12q-16 0 -25.5 9.5t-9.5 23.5zM84 313l72 337h51l-72 -337h-51z" />
    <glyph glyph-name="b.ordn" horiz-adv-x="480" 
d="M89 313l108 509h50l-46 -217q16 20 45.5 37t68.5 17q31 0 55.5 -11t42 -30.5t26.5 -46t9 -57.5q0 -44 -14 -82.5t-38 -67t-56.5 -44.5t-69.5 -16q-26 0 -45.5 7t-34 18.5t-23.5 26t-13 29.5l-15 -72h-50zM299 613q-27 0 -50.5 -12.5t-40 -34t-26 -50t-9.5 -59.5
q0 -46 24 -76.5t69 -30.5q25 0 48.5 11.5t41.5 32.5t28.5 50t10.5 65q0 45 -25.5 74.5t-70.5 29.5z" />
    <glyph glyph-name="t.ordn" horiz-adv-x="310" 
d="M164 416q-3 -12 -3 -21q0 -42 50 -42q7 0 13.5 1t10.5 2l-9 -43q-5 -2 -13.5 -3t-19.5 -1q-38 0 -61 21t-23 56q0 13 3 28l42 191h-69l10 45h19q52 0 62 46l13 60h47l-22 -106h83l-10 -45h-83z" />
    <glyph glyph-name="m.ordn" horiz-adv-x="653" 
d="M287 313l43 207q3 13 3 27q0 28 -15.5 47.5t-50.5 19.5q-22 0 -39.5 -8t-30 -21t-21 -29.5t-12.5 -34.5l-44 -208h-50l61 288q6 33 6 49h50q0 -6 -1.5 -18t-4.5 -26q15 23 43 38t61 15q38 0 61 -19t32 -46q19 31 49.5 48t70.5 17q46 0 73.5 -28t27.5 -74q0 -15 -3 -31
l-44 -213h-51l43 209q3 13 3 25q0 28 -17 47.5t-53 19.5q-38 0 -63 -26.5t-33 -64.5l-2 -9.5t-5 -24t-7 -33.5l-8 -38q-10 -46 -22 -105h-50z" />
    <glyph glyph-name="q.ordn" horiz-adv-x="478" 
d="M319 178h-51l39 181q-16 -20 -42.5 -37t-64.5 -17q-33 0 -58 11.5t-42.5 31.5t-26.5 47t-9 58q0 43 13.5 80.5t37.5 65t56 43.5t69 16q28 0 48 -7.5t33.5 -18.5t21.5 -24t12 -24l14 66h51zM242 613q-27 0 -50.5 -13t-40.5 -34.5t-26.5 -50.5t-9.5 -61q0 -45 25 -74.5
t71 -29.5q28 0 51 13.5t39.5 36t25.5 51.5t9 60q0 45 -24 73.5t-70 28.5z" />
    <glyph glyph-name="z.ordn" horiz-adv-x="406" 
d="M59 313l10 45l254 247h-198l9 45h263l-10 -45l-255 -247h207l-9 -45h-271z" />
    <glyph glyph-name="o.ordn" horiz-adv-x="451" 
d="M393 508q0 -45 -15 -82.5t-40 -64.5t-58.5 -42t-69.5 -15q-34 0 -62 11t-47.5 31.5t-30 48t-10.5 60.5q0 46 15 83.5t40.5 64.5t59 41.5t69.5 14.5q34 0 61.5 -11.5t47 -31.5t30 -47.5t10.5 -60.5zM242 613q-25 0 -48.5 -10.5t-41.5 -30.5t-29 -49t-11 -66
q0 -48 25.5 -78t73.5 -30q24 0 47.5 10.5t41.5 30.5t29.5 49t11.5 67q0 50 -27 78.5t-72 28.5z" />
    <glyph glyph-name="p.ordn" horiz-adv-x="475" 
d="M289 613q-28 0 -51 -12.5t-40 -34t-26.5 -50t-9.5 -59.5q0 -48 24.5 -77.5t69.5 -29.5q25 0 48 11.5t41 32.5t28.5 50t10.5 65q0 45 -25 74.5t-70 29.5zM189 601q16 22 46 39.5t69 17.5q63 0 97.5 -40t34.5 -103q0 -44 -13.5 -82.5t-37.5 -67t-56 -45t-69 -16.5
q-25 0 -45 7t-34.5 18t-24 25.5t-13.5 28.5l-44 -205h-51l90 417q1 5 2.5 14l3 18t3 16l1.5 7h50l-1.5 -7t-3 -15.5t-3 -16.5t-1.5 -10z" />
    <glyph glyph-name="n.ordn" horiz-adv-x="443" 
d="M295 313l43 205q2 7 3 14t1 14q0 29 -16.5 48.5t-51.5 19.5q-19 0 -36.5 -7.5t-32 -20.5t-24 -29.5t-13.5 -35.5l-44 -208h-51l62 288q3 17 4 29.5t2 19.5h49q0 -6 -1 -18t-4 -26q16 23 44.5 38t61.5 15q52 0 77.5 -30t25.5 -72q0 -9 -1 -17.5t-3 -17.5l-44 -209h-51z
" />
    <glyph glyph-name="one.ss05" horiz-adv-x="450" 
d="M144 56l111 527q-8 -12 -29 -23t-48 -20.5t-55 -16t-48 -7.5l9 47q71 7 122 48t77 98h60l-138 -653h171l-11 -56h-390l11 56h158z" />
    <glyph glyph-name="e.ordn" horiz-adv-x="433" 
d="M114 472q-1 -5 -1 -10v-10q0 -48 28 -76t71 -28q38 0 64.5 19.5t41.5 45.5l39 -21q-20 -37 -57.5 -62.5t-88.5 -25.5q-32 0 -59 10t-46.5 29.5t-31 47.5t-11.5 63q0 47 15.5 85t40.5 64.5t57.5 41t65.5 14.5q69 0 104 -38.5t35 -96.5q0 -17 -2.5 -31.5t-4.5 -20.5h-260z
M329 511q0 4 0.5 8t0.5 9q0 34 -21.5 60.5t-69.5 26.5q-24 0 -43.5 -9t-34 -23.5t-24.5 -33t-15 -38.5h207z" />
    <glyph glyph-name="c.ordn" horiz-adv-x="431" 
d="M340 538q-6 33 -30.5 54t-63.5 21q-24 0 -47.5 -10.5t-42 -31t-30 -49.5t-11.5 -66q0 -49 28.5 -78t74.5 -29q41 0 66.5 22t39.5 48l44 -18q-9 -18 -23.5 -35.5t-33.5 -31t-43 -22t-52 -8.5q-35 0 -63 11.5t-48 31.5t-31 47.5t-11 60.5q0 45 15.5 82.5t41.5 64.5t59.5 42
t69.5 15q32 0 56.5 -9t41.5 -24t27 -34t14 -39z" />
    <glyph glyph-name="v.ordn" horiz-adv-x="373" 
d="M189 313h-51l-63 337h54l45 -277l160 277h58z" />
    <glyph glyph-name="s.ordn" horiz-adv-x="376" 
d="M110 427q0 -5 2 -12t5 -11q3 -25 21 -41.5t53 -16.5q31 0 50.5 16.5t19.5 42.5q0 17 -11.5 28.5t-30.5 18.5l-50 19q-30 11 -47 31.5t-17 49.5q0 22 9 41.5t25.5 34t39 23t48.5 8.5q32 0 54 -10t35.5 -25t19.5 -33t7 -33l-47 -11v3q0 25 -17 45.5t-56 20.5q-27 0 -48 -15
t-21 -41q0 -32 38 -46l50 -18q33 -12 51 -34.5t18 -51.5q0 -21 -8 -40t-23.5 -33.5t-38.5 -23.5t-53 -9q-34 0 -57.5 10.5t-38 26t-21 34.5t-6.5 37v5z" />
    <glyph glyph-name="d.ordn" horiz-adv-x="462" 
d="M241 613q-27 0 -50 -13t-40 -34.5t-26.5 -50.5t-9.5 -61q0 -46 24 -75t70 -29q28 0 51.5 13.5t40 36t25.5 52t9 60.5q0 45 -24 73t-70 28zM310 366q-15 -22 -43 -41.5t-69 -19.5q-33 0 -58 11.5t-42 31.5t-26 47t-9 58q0 43 13.5 80.5t37.5 65.5t56 44t69 16
q29 0 49 -7.5t33.5 -19t21.5 -24.5t11 -23l49 237h51l-94 -447q-3 -11 -4.5 -25.5t-2.5 -28.5v-8h-49v8q1 6 2 17t4 28z" />
    <glyph glyph-name="h.ordn" horiz-adv-x="447" 
d="M294 312l43 204q3 13 3 28q0 29 -15 49.5t-53 20.5q-20 0 -37 -8t-31 -21t-23.5 -29.5t-13.5 -33.5l-44 -210h-51l108 509h51l-45 -210q17 21 44 34t59 13q54 0 79.5 -30.5t25.5 -72.5q0 -9 -1 -17.5t-3 -16.5l-44 -209h-52z" />
    <glyph glyph-name="x.ordn" horiz-adv-x="397" 
d="M107 313h-64l165 172l-88 165h55l67 -128l119 128h65l-159 -167l93 -170h-57l-70 133z" />
    <glyph glyph-name="f.ordn" horiz-adv-x="339" 
d="M218 605l-61 -292h-52l62 292h-67l9 45h68l14 70q11 54 43 76.5t70 22.5q17 0 29.5 -4t18.5 -7l-9 -43q-5 2 -14 4.5t-22 2.5q-23 0 -41 -13.5t-26 -47.5l-13 -61h89l-10 -45h-88z" />
    <glyph glyph-name="l.ordn" horiz-adv-x="227" 
d="M69 313l109 509h51l-109 -509h-51z" />
    <glyph glyph-name="y.ordn" horiz-adv-x="398" 
d="M58 178l127 186l-78 286h54l62 -235l156 235h58l-321 -472h-58z" />
    <glyph glyph-name="j.ordn" horiz-adv-x="255" 
d="M182 781q0 19 12.5 31t29.5 12q16 0 25.5 -9.5t9.5 -24.5q0 -18 -13 -30t-30 -12q-15 0 -24.5 9.5t-9.5 23.5zM167 650h51l-83 -389q-10 -43 -37 -65.5t-63 -22.5q-20 0 -32.5 4t-17.5 7l9 42q7 -3 15.5 -5.5t19.5 -2.5q46 0 57 53z" />
    <glyph glyph-name="r.ordn" horiz-adv-x="276" 
d="M293 595q-15 6 -35 6q-39 0 -69.5 -25.5t-42.5 -80.5l-38 -182h-50l58 280q5 23 6 36.5t2 20.5h50q0 -8 -1.5 -21.5t-5.5 -30.5q20 30 47.5 42.5t56.5 12.5q10 0 19 -1t15 -3l-12 -54v0z" />
    <glyph glyph-name="a.ordn" horiz-adv-x="461" 
d="M235 614q-27 0 -50 -13t-40 -34.5t-26.5 -50.5t-9.5 -62q0 -46 24 -75.5t70 -29.5q28 0 51.5 14t40.5 36.5t26 52t9 60.5q0 45 -24 73.5t-71 28.5zM363 650h49l-58 -276q-2 -11 -4 -25.5t-3 -28.5v-7h-47q-1 2 -1 7q1 7 2 18t4 28q-14 -22 -42.5 -41.5t-69.5 -19.5
q-33 0 -58 11.5t-42 31.5t-26 47t-9 58q0 43 13.5 80.5t37.5 65t56 43.5t69 16q29 0 49.5 -8t34 -19t21 -24.5t10.5 -23.5z" />
    <glyph glyph-name="u.ordn" horiz-adv-x="414" 
d="M267 356q-14 -20 -39.5 -35.5t-56.5 -15.5q-30 0 -51 9t-35 24t-20.5 35t-6.5 41q0 10 1.5 19t3.5 19l42 198h51l-42 -196q-2 -8 -3 -16t-1 -16q0 -14 3.5 -27.5t12 -23.5t22.5 -16t34 -6q38 0 64.5 27.5t34.5 64.5l45 209h50l-56 -263q-3 -17 -5.5 -33.5t-2.5 -32.5v-8
h-47q-1 2 -1 6q0 6 0.5 17t2.5 20z" />
    <glyph glyph-name="w.ordn" horiz-adv-x="582" 
d="M354 650l39 -273l141 273h55l-180 -337h-54l-38 276l-152 -276h-55l-38 337h51l27 -272l151 272h53z" />
    <glyph glyph-name="g.ordn" horiz-adv-x="449" 
d="M355 517q0 39 -23.5 67.5t-69.5 28.5q-24 0 -45.5 -10.5t-38 -29t-26 -44t-9.5 -56.5q0 -42 23.5 -70t69.5 -28q24 0 46 10.5t38 29.5t25.5 45t9.5 57zM102 307q0 -38 23 -65t73 -27q54 0 81 34t38 84l10 49q-12 -20 -37 -35t-63 -15q-64 0 -99 38.5t-35 98.5q0 40 13 74
t35.5 59.5t53.5 40t66 14.5q50 0 76 -22t34 -48l14 63h51l-68 -318q-6 -29 -17.5 -58t-31.5 -52t-49.5 -37.5t-71.5 -14.5q-36 0 -63 10t-45 27.5t-27.5 41t-9.5 49.5z" />
    <glyph glyph-name="Eth" unicode="&#xd0;" horiz-adv-x="687" 
d="M30 391h77l68 318h189q63 0 115.5 -19t90 -54t58.5 -86t21 -115q0 -95 -31 -174.5t-86 -137.5t-129 -90.5t-159 -32.5h-220l72 337h-77zM246 57q59 0 119.5 24t109 71t79 117t30.5 163q0 55 -17 96t-47 68.5t-72 41.5t-93 14h-128l-56 -261h150l-11 -54h-150l-60 -280
h146z" />
    <glyph glyph-name="eth" unicode="&#xf0;" horiz-adv-x="543" 
d="M414 585q32 -49 51.5 -111t19.5 -135q0 -75 -17.5 -139.5t-51.5 -112t-82.5 -74.5t-109.5 -27q-47 0 -86 16t-67 44t-43.5 66t-15.5 82q0 59 20.5 108t55 84.5t79.5 55t93 19.5q57 0 101.5 -24t64.5 -73q-9 118 -69 199l-132 -49l-16 43l115 43q-49 50 -120 78l27 47
q43 -17 82.5 -43t68.5 -59l119 44l18 -43zM415 259q0 34 -11.5 62t-32 47.5t-48.5 30t-61 10.5q-35 0 -68.5 -14t-60.5 -41t-43.5 -67t-16.5 -92q0 -33 11.5 -61.5t32 -49t48.5 -32.5t60 -12q37 0 71.5 15.5t60.5 44.5t42 69t16 90z" />
    </font>
</defs>
</svg>
