<svg xmlns="http://www.w3.org/2000/svg" viewBox="0 0 93 29">
  <g fill-rule="evenodd">
    <path d="M25.1029644 23.4436186C24.886326 24.9550628 23.8731499 26.2504091 22.458696 26.8240283 21.7647462 27.1056336 21.0060342 27.2047541 20.2350002 27.1153738 19.4971115 27.0297177 18.7707806 26.781248 18.0147431 26.3559275 16.9680396 25.7669341 15.9084409 24.8627223 14.7161656 23.5364367 16.6142351 21.192304 17.799442 19.0317065 18.2383545 17.1072603 18.4391366 16.2274944 18.4816428 15.3952833 18.3645358 14.6336408 18.2515362 13.8985449 17.992296 13.2313437 17.5939794 12.6505626 16.7061249 11.3558847 15.1757103 10.5828786 13.4995327 10.5828786 11.8243104 10.5828786 10.2940868 11.3556938 9.40623228 12.6501806 9.00791565 13.2309617 8.74867551 13.8980674 8.63567585 14.6326858 8.51847333 15.3935645 8.56078851 16.2253935 8.76118858 17.1053505 9.19981448 19.0305606 10.3851169 21.191731 12.2837595 23.5365322 11.0914842 24.8627223 10.0318855 25.7669341 8.98518199 26.3559275 8.22924005 26.781248 7.50300471 27.0297177 6.76502045 27.1153738 5.99427299 27.2047541 5.2351789 27.1056336 4.54113366 26.8240283 3.12667976 26.2504091 2.1135036 24.9550628 1.89715176 23.4436186 1.79131607 22.7048941 1.8729853 21.9924298 2.15419494 21.2013757 2.25773816 20.9097438 2.37895251 20.6235548 2.52910928 20.2835085 2.74154482 19.8024209 2.96706654 19.3135028 3.18513774 18.8407229L3.21446225 18.7772209C5.21091693 14.4473363 7.35389865 10.0577692 9.58399422 5.73017639L9.67263639 5.55790918C9.89968642 5.11673707 10.1344735 4.66057275 10.3713621 4.2197826 10.617134 3.76285434 10.8646252 3.32110928 11.1895828 2.94028799 11.7969918 2.2286831 12.5959175 1.8525409 13.5000103 1.8525409 14.4038166 1.8525409 15.2025513 2.22849212 15.8098647 2.93990602 16.1352999 3.3208228 16.3826956 3.76237688 16.6280854 4.21892318 16.862777 4.65579816 17.0955583 5.10785633 17.3206024 5.5449223L17.4160264 5.73036737C19.645931 10.0573873 21.7889127 14.4470498 23.7855584 18.7776029L23.8035161 18.8165635C24.0255036 19.2972692 24.2548461 19.7942086 24.4708159 20.283604 24.6212592 20.6242233 24.7426646 20.9106032 24.8460168 21.2011847 25.1270353 21.9926208 25.2086091 22.7051806 25.1029644 23.4436186M13.5000103 22.0916458C11.9293819 20.097777 10.9216504 18.246191 10.5680369 16.6939718 10.4195995 16.0424313 10.38569 15.4437932 10.4671682 14.9144821 10.5376617 14.4566944 10.6948869 14.0473211 10.9345455 13.6977256 11.4767146 12.90734 12.4356357 12.435515 13.5002014 12.435515 14.564385 12.435515 15.5234015 12.907531 16.0656662 13.6981076 16.3053248 14.0476076 16.46255 14.4571719 16.5329479 14.9149596 16.6144261 15.4449391 16.5803257 16.0438636 16.4316972 16.6952132 16.0777016 18.2472414 15.0701611 20.0982544 13.5000103 22.0916458M26.5921146 20.5809655C26.462208 20.2159958 26.3106184 19.8627717 26.1661928 19.5355213 25.9440143 19.0322795 25.7112331 18.5278918 25.486189 18.0404062L25.4683268 18.001732C23.4606008 13.647115 21.3055836 9.23300656 19.0633571 4.88201823L18.9682196 4.6972416C18.7395457 4.25291826 18.5030392 3.79350721 18.2604195 3.34211748 17.9771084 2.81500275 17.6632311 2.25685318 17.2191606 1.73699583 16.2628186.616877022 14.9420694 0 13.5000103 0 12.0576647 0 10.7365334.617163497 9.77980935 1.73795074 9.33640747 2.25771261 9.02262566 2.8155757 8.73912356 3.34278592 8.4944024 3.79818631 8.25569898 4.26189448 8.02492368 4.71032397L7.93656807 4.88192274C5.69424599 9.23329304 3.53932433 13.6474014 1.53159834 18.0016365L1.50236935 18.0650431C1.281146 18.5445074 1.05237662 19.0404918.833923344 19.5353303.689497743 19.8622942.538003693 20.2152319.408001549 20.5811565.0277381116 21.6510466-.0851660287 22.6731908.0627937964 23.7061256.372277227 25.8675825 1.82130921 27.7200279 3.84431834 28.5406844 4.59557982 28.8453987 5.39326381 29.0000954 6.21501873 29 6.46776353 29 6.72480671 28.9850077 6.97879327 28.9555008 7.95223328 28.8424385 8.9330283 28.5109865 9.89405077 27.9703119 11.0698968 27.3087447 12.2313193 26.3390255 13.5000103 24.9534395 14.7687014 26.3390255 15.9300284 27.3087447 17.1058744 27.9703119 18.0670879 28.5110819 19.0478829 28.842534 20.0211319 28.9555008 20.2752139 28.9850077 20.5321616 29 20.7850019 29 21.6066613 29 22.4042498 28.8453987 23.1554158 28.5406844 25.1784249 27.7202189 26.6275524 25.8677735 26.9373224 23.7061256 27.0850912 22.6736683 26.972187 21.6514286 26.5921146 20.5809655M45.8999994 6.244L45.8999994 18.309C45.8999994 18.936 45.9189994 19.62 45.9759994 20L43.5629994 20C43.5059994 19.791 43.4679994 19.354 43.4679994 18.917 43.0309994 19.658 42.1189994 20.228 40.8459994 20.228 38.1859994 20.228 36.2859994 18.138 36.2859994 15.307 36.2859994 12.571 38.1289994 10.424 40.7699994 10.424 42.3659994 10.424 43.1639994 11.089 43.4109994 11.583L43.4109994 6.244 45.8999994 6.244zM38.8319994 15.307C38.8319994 16.979 39.8009994 17.967 41.1499994 17.967 42.4419994 17.967 43.4489994 16.979 43.4489994 15.288 43.4489994 13.616 42.4419994 12.685 41.1499994 12.685 39.8579994 12.685 38.8319994 13.635 38.8319994 15.307zM50.4789994 14.262L54.6589994 14.262C54.6019994 13.35 54.0129994 12.419 52.5689994 12.419 51.2579994 12.419 50.5359994 13.426 50.4789994 14.262zM54.9059994 16.694L57.0149994 17.321C56.5589994 18.955 55.0389994 20.285 52.7589994 20.285 50.1749994 20.285 47.9329994 18.442 47.9329994 15.288 47.9329994 12.305 50.1369994 10.367 52.5309994 10.367 55.4379994 10.367 57.1479994 12.191 57.1479994 15.212 57.1479994 15.573 57.1099994 15.934 57.1099994 15.991L50.4219994 15.991C50.4789994 17.207 51.5239994 18.119 52.7779994 18.119 53.9749994 18.119 54.6019994 17.53 54.9059994 16.694zM58.3449994 17.397C58.4399994 18.461 59.4279994 20.285 62.2399994 20.285 64.6909994 20.285 65.8689994 18.727 65.8689994 17.207 65.8689994 15.839 64.9379994 14.718 63.0949994 14.338L61.7649994 14.053C61.2519994 13.958 60.9099994 13.673 60.9099994 13.217 60.9099994 12.685 61.4419994 12.286 62.1069994 12.286 63.1899994 12.286 63.5509994 12.989 63.6459994 13.54L65.7549994 13.065C65.6599994 12.058 64.7289994 10.367 62.0879994 10.367 60.0739994 10.367 58.5919994 11.754 58.5919994 13.426 58.5919994 14.737 59.3899994 15.82 61.2139994 16.219L62.4489994 16.504C63.1899994 16.656 63.4559994 16.979 63.4559994 17.416 63.4559994 17.929 63.0569994 18.347 62.2209994 18.347 61.0999994 18.347 60.5679994 17.663 60.5109994 16.922L58.3449994 17.397zM70.4289994 20L70.4289994 10.652 67.9019994 10.652 67.9019994 20 70.4289994 20zM67.5979994 7.593C67.5979994 8.429 68.3009994 9.132 69.1559994 9.132 70.0489994 9.132 70.7139994 8.429 70.7139994 7.593 70.7139994 6.7 70.0489994 6.016 69.1559994 6.016 68.3009994 6.016 67.5979994 6.7 67.5979994 7.593zM72.4619994 20.513L74.7419994 19.905C74.9129994 20.95 75.7109994 21.672 76.9269994 21.672 78.5229994 21.672 79.4159994 20.893 79.4159994 19.069L79.4159994 18.385C79.0359994 18.993 78.1809994 19.582 76.8129994 19.582 74.3239994 19.582 72.4619994 17.663 72.4619994 15.041 72.4619994 12.552 74.2479994 10.481 76.8129994 10.481 78.3139994 10.481 79.1499994 11.127 79.4729994 11.754L79.4729994 10.652 81.9049994 10.652 81.9049994 18.993C81.9049994 21.558 80.4989994 23.895 77.0029994 23.895 74.4379994 23.895 72.7089994 22.299 72.4619994 20.513zM77.2499994 17.416C78.5419994 17.416 79.4539994 16.485 79.4539994 15.041 79.4539994 13.597 78.4659994 12.685 77.2499994 12.685 75.9769994 12.685 75.0079994 13.597 75.0079994 15.041 75.0079994 16.504 75.9389994 17.416 77.2499994 17.416zM86.9969994 14.623C86.9969994 13.54 87.6239994 12.685 88.7449994 12.685 89.9609994 12.685 90.4739994 13.483 90.4739994 14.547L90.4739994 20 93.0009994 20 93.0009994 14.11C93.0009994 12.058 91.9559994 10.405 89.6189994 10.405 88.6119994 10.405 87.5099994 10.842 86.9209994 11.811L86.9209994 10.652 84.4699994 10.652 84.4699994 20 86.9969994 20 86.9969994 14.623z"/>
  </g>
</svg>
